<?xml version="1.0" standalone="no"?>
<!DOCTYPE svg PUBLIC "-//W3C//DTD SVG 1.1//EN" "http://www.w3.org/Graphics/SVG/1.1/DTD/svg11.dtd" >
<svg xmlns="http://www.w3.org/2000/svg" xmlns:xlink="http://www.w3.org/1999/xlink" version="1.1">
<metadata>
Created by FontForge 20170731 at Mon Jul 24 16:10:42 2017
 By Aleksey,,,
Copyright 2017 The Exo Project Authors (https://github.com/NDISCOVER/Exo-1.0)
</metadata>
<defs>
<font id="Exo-ExtraLightItalic" horiz-adv-x="609" >
  <font-face 
    font-family="Exo ExtraLight"
    font-weight="275"
    font-style="italic"
    font-stretch="normal"
    units-per-em="1000"
    panose-1="0 0 3 0 0 0 0 0 0 0"
    ascent="800"
    descent="-200"
    x-height="532"
    cap-height="733"
    bbox="-474 -270 1371 1103"
    underline-thickness="50"
    underline-position="-150"
    slope="-9"
    unicode-range="U+000D-FB04"
  />
<missing-glyph horiz-adv-x="652" 
d="M89 533h534v-534h-534v534zM593 29v474h-474v-474h474zM189 121l144 144l-144 144l23 23l144 -144l144 144l23 -23l-144 -144l144 -144l-23 -23l-144 144l-144 -144z" />
    <glyph glyph-name="fi" unicode="fi" horiz-adv-x="558" 
d="M482 0h-41l78 495h-284l-78 -495h-41l78 495h-85l4 27l87 10l14 84q8 46 18 76t41 53.5t88 23.5q67 0 116 -6l-4 -28h-110q-38 0 -60 -15t-32 -41t-17 -69l-13 -78h325zM598.5 726.5q2.5 -3.5 1.5 -9.5l-11 -67q-1 -13 -14 -13h-26q-5 0 -8.5 3.5t-2.5 9.5l11 67
q2 13 16 13h25q6 0 8.5 -3.5z" />
    <glyph glyph-name="fl" unicode="fl" horiz-adv-x="691" 
d="M626 29l-4 -29h-57q-51 0 -78 25.5t-27 73.5q0 29 9 81l88 555h-158q-52 0 -81.5 -15t-43 -41.5t-20.5 -68.5l-13 -78h180l-6 -37h-180l-78 -495h-41l78 495h-85l4 27l87 10l14 84q8 49 26 82t56 52t103 19q90 0 203 -9l-91 -573q-1 -5 -5 -30.5t-4 -50.5q0 -36 16.5 -52
t48.5 -20z" />
    <glyph glyph-name="f_f" unicode="ff" horiz-adv-x="735" 
d="M667 720q-22 -15 -32 -41t-17 -69l-13 -78h180l-6 -37h-180l-78 -495h-41l78 495h-323l-78 -495h-41l78 495h-85l4 27l87 10l14 84q8 46 18 76t41 53.5t88 23.5q67 0 116 -6l-4 -28h-110q-38 0 -60 -15t-32 -41t-17 -69l-13 -78h323l14 84q8 46 18 76t41 53.5t88 23.5
q67 0 116 -6l-4 -28h-110q-38 0 -60 -15z" />
    <glyph glyph-name="f_f_i" unicode="ffi" horiz-adv-x="922" 
d="M846 0h-41l78 495h-284l-78 -495h-41l78 495h-323l-78 -495h-41l78 495h-85l4 27l87 10l14 84q8 46 18 76t41 53.5t88 23.5q67 0 116 -6l-4 -28h-110q-38 0 -60 -15t-32 -41t-17 -69l-13 -78h323l14 84q8 46 18 76t41 53.5t88 23.5q67 0 116 -6l-4 -28h-110
q-38 0 -60 -15t-32 -41t-17 -69l-13 -78h325zM962.5 726.5q2.5 -3.5 1.5 -9.5l-11 -67q-1 -13 -14 -13h-26q-5 0 -8.5 3.5t-2.5 9.5l11 67q2 13 16 13h25q6 0 8.5 -3.5z" />
    <glyph glyph-name="f_f_l" unicode="ffl" horiz-adv-x="1005" 
d="M990 29l-4 -29h-57q-51 0 -78 25.5t-27 73.5q0 29 9 81l88 555h-158q-52 0 -81.5 -15t-43 -41.5t-20.5 -68.5l-13 -78h180l-6 -37h-180l-78 -495h-41l78 495h-323l-78 -495h-41l78 495h-85l4 27l87 10l14 84q8 46 18 76t41 53.5t88 23.5q67 0 116 -6l-4 -28h-110
q-38 0 -60 -15t-32 -41t-17 -69l-13 -78h323l14 84q8 49 26 82t56 52t103 19q90 0 203 -9l-91 -573q-1 -5 -5 -30.5t-4 -50.5q0 -36 16.5 -52t48.5 -20z" />
    <glyph glyph-name=".notdef" horiz-adv-x="652" 
d="M89 533h534v-534h-534v534zM593 29v474h-474v-474h474zM189 121l144 144l-144 144l23 23l144 -144l144 144l23 -23l-144 -144l144 -144l-23 -23l-144 144l-144 -144z" />
    <glyph glyph-name=".null" horiz-adv-x="0" 
 />
    <glyph glyph-name="nonmarkingreturn" unicode="&#xd;" horiz-adv-x="236" 
 />
    <glyph glyph-name="NULL" horiz-adv-x="0" 
 />
    <glyph glyph-name="NULL" horiz-adv-x="0" 
 />
    <glyph glyph-name="space" unicode=" " horiz-adv-x="236" 
 />
    <glyph glyph-name="exclam" unicode="!" horiz-adv-x="262" 
d="M225 732h41l-92 -535h-28zM106 11v2l11 67q2 14 15 14h22q11 0 11 -10v-4l-11 -67q-1 -13 -16 -13h-21q-11 0 -11 11z" />
    <glyph glyph-name="quotedbl" unicode="&#x22;" horiz-adv-x="221" 
d="M150 675l10 67h41l-10 -67l-32 -162h-27zM244 675l10 67h41l-10 -67l-32 -162h-27z" />
    <glyph glyph-name="numbersign" unicode="#" horiz-adv-x="664" 
d="M238 243h-174l8 24h175l62 194h-176l8 24h176l79 247h24l-79 -247h176l79 247h24l-79 -247h177l-8 -24h-178l-61 -194h177l-8 -24h-178l-77 -243h-24l77 243h-176l-77 -243h-24zM447 267l61 194h-175l-62 -194h176z" />
    <glyph glyph-name="dollar" unicode="$" 
d="M193 504q-3 -19 -3 -35q0 -45 25 -62.5t81 -17.5h107q148 0 148 -122q0 -19 -3 -40l-10 -67q-14 -92 -72.5 -128t-156.5 -38l-13 -82h-27l12 82q-54 1 -111 4.5t-93 9.5l4 30q76 -7 221 -7q87 0 136 28t60 105l10 60q2 26 2 35q0 47 -27.5 68.5t-88.5 21.5h-104
q-70 0 -105 27t-35 87q0 17 3 38l10 65q15 100 69 136.5t151 36.5h22l-4 3l23 82l14 -11l-21 -75q40 -1 93 -6t84 -10l-4 -30q-128 8 -208 8q-56 0 -91.5 -11t-58 -40.5t-30.5 -84.5z" />
    <glyph glyph-name="percent" unicode="%" horiz-adv-x="955" 
d="M152 370q-26 21 -26 66q0 18 3 39l21 131q11 67 44 96.5t106 29.5h101q59 0 85.5 -21t26.5 -65q0 -12 -4 -40l-21 -131q-10 -66 -43.5 -96t-106.5 -30h-101q-59 0 -85 21zM793 732h31l-555 -732h-32zM340 376q57 0 84.5 21.5t36.5 80.5l20 125q3 20 3 35q0 36 -20.5 51.5
t-69.5 15.5h-96q-58 0 -85.5 -20.5t-36.5 -81.5l-20 -125q-3 -18 -3 -34q0 -38 21.5 -53t69.5 -15h96zM586.5 24q-25.5 21 -25.5 66q0 18 3 39l21 131q10 66 43.5 96t106.5 30h101q59 0 85.5 -21t26.5 -65q0 -21 -4 -40l-21 -131q-10 -66 -43.5 -96t-106.5 -30h-101
q-60 0 -85.5 21zM775 30q57 0 85 21.5t37 80.5l19 125q4 26 4 35q0 36 -21 51.5t-70 15.5h-96q-58 0 -85.5 -21t-36.5 -81l-20 -125q-3 -18 -3 -34q0 -38 21.5 -53t69.5 -15h96z" />
    <glyph glyph-name="ampersand" unicode="&#x26;" horiz-adv-x="659" 
d="M104.5 37q-43.5 43 -43.5 117q0 82 33.5 136.5t115.5 103.5l70 42l-17 31q-35 63 -35 124q0 69 49 105.5t137 36.5q60 0 94.5 -4t41.5 -5l-5 -28h-132q-69 0 -106.5 -24.5t-37.5 -81.5q0 -54 33 -112l182 -317l178 148l13 -17l-83 -88l-88 -73l77 -131h-46l-63 108
l-36 -28q-59 -48 -110 -67t-106 -19q-72 0 -115.5 43zM318.5 48.5q42.5 15.5 92.5 56.5l41 33l-156 268l-58 -33q-54 -30 -83.5 -61t-40.5 -67t-11 -85q0 -59 33.5 -93t93.5 -34q46 0 88.5 15.5z" />
    <glyph glyph-name="quotesingle" unicode="'" horiz-adv-x="127" 
d="M150 675l10 67h41l-10 -67l-32 -162h-27z" />
    <glyph glyph-name="parenleft" unicode="(" horiz-adv-x="325" 
d="M135 182q0 177 66.5 358t191.5 320h42q-124 -140 -191 -318t-67 -352q0 -222 89 -400h-42q-89 165 -89 392z" />
    <glyph glyph-name="parenright" unicode=")" horiz-adv-x="324" 
d="M186.5 122.5q64.5 173.5 64.5 347.5q0 104 -21 198t-69 192h42q48 -94 69 -186.5t21 -197.5q0 -179 -64.5 -354t-194.5 -332h-42q130 159 194.5 332.5z" />
    <glyph glyph-name="asterisk" unicode="*" horiz-adv-x="476" 
d="M295 723l20 6l46 -124l-31 -13zM345 554l126 83l9 -17l-117 -90zM140 609l143 6l-4 -31l-142 5zM186 410l53 134l32 -6l-68 -134zM290 491l21 29l105 -84l-14 -15z" />
    <glyph glyph-name="plus" unicode="+" 
d="M582 338h-206l-32 -206h-37l32 206h-205l6 37h205l32 205h37l-32 -205h206z" />
    <glyph glyph-name="comma" unicode="," horiz-adv-x="181" 
d="M62 -71q-3 1 -4 1l2 12q10 0 14.5 3t5.5 12l7 44h-7q-4 0 -7.5 3.5t-3.5 7.5l1 6l10 61q2 15 15 15h21q11 0 11 -10l-1 -7l-18 -111q-6 -38 -38 -38q-5 0 -8 1z" />
    <glyph glyph-name="hyphen" unicode="-" horiz-adv-x="333" 
d="M73 309h287l-6 -37h-287z" />
    <glyph glyph-name="period" unicode="." horiz-adv-x="181" 
d="M69 11v2l11 67q2 14 15 14h22q11 0 11 -10v-4l-11 -67q-1 -13 -16 -13h-21q-11 0 -11 11z" />
    <glyph glyph-name="slash" unicode="/" horiz-adv-x="369" 
d="M428 770h37l-414 -842h-37z" />
    <glyph glyph-name="zero" unicode="0" horiz-adv-x="660" 
d="M154 30.5q-42 31.5 -42 97.5q0 18 3 37l64 407q13 80 69 123.5t133 43.5h137q75 0 111 -34.5t36 -93.5q0 -18 -3 -39l-64 -407q-14 -86 -65.5 -126t-132.5 -40h-136q-68 0 -110 31.5zM401 37q135 0 156 131l63 402q3 18 3 32q0 100 -116 100h-128q-64 0 -106.5 -35
t-52.5 -97l-63 -401q-3 -16 -3 -29q0 -50 32 -76.5t88 -26.5h127z" />
    <glyph glyph-name="one" unicode="1" horiz-adv-x="357" 
d="M324 691l-172 -55l4 26l176 71h39l-116 -733h-41z" />
    <glyph glyph-name="two" unicode="2" horiz-adv-x="596" 
d="M64 35l311 270q187 160 187 285q0 53 -37.5 82t-128.5 29h-196l6 30l32 2q106 6 173 6q192 0 192 -143q0 -136 -200 -313l-279 -244h425l-7 -39h-483z" />
    <glyph glyph-name="three" unicode="3" horiz-adv-x="589" 
d="M47 2l5 29h249q74 0 124 30t64 106q12 59 12 80q0 52 -38.5 76.5t-92.5 26.5l-189 7l5 27l192 6q63 2 103.5 29.5t49.5 84.5q12 73 12 90q0 51 -37.5 79.5t-107.5 28.5h-211l5 29q85 8 224 8q85 0 127 -35.5t42 -98.5q0 -22 -13 -100q-8 -46 -32.5 -75.5t-52.5 -43
t-50 -16.5q36 -7 70.5 -36.5t34.5 -84.5q0 -14 -12 -86q-13 -82 -71.5 -125.5t-154.5 -43.5q-161 0 -257 8z" />
    <glyph glyph-name="four" unicode="4" horiz-adv-x="581" 
d="M433 205h-360l-8 29l377 499h43l-373 -492h326l36 225l20 59h30l-45 -284h114l-4 -28l-115 -8l-33 -203h-41z" />
    <glyph glyph-name="five" unicode="5" horiz-adv-x="643" 
d="M124 3l5 30h227q77 0 133 37t67 104l15 98q3 17 3 32q0 50 -32.5 77t-96.5 27h-90q-55 0 -90.5 -24t-52.5 -75h-38l87 424h402l-6 -37h-364l-64 -313q15 25 51 43.5t87 18.5h91q75 0 116 -36.5t41 -96.5q0 -11 -2 -35l-18 -109q-12 -82 -80.5 -127t-164.5 -45
q-145 0 -226 7z" />
    <glyph glyph-name="six" unicode="6" horiz-adv-x="632" 
d="M165 44q-38 46 -38 161q0 142 34 263.5t106.5 196t182.5 74.5q58 0 179 -7l-5 -30h-186q-58 0 -109 -34.5t-89 -104.5t-54 -172q48 4 113 6t111 2q92 0 141 -25t49 -89q0 -15 -3 -32l-17 -102q-12 -80 -63.5 -116.5t-123.5 -36.5h-118q-72 0 -110 46zM394 36q59 0 98 25
t49 92l15 96q3 15 3 26q0 51 -39.5 69t-120.5 18h-218q-14 -98 -14 -157q0 -94 29.5 -131.5t88.5 -37.5h109z" />
    <glyph glyph-name="seven" unicode="7" horiz-adv-x="538" 
d="M558 692h-402l7 41h433l14 -28l-393 -705h-48z" />
    <glyph glyph-name="eight" unicode="8" horiz-adv-x="651" 
d="M152 27.5q-38 28.5 -38 81.5q0 13 3 28l17 108q9 54 46 85.5t74 39.5q-35 16 -51.5 43t-16.5 60q0 9 2 27l13 85q14 79 61.5 116t118.5 37h138q60 0 90 -26t30 -82q0 -22 -4 -45l-13 -85q-5 -40 -32.5 -74.5t-66.5 -46.5q37 -7 56.5 -34t19.5 -65q0 -9 -2 -27l-18 -116
q-11 -69 -57 -103.5t-121 -34.5h-137q-74 0 -112 28.5zM451 392q56 0 90 32t40 72l13 82q4 20 4 40q0 45 -22.5 64.5t-68.5 19.5h-127q-64 0 -96.5 -30t-42.5 -94l-13 -82q-1 -6 -1 -19q0 -38 26 -61.5t77 -23.5h121zM401 36q121 0 137 102l17 109q3 18 3 31q0 42 -26.5 60
t-86.5 18h-121q-27 0 -59 -11t-58 -35.5t-32 -62.5l-17 -109q-2 -14 -2 -19q0 -43 32 -63t86 -20h127z" />
    <glyph glyph-name="nine" unicode="9" horiz-adv-x="632" 
d="M583 691q38 -46 38 -161q0 -142 -34 -263.5t-106.5 -196t-182.5 -74.5q-58 0 -179 7l5 30h186q58 0 109 34.5t89 104.5t54 172q-48 -4 -113 -6t-111 -2q-92 0 -141 25t-49 89q0 16 3 32l17 102q12 80 63.5 116.5t123.5 36.5h118q72 0 110 -46zM354 699q-59 0 -98 -25
t-49 -92l-15 -96q-3 -15 -3 -26q0 -51 39.5 -69t120.5 -18h218q14 98 14 157q0 94 -29.5 131.5t-88.5 37.5h-109z" />
    <glyph glyph-name="colon" unicode=":" horiz-adv-x="181" 
d="M69 11v2l11 67q2 14 15 14h22q11 0 11 -10v-4l-11 -67q-1 -13 -16 -13h-21q-11 0 -11 11zM139 449v2l11 67q2 14 15 14h22q11 0 11 -10v-4l-11 -67q-1 -13 -16 -13h-21q-11 0 -11 11z" />
    <glyph glyph-name="semicolon" unicode=";" horiz-adv-x="181" 
d="M139 449v2l11 67q2 14 15 14h22q11 0 11 -10v-4l-11 -67q-1 -13 -16 -13h-21q-11 0 -11 11zM62 -71q-3 1 -4 1l2 12q10 0 14.5 3t5.5 12l7 44h-7q-4 0 -7.5 3.5t-3.5 7.5l1 6l10 61q2 15 15 15h21q11 0 11 -10l-1 -7l-18 -111q-6 -38 -38 -38q-5 0 -8 1z" />
    <glyph glyph-name="less" unicode="&#x3c;" 
d="M134 329l6 39l436 135l-5 -35l-397 -120l359 -120l-5 -35z" />
    <glyph glyph-name="equal" unicode="=" 
d="M121 255h448l-6 -37h-448zM159 495h448l-6 -37h-448z" />
    <glyph glyph-name="greater" unicode="&#x3e;" 
d="M148 228l397 121l-359 119l5 35l394 -135l-6 -39l-436 -136z" />
    <glyph glyph-name="question" unicode="?" horiz-adv-x="532" 
d="M234 332h40q67 0 107.5 12.5t63 41t30.5 79.5l12 75q4 20 4 53q0 58 -30.5 83.5t-97.5 25.5q-55 0 -104 -9.5t-108 -31.5l4 27q109 51 226 51q81 0 117 -34.5t36 -100.5q0 -28 -6 -61l-12 -78q-14 -87 -73.5 -128t-179.5 -41l-16 -100h-34zM181 11v2l11 67q2 14 15 14h22
q11 0 11 -10v-4l-11 -67q-1 -13 -16 -13h-21q-11 0 -11 11z" />
    <glyph glyph-name="at" unicode="@" horiz-adv-x="905" 
d="M101 -137q-42 44 -42 113q0 21 4 38l81 507q29 182 213 182h391q74 0 111.5 -37t37.5 -104q0 -23 -3 -47l-52 -345q-5 -31 -24.5 -70t-60.5 -69.5t-105 -30.5h-38l-1 62q-24 -28 -90 -48t-118 -20q-159 0 -159 183q0 112 35.5 195.5t95.5 127.5t132 44q61 0 114 -16
t86 -47l-66 -448q55 0 103 27.5t60 111.5l52 345q4 32 4 43q0 59 -31.5 83.5t-87.5 24.5h-389q-82 0 -123 -41.5t-51 -109.5l-81 -505q-3 -18 -3 -34q0 -59 34.5 -91.5t92.5 -32.5h385l-4 -23q-75 -12 -290 -12h-97q-74 0 -116 44zM517 42q51 12 98 47l57 381
q-44 23 -81 31.5t-81 8.5q-62 0 -114 -39.5t-83 -114t-31 -174.5q0 -152 127 -152q57 0 108 12z" />
    <glyph glyph-name="A" unicode="A" horiz-adv-x="665" 
d="M427 733h55l141 -733h-42l-47 240h-322l-128 -240h-42zM528 278l-80 415l-218 -415h298z" />
    <glyph glyph-name="B" unicode="B" horiz-adv-x="602" 
d="M194 733h240q169 0 169 -137q0 -26 -4 -50q-10 -67 -47 -108.5t-89 -53.5q40 -11 73.5 -49t33.5 -101q0 -27 -6 -55q-36 -179 -228 -179h-258zM399 400q129 0 159 140q6 29 6 50q0 106 -138 106h-198l-46 -296h217zM342 37q84 0 125.5 39t57.5 115q5 20 5 45
q0 59 -37.5 94t-96.5 35h-219l-53 -328h218z" />
    <glyph glyph-name="C" unicode="C" horiz-adv-x="589" 
d="M158 49q-47 55 -47 166q0 67 16 163q28 180 96.5 270.5t194.5 90.5q65 0 115.5 -7t102.5 -18l-6 -29q-114 17 -210 17q-73 0 -121 -35.5t-79 -108.5t-52 -192q-15 -88 -15 -150q0 -99 37.5 -142t125.5 -43q73 0 120 3.5t91 10.5l-5 -30q-96 -21 -215 -21q-102 0 -149 55z
" />
    <glyph glyph-name="D" unicode="D" horiz-adv-x="666" 
d="M194 733h256q119 0 168.5 -62.5t49.5 -191.5q0 -47 -12 -125q-25 -162 -102.5 -258t-214.5 -96h-261zM340 37q120 0 186.5 90t89.5 238q11 68 11 115q0 111 -41 163.5t-146 52.5h-212l-104 -659h216z" />
    <glyph glyph-name="E" unicode="E" horiz-adv-x="569" 
d="M95 99q0 16 3 34l75 469q11 70 52 100.5t98 30.5q59 0 134 -2t105 -3l62 -2l-6 -31h-292q-48 0 -76.5 -23.5t-37.5 -78.5l-33 -209l348 -7l-5 -30l-349 -2l-33 -211q-2 -11 -2 -29q0 -42 23.5 -57.5t69.5 -15.5h284l-5 -31q-96 -3 -290 -7q-125 -2 -125 105z" />
    <glyph glyph-name="F" unicode="F" horiz-adv-x="547" 
d="M172 595q12 79 51 108.5t98 29.5q63 0 139.5 -2t105.5 -3l57 -2l-5 -31h-295q-48 0 -75 -24t-36 -78l-34 -213l348 -6l-5 -30l-348 -2l-54 -342h-41z" />
    <glyph glyph-name="G" unicode="G" horiz-adv-x="639" 
d="M156 47.5q-44 53.5 -44 170.5q0 64 15 162q27 174 97 267.5t204 93.5q70 0 123.5 -8t104.5 -23l-5 -29q-111 23 -225 23q-115 0 -173.5 -83.5t-84.5 -252.5q-15 -91 -15 -155q0 -95 37.5 -138t121.5 -43q48 0 117.5 16.5t105.5 31.5l41 260h-203l5 30q24 4 69.5 5
t100.5 1q26 0 74 -2l-59 -374h-29v53q-36 -18 -107 -38.5t-126 -20.5q-101 0 -145 53.5z" />
    <glyph glyph-name="H" unicode="H" horiz-adv-x="652" 
d="M194 733h41l-57 -359h416l57 359h41l-116 -733h-41l53 337h-416l-53 -337h-41z" />
    <glyph glyph-name="I" unicode="I" horiz-adv-x="196" 
d="M194 733h41l-116 -733h-41z" />
    <glyph glyph-name="J" unicode="J" horiz-adv-x="329" 
d="M75.5 1q-26.5 7 -44.5 18l6 30q41 -17 93 -17q111 0 134 140l90 561h41l-90 -566q-15 -89 -57 -131t-115 -42q-31 0 -57.5 7z" />
    <glyph glyph-name="K" unicode="K" horiz-adv-x="572" 
d="M194 733h41l-55 -347h147l273 347h45l-286 -366l182 -367h-44l-173 349h-151l-54 -349h-41z" />
    <glyph glyph-name="L" unicode="L" horiz-adv-x="519" 
d="M126 21.5q-30 21.5 -30 75.5q0 18 3 36l95 600h41l-95 -597q-3 -16 -3 -33q0 -38 22.5 -52t61.5 -14h279l-5 -37h-281q-58 0 -88 21.5z" />
    <glyph glyph-name="M" unicode="M" horiz-adv-x="784" 
d="M265 733h38l113 -666l325 666h38l-32 -733h-40l30 654l-311 -654h-38l-106 653l-173 -653h-42z" />
    <glyph glyph-name="N" unicode="N" horiz-adv-x="655" 
d="M194 733h35l319 -663l106 663h41l-116 -733h-36l-319 664l-105 -664h-41z" />
    <glyph glyph-name="O" unicode="O" horiz-adv-x="681" 
d="M210 11q-49 17 -75 62.5t-26 129.5q0 71 16 168q24 149 65 228t104 109.5t164 30.5q75 0 124.5 -19t76.5 -67t27 -132q0 -72 -16 -169q-23 -147 -65 -224.5t-105.5 -105.5t-162.5 -28q-78 0 -127 17zM486 56.5q52 25.5 86.5 96t56.5 208.5q15 87 15 161q0 73 -22 112
t-63.5 53.5t-107.5 14.5q-86 0 -139 -26.5t-88.5 -100t-57.5 -213.5q-16 -102 -16 -158q0 -71 20.5 -108.5t62 -51t113.5 -13.5q88 0 140 25.5z" />
    <glyph glyph-name="P" unicode="P" horiz-adv-x="594" 
d="M194 733h270q155 0 155 -152q0 -30 -7 -67q-34 -221 -223 -221q-85 0 -223 8l-47 -301h-41zM388 330q154 0 184 186q5 33 5 62q0 63 -30.5 90.5t-90.5 27.5h-228l-58 -366h218z" />
    <glyph glyph-name="Q" unicode="Q" horiz-adv-x="681" 
d="M210 11q-49 17 -75 62.5t-26 129.5q0 71 16 168q24 149 65 228t104 109.5t164 30.5q75 0 124.5 -19t76.5 -67t27 -132q0 -72 -16 -169q-23 -147 -65 -224.5t-105.5 -105.5t-162.5 -28q-78 0 -127 17zM486 56.5q52 25.5 86.5 96t56.5 208.5q15 87 15 161q0 73 -22 112
t-63.5 53.5t-107.5 14.5q-86 0 -139 -26.5t-88.5 -100t-57.5 -213.5q-16 -102 -16 -158q0 -71 20.5 -108.5t62 -51t113.5 -13.5q88 0 140 25.5zM386.5 -127q-36.5 30 -39.5 93h28q9 -48 36 -69t74 -21q36 0 67 11l-5 -34q-33 -10 -63 -10q-61 0 -97.5 30z" />
    <glyph glyph-name="R" unicode="R" horiz-adv-x="608" 
d="M194 733h259q69 0 117 -35t48 -126q0 -22 -5 -57q-17 -107 -66 -147t-110 -46l106 -322h-41l-105 318h-23q-37 1 -105.5 2.5t-99.5 3.5l-50 -324h-41zM400 353q67 0 111.5 34.5t59.5 131.5q4 24 4 49q0 128 -129 128h-218l-53 -343h225z" />
    <glyph glyph-name="S" unicode="S" horiz-adv-x="566" 
d="M179.5 -2q-63.5 4 -102.5 10l4 30q76 -7 221 -7q87 0 136 28t60 105l10 60q2 26 2 35q0 47 -27.5 68.5t-88.5 21.5h-104q-70 0 -105 27t-35 87q0 17 3 38l10 65q15 100 69 136.5t151 36.5q35 0 105 -5.5t106 -11.5l-4 -30q-128 8 -208 8q-56 0 -91.5 -11t-58 -40.5
t-30.5 -84.5l-9 -60q-3 -19 -3 -35q0 -45 25 -62.5t81 -17.5h107q148 0 148 -122q0 -19 -3 -40l-10 -67q-15 -94 -76 -130t-164 -36q-55 0 -118.5 4z" />
    <glyph glyph-name="T" unicode="T" horiz-adv-x="603" 
d="M386 696h-247l6 37h535l-6 -37h-247l-110 -696h-41z" />
    <glyph glyph-name="U" unicode="U" horiz-adv-x="670" 
d="M171 39.5q-54 45.5 -54 150.5q0 61 12 133l65 410h41l-65 -413q-13 -76 -13 -129q0 -88 44 -124t135 -36q78 0 127.5 21t84.5 83.5t54 184.5l66 413h41l-66 -416q-21 -135 -62.5 -205t-99.5 -94t-146 -24q-110 0 -164 45.5z" />
    <glyph glyph-name="V" unicode="V" horiz-adv-x="665" 
d="M158 733h43l133 -688l363 688h42l-384 -733h-55z" />
    <glyph glyph-name="W" unicode="W" horiz-adv-x="987" 
d="M158 733h43l102 -681l280 681h48l54 -680l329 680h43l-352 -733h-50l-56 677l-281 -677h-50z" />
    <glyph glyph-name="X" unicode="X" horiz-adv-x="595" 
d="M378 359l172 -359h-46l-156 330l-255 -330h-49l285 370l-172 363h46l157 -335l262 335h50z" />
    <glyph glyph-name="Y" unicode="Y" horiz-adv-x="597" 
d="M309 254l-165 479h46l145 -429l302 429h48l-335 -479l-41 -254h-41z" />
    <glyph glyph-name="Z" unicode="Z" horiz-adv-x="555" 
d="M49 36l515 660h-411l7 37h458l-6 -36l-515 -660h420l-5 -37h-468z" />
    <glyph glyph-name="bracketleft" unicode="[" horiz-adv-x="329" 
d="M125 -173.5q-26 36.5 -26 90.5q0 20 4 50l111 700q11 69 49.5 122t119.5 53h54l-5 -35h-48q-50 0 -84 -35t-46 -108l-110 -696q-4 -30 -4 -42q0 -47 21.5 -74t66.5 -27h48l-5 -35h-54q-66 0 -92 36.5z" />
    <glyph glyph-name="backslash" unicode="\" horiz-adv-x="369" 
d="M147 770h37l148 -842h-37z" />
    <glyph glyph-name="bracketright" unicode="]" horiz-adv-x="329" 
d="M-3 -175h49q55 0 87 39.5t42 103.5l111 696q3 24 3 44q0 99 -88 99h-48l5 35h54q66 0 92.5 -35.5t26.5 -90.5q0 -19 -4 -49l-111 -700q-11 -69 -49 -123t-121 -54h-54z" />
    <glyph glyph-name="asciicircum" unicode="^" horiz-adv-x="404" 
d="M298 662h31l96 -131h-27l-89 109l-134 -109h-27z" />
    <glyph glyph-name="underscore" unicode="_" 
d="M-18 -111h609l-5 -37h-609z" />
    <glyph glyph-name="grave" unicode="`" horiz-adv-x="205" 
d="M147 765h38l95 -134h-24z" />
    <glyph glyph-name="a" unicode="a" horiz-adv-x="561" 
d="M134 38q-45 44 -45 134q0 33 11 99q21 140 83.5 203.5t185.5 63.5q53 0 106.5 -14t84.5 -43l-76 -481h-31v58q-30 -20 -90 -42t-110 -22q-74 0 -119 44zM355.5 43q42.5 14 101.5 42l60 382q-23 14 -63 25t-88 11q-74 0 -119 -25t-69.5 -76.5t-38.5 -140.5q-9 -55 -9 -84
q0 -74 35.5 -111t96.5 -37q51 0 93.5 14z" />
    <glyph glyph-name="b" unicode="b" horiz-adv-x="564" 
d="M214 12.5q-51 18.5 -88 43.5l-18 -56h-32l121 763h41l-45 -287q49 29 106 45.5t98 16.5q72 0 116 -45t44 -129q0 -47 -11 -113q-19 -118 -79 -187.5t-155 -69.5q-47 0 -98 18.5zM439.5 88q48.5 59 66.5 174q10 62 10 97q0 74 -35 109t-93 35q-83 0 -200 -55l-57 -365
q45 -25 85 -39.5t90 -14.5q85 0 133.5 59z" />
    <glyph glyph-name="c" unicode="c" horiz-adv-x="484" 
d="M138 34.5q-47 40.5 -47 147.5q0 32 10 94q21 137 83 199.5t163 62.5q56 0 169 -9l-5 -26h-161q-84 0 -136.5 -53t-73.5 -187q-8 -51 -8 -79q0 -62 17 -96t50 -47t86 -13h164l-3 -25q-76 -9 -171 -9q-90 0 -137 40.5z" />
    <glyph glyph-name="d" unicode="d" horiz-adv-x="562" 
d="M135 38.5q-44 44.5 -44 128.5q0 56 10 107q17 89 43.5 145t79.5 87.5t142 31.5q47 0 85 -8.5t73 -27.5l42 261h41l-121 -763h-32v58q-44 -26 -97.5 -45t-107.5 -19q-70 0 -114 44.5zM355.5 43.5q47.5 14.5 102.5 41.5l60 382q-34 19 -69.5 27.5t-82.5 8.5
q-75 0 -119 -25.5t-67 -76t-39 -137.5q-10 -57 -10 -88q0 -76 35 -111.5t91 -35.5q51 0 98.5 14.5z" />
    <glyph glyph-name="e" unicode="e" horiz-adv-x="548" 
d="M145 38.5q-53 44.5 -53 135.5q0 52 11 118q18 121 81.5 185t184.5 64q90 0 137 -32.5t47 -105.5q0 -172 -259 -172q-48 0 -90 5.5t-66 11.5q-5 -30 -5 -74q0 -77 43.5 -111.5t144.5 -34.5h157l-5 -26q-99 -8 -162 -8q-113 0 -166 44.5zM451 291.5q62 29.5 62 107.5
q0 58 -36 83t-111 25q-107 0 -157.5 -57.5t-67.5 -176.5q52 -11 132 -11q116 0 178 29.5z" />
    <glyph glyph-name="f" unicode="f" horiz-adv-x="364" 
d="M194 495h-85l4 27l87 10l14 84q8 46 18 76t41 53.5t88 23.5q67 0 116 -6l-4 -28h-110q-38 0 -60 -15t-32 -41t-17 -69l-13 -78h180l-6 -37h-180l-78 -495h-41z" />
    <glyph glyph-name="g" unicode="g" horiz-adv-x="561" 
d="M59 -231l5 28h158q82 0 141 35t71 106l20 120q-51 -32 -107 -48t-107 -16q-40 0 -74 20t-54.5 59t-20.5 93q0 42 11 113q14 89 44.5 145t86 85t143.5 29q112 0 192 -16l-93 -589q-16 -96 -93.5 -135t-170.5 -35zM349.5 42q46.5 13 108.5 43l64 411l-61 3q-70 4 -104 4
q-97 0 -146.5 -55t-68.5 -175q-10 -67 -10 -102q0 -70 34 -106t87 -36q50 0 96.5 13z" />
    <glyph glyph-name="h" unicode="h" horiz-adv-x="568" 
d="M197 763h41l-46 -292q109 70 225 70q67 0 101.5 -33t34.5 -96q0 -21 -3 -45l-59 -367h-41l57 359q3 15 3 42q0 54 -28 78t-83 24q-58 0 -105 -14.5t-106 -47.5l-71 -441h-41z" />
    <glyph glyph-name="i" unicode="i" horiz-adv-x="194" 
d="M176.5 640.5q-3.5 3.5 -2.5 9.5l11 67q2 13 16 13h25q6 0 8.5 -3.5t1.5 -9.5l-11 -67q-1 -13 -14 -13h-26q-5 0 -8.5 3.5zM161 532h41l-84 -532h-41z" />
    <glyph glyph-name="j" unicode="j" horiz-adv-x="194" 
d="M176.5 640.5q-3.5 3.5 -2.5 9.5l11 67q2 13 16 13h25q6 0 8.5 -3.5t1.5 -9.5l-11 -67q-1 -13 -14 -13h-26q-5 0 -8.5 3.5zM161 532h41l-85 -536q-23 -134 -50 -233h-28z" />
    <glyph glyph-name="k" unicode="k" horiz-adv-x="506" 
d="M197 763h41l-72 -459q107 2 181 54.5t110 173.5h41q-52 -178 -190 -236l164 -296h-45l-157 284q-25 -6 -56 -10t-53 -4l-44 -270h-41z" />
    <glyph glyph-name="l" unicode="l" horiz-adv-x="276" 
d="M123 25.5q-27 25.5 -27 73.5q0 29 9 81l92 583h41l-91 -576q-1 -5 -5 -30.5t-4 -50.5q0 -36 16.5 -52t48.5 -20l59 -5l-5 -29h-56q-51 0 -78 25.5z" />
    <glyph glyph-name="m" unicode="m" horiz-adv-x="941" 
d="M161 532h30l1 -61q117 70 222 70q58 0 88.5 -21t45.5 -61q52 37 114.5 59.5t123.5 22.5q141 0 141 -131q0 -21 -4 -45l-58 -365h-41l58 365q3 14 3 36q0 52 -28 77t-85 25q-61 0 -111 -18t-110 -54q1 -7 1 -25q0 -24 -4 -51l-57 -355h-41l57 355q4 25 4 47
q0 101 -112 101q-57 0 -102.5 -14.5t-108.5 -47.5l-71 -441h-41z" />
    <glyph glyph-name="n" unicode="n" horiz-adv-x="568" 
d="M161 532h30l1 -61q49 32 107 51t115 19q73 0 106 -35t33 -93q0 -23 -9 -84l-53 -329h-41l52 328q9 62 9 74q0 101 -112 101q-58 0 -105 -14.5t-106 -47.5l-71 -441h-41z" />
    <glyph glyph-name="o" unicode="o" horiz-adv-x="562" 
d="M140.5 35.5q-49.5 41.5 -49.5 136.5q0 41 8 95q17 106 48.5 164.5t83.5 82.5t135 24q100 0 144.5 -45t44.5 -138q0 -28 -10 -106q-16 -98 -46.5 -153t-82.5 -78.5t-136 -23.5q-90 0 -139.5 41.5zM394 47q41 18 68 67.5t42 143.5q9 57 9 98q0 80 -35 113.5t-119 33.5
q-69 0 -110.5 -20t-67 -72.5t-41.5 -152.5q-8 -53 -8 -86q0 -82 39.5 -112.5t115.5 -30.5q66 0 107 18z" />
    <glyph glyph-name="p" unicode="p" horiz-adv-x="562" 
d="M160 527q82 11 228 11q167 0 167 -178q0 -43 -10 -101q-20 -128 -78 -196.5t-170 -68.5q-51 0 -92 8.5t-83 28.5l-43 -268h-41zM438.5 88q46.5 58 66.5 181q10 60 10 86q0 148 -134 148l-185 -2l-70 -440q56 -18 88.5 -24.5t81.5 -6.5q96 0 142.5 58z" />
    <glyph glyph-name="q" unicode="q" horiz-adv-x="561" 
d="M453 58q-52 -32 -110 -48t-104 -16q-68 0 -108 47.5t-40 125.5q0 43 10 110q15 90 45.5 146.5t87.5 85.5t150 29q44 0 96.5 -5t87.5 -11l-121 -759h-41zM350 43q48 14 108 42l64 411l-57 3q-64 4 -97 4q-106 0 -156.5 -55.5t-69.5 -177.5q-10 -62 -10 -99
q0 -67 33 -104.5t88 -37.5q49 0 97 14z" />
    <glyph glyph-name="r" unicode="r" horiz-adv-x="382" 
d="M161 532h31v-63q84 69 172 69q48 0 73 -8l-7 -41q-29 7 -73 7q-45 0 -86.5 -15.5t-83.5 -41.5l-69 -439h-41z" />
    <glyph glyph-name="s" unicode="s" horiz-adv-x="503" 
d="M158.5 -3.5q-70.5 2.5 -93.5 6.5l4 25h215q62 0 97.5 20.5t43.5 68.5l8 46q1 6 1 16q0 34 -21 50.5t-63 16.5h-108q-67 0 -98.5 19.5t-31.5 61.5q0 21 4 41l8 45q10 61 50.5 93t123.5 32q40 0 102 -2.5t96 -6.5l-5 -25h-200q-61 0 -91 -22t-38 -70l-7 -42q-4 -25 -4 -38
q0 -27 22.5 -38t73.5 -11h109q53 0 85.5 -26t32.5 -73q0 -7 -2 -25l-8 -49q-10 -61 -58 -88.5t-130 -27.5q-47 0 -117.5 2.5z" />
    <glyph glyph-name="t" unicode="t" horiz-adv-x="372" 
d="M171.5 28.5q-30.5 28.5 -30.5 80.5q0 29 10 83l50 305h-85l3 26l86 9l34 149h30l-24 -149h168l-5 -35h-168l-49 -305q-1 -9 -4.5 -34t-3.5 -43q0 -38 18.5 -57t58.5 -23l66 -6l-5 -29h-60q-59 0 -89.5 28.5z" />
    <glyph glyph-name="u" unicode="u" horiz-adv-x="568" 
d="M134.5 26.5q-35.5 32.5 -35.5 90.5q0 26 4 52l57 363h41l-57 -364q-4 -24 -4 -39q0 -48 27 -73t86 -25q57 0 103.5 14.5t107.5 45.5l70 441h41l-84 -532h-32l1 61q-55 -33 -106.5 -50t-115.5 -17q-68 0 -103.5 32.5z" />
    <glyph glyph-name="v" unicode="v" horiz-adv-x="532" 
d="M101 532h42l116 -488l215 378q29 53 41 118h32q0 -64 -42 -138l-230 -402h-44z" />
    <glyph glyph-name="w" unicode="w" horiz-adv-x="805" 
d="M101 532h42l97 -485l206 485h36l86 -487l188 393q9 19 18.5 49t13.5 53h33q0 -27 -9 -60t-23 -63l-204 -417h-45l-83 471l-203 -471h-44z" />
    <glyph glyph-name="x" unicode="x" horiz-adv-x="513" 
d="M322 262l151 -262h-42l-138 237l-208 -237h-45l235 268l-152 264h42l139 -239l206 239h46z" />
    <glyph glyph-name="y" unicode="y" horiz-adv-x="547" 
d="M97 -204q48 12 99 61t95 143q-29 4 -49.5 12.5t-37 32.5t-24.5 70l-78 417h42l74 -408q9 -49 31 -66t59 -20l193 410q25 60 28 92h33q0 -58 -26 -113l-203 -425q-58 -120 -113.5 -174t-122.5 -65v33z" />
    <glyph glyph-name="z" unicode="z" horiz-adv-x="498" 
d="M67 34l396 463h-337l5 35h384l-5 -34l-397 -462h342q0 -6 -2.5 -18t-3.5 -17h-387z" />
    <glyph glyph-name="braceleft" unicode="{" horiz-adv-x="306" 
d="M155 -178.5q-32 31.5 -32 85.5q0 35 30 197q4 24 13 79t9 66q0 33 -18.5 48.5t-59.5 15.5l7 42q89 8 98 71l36 230q10 63 31 103.5t61 61.5t106 21l-6 -35q-46 0 -74 -11.5t-47.5 -44.5t-29.5 -99l-36 -230q-6 -37 -33.5 -60t-63.5 -28q35 -4 53.5 -25.5t18.5 -50.5
q0 -19 -24 -150q-29 -170 -29 -189q0 -52 26.5 -73.5t82.5 -21.5l-5 -34q-82 0 -114 31.5z" />
    <glyph glyph-name="bar" unicode="|" horiz-adv-x="254" 
d="M230 770h37l-133 -842h-37z" />
    <glyph glyph-name="braceright" unicode="}" horiz-adv-x="306" 
d="M0 -176q67 0 102.5 31.5t48.5 109.5l42 264q5 34 29.5 57t65.5 28q-31 4 -50.5 23t-19.5 50q0 25 24 169q21 126 21 149q0 55 -27 78.5t-80 23.5l6 35q78 0 110.5 -34.5t32.5 -95.5q0 -14 -21 -148q-24 -154 -24 -170q0 -51 76 -59l-6 -42q-37 0 -64.5 -17t-33.5 -54
l-41 -260q-8 -51 -25.5 -87.5t-58.5 -60.5t-112 -24z" />
    <glyph glyph-name="asciitilde" unicode="~" horiz-adv-x="466" 
d="M352 550q-15 10 -34 28q-19 16 -29 23.5t-21 7.5q-25 0 -48 -11.5t-61 -36.5l-4 14q36 29 63 44t54 15q13 0 27.5 -9.5t35.5 -27.5q18 -16 29.5 -24t21.5 -8q25 0 51.5 15t55.5 37l6 -14q-36 -32 -62 -47.5t-55 -15.5q-15 0 -30 10z" />
    <glyph glyph-name="uni00A0" unicode="&#xa0;" horiz-adv-x="236" 
 />
    <glyph glyph-name="exclamdown" unicode="&#xa1;" horiz-adv-x="262" 
d="M240 521v-2l-11 -67q-2 -14 -15 -14h-22q-11 0 -11 10v4l11 67q1 13 16 13h21q11 0 11 -11zM121 -200h-41l92 535h28z" />
    <glyph glyph-name="cent" unicode="&#xa2;" horiz-adv-x="488" 
d="M247 -5q-77 1 -120 38.5t-43 134.5t32 181.5t89 135.5t128 51l14 84h27l-14 -85q76 -5 151 -26l-4 -24q-83 17 -169 17q-62 0 -111 -46t-75.5 -122.5t-26.5 -165.5q0 -80 33 -109.5t100 -29.5q52 0 90.5 5t96.5 17l-4 -26q-48 -14 -83.5 -20t-83.5 -9l-12 -79h-27z" />
    <glyph glyph-name="sterling" unicode="&#xa3;" 
d="M72 29l118 8l49 307l-117 4l3 24l120 5l24 153q12 81 43 125.5t76 61.5t108 17q28 0 108 -5l31 -2l-5 -30h-138q-55 0 -90 -13t-58 -48.5t-34 -103.5l-24 -155l231 -4l-4 -25l-233 -4l-49 -307h310l-5 -37h-469z" />
    <glyph glyph-name="currency" unicode="&#xa4;" 
d="M472 252l78 -93l-26 -23l-79 94q-46 -32 -106 -32q-56 0 -95 37l-114 -99l-20 23l115 99q-23 34 -23 77q0 74 49 125l-78 93l26 23l79 -93q45 31 105 31q56 0 95 -37l115 99l20 -23l-115 -99q23 -34 23 -77q0 -73 -49 -125zM264.5 260.5q30.5 -31.5 76.5 -31.5
q64 0 106.5 39t42.5 107q0 46 -31 77t-78 31q-40 0 -74 -18.5t-53.5 -52t-19.5 -75.5q0 -45 30.5 -76.5z" />
    <glyph glyph-name="yen" unicode="&#xa5;" 
d="M364 291h183l-5 -31h-200l-4 -6l-13 -82h204l-5 -31h-204l-23 -141h-41l23 141h-205l5 31h205l13 82l-2 6h-202l5 31h186l-152 442h46l145 -429l302 429h48z" />
    <glyph glyph-name="brokenbar" unicode="&#xa6;" horiz-adv-x="254" 
d="M230 770h37l-54 -341h-37zM149 256h37l-52 -328h-37z" />
    <glyph glyph-name="section" unicode="&#xa7;" horiz-adv-x="556" 
d="M200.5 -4q-68.5 2 -93.5 5l5 28h206q77 0 108 22.5t38 64.5l8 48q6 38 6 46q0 23 -19 31.5t-74 8.5h-142q-67 0 -98 18t-31 57q0 13 4 38l8 46q7 46 26 66t54 26q-24 9 -33.5 25t-9.5 40q0 10 3 32l9 60q12 70 53 98t121 28q50 0 125 -2t99 -5l-4 -28h-222q-60 0 -91 -19
t-41 -75q-12 -69 -12 -82q0 -30 21 -39.5t68 -9.5h160q63 0 88 -16t25 -55q0 -16 -3 -34l-9 -59q-8 -44 -24.5 -64t-51.5 -24q23 -7 32.5 -20.5t9.5 -34.5q0 -16 -6 -50l-9 -52q-10 -66 -56.5 -93.5t-131.5 -27.5q-47 0 -115.5 2zM391 284q53 0 75 4t31.5 18.5t14.5 49.5
l10 59q2 20 2 25q0 29 -17 39t-65 10h-155q-43 0 -67 -6t-36 -22.5t-17 -47.5l-10 -58q-2 -12 -2 -18q0 -27 22 -40t77 -13h137z" />
    <glyph glyph-name="dieresis" unicode="&#xa8;" horiz-adv-x="421" 
d="M176 673l11 69q1 13 16 13h19q11 0 11 -10q0 4 -12 -70q-1 -6 -5.5 -9.5t-9.5 -3.5h-19q-11 0 -11 11zM383 673l11 69q1 13 16 13h19q11 0 11 -10q0 4 -12 -70q-1 -6 -5.5 -9.5t-9.5 -3.5h-19q-11 0 -11 11z" />
    <glyph glyph-name="copyright" unicode="&#xa9;" horiz-adv-x="857" 
d="M202.5 40q-44.5 40 -64 102.5t-19.5 134.5q0 113 44.5 218.5t116.5 171t150 65.5h248q93 0 136.5 -66.5t43.5 -169.5q0 -127 -41 -241.5t-109 -184.5t-143 -70h-248q-70 0 -114.5 40zM567 23q68 0 129.5 66.5t99 175t37.5 227.5q0 100 -37.5 158.5t-118.5 58.5h-250
q-66 0 -132 -59.5t-108.5 -158.5t-42.5 -212q0 -111 41 -183.5t133 -72.5h249zM328.5 178q-31.5 31 -31.5 108q0 82 26 150.5t69 107.5t92 39q32 0 84 -5t91 -13l-4 -17q-40 6 -89.5 9t-81.5 3q-44 0 -81 -38.5t-58.5 -101t-21.5 -130.5q0 -60 23 -90t76 -30q112 0 182 16
l-2 -17q-46 -13 -88.5 -17.5t-98.5 -4.5q-55 0 -86.5 31z" />
    <glyph glyph-name="ordfeminine" unicode="&#xaa;" horiz-adv-x="407" 
d="M144 388.5q-34 32.5 -34 98.5q0 31 8 73q16 103 62.5 149.5t138.5 46.5q41 0 82 -10.5t65 -31.5l-56 -354h-29v42q-22 -14 -66.5 -30t-81.5 -16q-55 0 -89 32.5zM311.5 396.5q32.5 10.5 72.5 30.5l44 274q-53 25 -110 25q-55 0 -87.5 -18t-50 -55t-27.5 -100
q-7 -38 -7 -62q0 -52 26 -78.5t70 -26.5q37 0 69.5 10.5zM100 296h318l-4 -27h-318z" />
    <glyph glyph-name="guillemotleft" unicode="&#xab;" horiz-adv-x="606" 
d="M97 279l241 205l20 -24l-214 -183l158 -185l-26 -23zM347 279l241 205l20 -24l-214 -183l158 -185l-26 -23z" />
    <glyph glyph-name="logicalnot" unicode="&#xac;" 
d="M606 486l-43 -268h-37l39 240h-412l6 37h448z" />
    <glyph glyph-name="uni00AD" unicode="&#xad;" horiz-adv-x="333" 
d="M73 309h287l-6 -37h-287z" />
    <glyph glyph-name="registered" unicode="&#xae;" horiz-adv-x="857" 
d="M202.5 40q-44.5 40 -64 102.5t-19.5 134.5q0 113 44.5 218.5t116.5 171t150 65.5h248q93 0 136.5 -66.5t43.5 -169.5q0 -127 -41 -241.5t-109 -184.5t-143 -70h-248q-70 0 -114.5 40zM567 23q68 0 129.5 66.5t99 175t37.5 227.5q0 100 -37.5 158.5t-118.5 58.5h-250
q-66 0 -132 -59.5t-108.5 -158.5t-42.5 -212q0 -111 41 -183.5t133 -72.5h249zM372 580h178q50 0 79 -19.5t29 -71.5q0 -58 -36 -100t-91 -46l78 -190h-23l-77 189l-150 5l-31 -194h-24zM520 363q32 0 58 17t41 44.5t15 58.5q0 40 -21 57t-61 17h-159l-31 -194h158z" />
    <glyph glyph-name="macron" unicode="&#xaf;" horiz-adv-x="383" 
d="M177 710h256l-5 -25h-256z" />
    <glyph glyph-name="degree" unicode="&#xb0;" horiz-adv-x="335" 
d="M171 534.5q-30 28.5 -30 74.5q0 65 41.5 106.5t106.5 41.5q48 0 76.5 -28.5t28.5 -75.5q0 -66 -40 -106.5t-105 -40.5q-48 0 -78 28.5zM338 562q34 35 34 88q0 38 -23.5 62t-63.5 24q-53 0 -87.5 -35.5t-34.5 -87.5q0 -38 24.5 -62t64.5 -24q52 0 86 35z" />
    <glyph glyph-name="plusminus" unicode="&#xb1;" 
d="M108 175h448l-6 -37h-448zM606 488h-206l-32 -206h-37l32 206h-205l6 37h205l32 205h37l-32 -205h206z" />
    <glyph glyph-name="uni00B2" unicode="&#xb2;" horiz-adv-x="420" 
d="M110 384l219 177q59 49 84.5 93.5t25.5 89.5q0 34 -24.5 52t-83.5 18h-132l4 25q93 7 142 7q131 0 131 -94q0 -53 -28 -104t-94 -105l-191 -156h276l-5 -32h-327z" />
    <glyph glyph-name="uni00B3" unicode="&#xb3;" horiz-adv-x="420" 
d="M99 358l4 25h167q51 0 83 18.5t39 66.5l7 37l1 15q-1 33 -25 48t-58 16l-130 5l5 24l129 4q88 3 100 72l6 40q1 6 1 17q0 32 -24.5 50t-70.5 18h-143l4 25q68 7 157 7q56 0 84.5 -24t29.5 -66q0 -5 -2 -23l-7 -43q-7 -43 -35.5 -64.5t-54.5 -24.5q25 -5 47.5 -24.5
t22.5 -55.5q0 -5 -2 -19l-6 -38q-9 -55 -48.5 -84t-105.5 -29q-101 0 -175 7z" />
    <glyph glyph-name="acute" unicode="&#xb4;" horiz-adv-x="205" 
d="M261 765h40l-151 -134h-25z" />
    <glyph glyph-name="uni00B5" unicode="&#xb5;" horiz-adv-x="584" 
 />
    <glyph glyph-name="paragraph" unicode="&#xb6;" horiz-adv-x="572" 
d="M339 324q-16 -10 -84 -10q-70 0 -106 34.5t-36 89.5q0 15 3 31l20 124q11 67 65 103.5t122 36.5h342l-5 -36h-86l-110 -697h-34l110 699h-108l-153 -969h-34zM343 348l55 351h-80q-62 0 -101.5 -31t-47.5 -80l-18 -116q-3 -15 -3 -26q0 -58 32 -78t83 -20h80z" />
    <glyph glyph-name="periodcentered" unicode="&#xb7;" horiz-adv-x="279" 
d="M137 362q-3 4 -2 9l4 23q2 13 15 13h22q13 0 10 -13l-3 -23q-1 -13 -15 -13h-22q-6 0 -9 4z" />
    <glyph glyph-name="cedilla" unicode="&#xb8;" horiz-adv-x="264" 
d="M145 -70.5q16 -12.5 16 -35.5q0 -17 -12 -35.5t-35.5 -31t-54.5 -12.5h-24l3 17l25 2q33 3 52.5 23t19.5 37q0 18 -15.5 28t-55.5 11l65 78h22l-58 -68q36 -1 52 -13.5z" />
    <glyph glyph-name="uni00B9" unicode="&#xb9;" horiz-adv-x="420" 
d="M424 387l-5 -32h-293l5 32h129l68 426l-128 -35l5 23l131 46h33l-73 -460h128z" />
    <glyph glyph-name="ordmasculine" unicode="&#xba;" horiz-adv-x="434" 
d="M149.5 386.5q-37.5 30.5 -37.5 100.5q0 32 6 71q13 78 36 120.5t62 60t102 17.5q76 0 109.5 -33t33.5 -102q0 -29 -7 -78q-12 -72 -35 -112.5t-62 -57.5t-102 -17q-68 0 -105.5 30.5zM338 399q30 13 49.5 48.5t30.5 102.5q6 42 6 71q0 57 -25.5 81t-86.5 24
q-50 0 -80 -14.5t-49 -52t-30 -108.5q-5 -31 -5 -63q0 -59 28.5 -80.5t83.5 -21.5q48 0 78 13zM100 296h318l-4 -27h-318z" />
    <glyph glyph-name="guillemotright" unicode="&#xbb;" horiz-adv-x="606" 
d="M66 93l214 182l-159 187l27 22l178 -210l-241 -205zM316 93l214 182l-159 187l27 22l178 -210l-241 -205z" />
    <glyph glyph-name="onequarter" unicode="&#xbc;" horiz-adv-x="1147" 
d="M847 770h31l-506 -770h-31zM1020 124h-241l-6 23l250 332h38l-245 -324h208l23 144l15 41h27l-30 -185h75l-4 -24l-75 -7l-22 -131h-35zM433 387l-5 -32h-293l5 32h129l68 426l-128 -35l5 23l131 46h33l-73 -460h128z" />
    <glyph glyph-name="onehalf" unicode="&#xbd;" horiz-adv-x="1146" 
d="M847 770h31l-506 -770h-31zM757 21l219 177q59 49 84.5 93.5t25.5 89.5q0 34 -24.5 52t-83.5 18h-132l4 25q93 7 142 7q131 0 131 -94q0 -53 -28 -104t-94 -105l-191 -156h276l-5 -32h-327zM433 387l-5 -32h-293l5 32h129l68 426l-128 -35l5 23l131 46h33l-73 -460h128z
" />
    <glyph glyph-name="threequarters" unicode="&#xbe;" horiz-adv-x="1146" 
d="M847 770h31l-506 -770h-31zM1020 125h-241l-6 23l250 332h38l-245 -324h208l23 144l15 41h27l-30 -185h75l-4 -24l-75 -7l-22 -131h-35zM109 358l4 25h167q51 0 83 18.5t39 66.5l7 37l1 15q-1 33 -25 48t-58 16l-130 5l5 24l129 4q88 3 100 72l6 40q1 6 1 17
q0 32 -24.5 50t-70.5 18h-143l4 25q68 7 157 7q56 0 84.5 -24t29.5 -66q0 -5 -2 -23l-7 -43q-7 -43 -35.5 -64.5t-54.5 -24.5q25 -5 47.5 -24.5t22.5 -55.5q0 -5 -2 -19l-6 -38q-9 -55 -48.5 -84t-105.5 -29q-101 0 -175 7z" />
    <glyph glyph-name="questiondown" unicode="&#xbf;" horiz-adv-x="532" 
d="M419 521v-2l-11 -67q-2 -14 -15 -14h-22q-11 0 -11 10v4l11 67q1 13 16 13h21q11 0 11 -11zM366 200h-40q-67 0 -107.5 -12.5t-63 -41t-30.5 -79.5l-12 -75q-4 -20 -4 -53q0 -58 30.5 -83.5t97.5 -25.5q55 0 104 9.5t108 31.5l-4 -27q-109 -51 -226 -51q-81 0 -117 34.5
t-36 100.5q0 28 6 61l12 78q14 87 73.5 128t179.5 41l16 100h34z" />
    <glyph glyph-name="Agrave" unicode="&#xc0;" horiz-adv-x="665" 
d="M427 733h55l141 -733h-42l-47 240h-322l-128 -240h-42zM528 278l-80 415l-218 -415h298zM356 925h38l95 -134h-24z" />
    <glyph glyph-name="Aacute" unicode="&#xc1;" horiz-adv-x="665" 
d="M427 733h55l141 -733h-42l-47 240h-322l-128 -240h-42zM528 278l-80 415l-218 -415h298zM568 925h40l-151 -134h-25z" />
    <glyph glyph-name="Acircumflex" unicode="&#xc2;" horiz-adv-x="665" 
d="M427 733h55l141 -733h-42l-47 240h-322l-128 -240h-42zM528 278l-80 415l-218 -415h298zM458 923h31l96 -132h-27l-89 110l-134 -110h-27z" />
    <glyph glyph-name="Atilde" unicode="&#xc3;" horiz-adv-x="665" 
d="M427 733h55l141 -733h-42l-47 240h-322l-128 -240h-42zM528 278l-80 415l-218 -415h298zM349.5 888.5q29.5 22.5 67.5 22.5q20 0 37.5 -8.5t43.5 -26.5q22 -17 38 -25t34 -8q30 0 51 18t27 51h22q-8 -44 -34.5 -69t-69.5 -25q-19 0 -36.5 8.5t-39.5 25.5q-24 17 -41 25.5
t-37 8.5q-29 0 -51 -17.5t-27 -51.5h-22q8 49 37.5 71.5z" />
    <glyph glyph-name="Adieresis" unicode="&#xc4;" horiz-adv-x="665" 
d="M427 733h55l141 -733h-42l-47 240h-322l-128 -240h-42zM528 278l-80 415l-218 -415h298zM318 833l11 69q1 13 16 13h19q11 0 11 -10q0 4 -12 -70q-1 -6 -5.5 -9.5t-9.5 -3.5h-19q-11 0 -11 11zM525 833l11 69q1 13 16 13h19q11 0 11 -10q0 4 -12 -70q-1 -6 -5.5 -9.5
t-9.5 -3.5h-19q-11 0 -11 11z" />
    <glyph glyph-name="Aring" unicode="&#xc5;" horiz-adv-x="665" 
d="M427 733h55l141 -733h-42l-47 240h-322l-128 -240h-42zM528 278l-80 415l-218 -415h298zM390.5 798q-25.5 20 -25.5 65q0 51 33 87t91 36q39 0 64 -20.5t25 -63.5q0 -53 -31.5 -88.5t-88.5 -35.5q-42 0 -67.5 20zM530.5 828q24.5 29 24.5 72q0 35 -19.5 50t-48.5 15
q-48 0 -73.5 -29t-25.5 -73q0 -34 20 -49t51 -15q47 0 71.5 29z" />
    <glyph glyph-name="AE" unicode="&#xc6;" horiz-adv-x="908" 
d="M527 17q-33 20 -33 73q0 18 2 29l19 120h-254l-187 -239h-46l459 586q45 58 75.5 88t67 44.5t89.5 14.5q92 0 214 -5l62 -2l-6 -31h-266q-47 0 -69.5 -10t-29.5 -28t-13 -54l-3 -21l-32 -200l323 -3l-5 -30l-323 -4l-35 -211q-2 -10 -2 -26q0 -44 26 -58.5t69 -14.5h256
l-5 -31l-42 -1q-156 -6 -225 -6q-53 0 -86 20zM520 275l59 373l-290 -373h231z" />
    <glyph glyph-name="Ccedilla" unicode="&#xc7;" horiz-adv-x="589" 
d="M299 666.5q-48 -35.5 -79 -108.5t-52 -192q-15 -88 -15 -150q0 -99 37.5 -142t125.5 -43q73 0 120 3.5t91 10.5l-5 -30q-86 -19 -194 -21l-51 -60q36 -1 52 -13.5t16 -35.5q0 -17 -12 -35.5t-35.5 -31t-54.5 -12.5h-24l3 17l25 2q33 3 52.5 23t19.5 37q0 18 -15.5 28
t-55.5 11l58 70q-102 0 -148.5 55t-46.5 166q0 67 16 163q28 180 96.5 270.5t194.5 90.5q65 0 115.5 -7t102.5 -18l-6 -29q-114 17 -210 17q-73 0 -121 -35.5z" />
    <glyph glyph-name="Egrave" unicode="&#xc8;" horiz-adv-x="569" 
d="M95 99q0 16 3 34l75 469q11 70 52 100.5t98 30.5q59 0 134 -2t105 -3l62 -2l-6 -31h-292q-48 0 -76.5 -23.5t-37.5 -78.5l-33 -209l348 -7l-5 -30l-349 -2l-33 -211q-2 -11 -2 -29q0 -42 23.5 -57.5t69.5 -15.5h284l-5 -31q-96 -3 -290 -7q-125 -2 -125 105zM324 925h38
l95 -134h-24z" />
    <glyph glyph-name="Eacute" unicode="&#xc9;" horiz-adv-x="569" 
d="M95 99q0 16 3 34l75 469q11 70 52 100.5t98 30.5q59 0 134 -2t105 -3l62 -2l-6 -31h-292q-48 0 -76.5 -23.5t-37.5 -78.5l-33 -209l348 -7l-5 -30l-349 -2l-33 -211q-2 -11 -2 -29q0 -42 23.5 -57.5t69.5 -15.5h284l-5 -31q-96 -3 -290 -7q-125 -2 -125 105zM536 925h40
l-151 -134h-25z" />
    <glyph glyph-name="Ecircumflex" unicode="&#xca;" horiz-adv-x="569" 
d="M95 99q0 16 3 34l75 469q11 70 52 100.5t98 30.5q59 0 134 -2t105 -3l62 -2l-6 -31h-292q-48 0 -76.5 -23.5t-37.5 -78.5l-33 -209l348 -7l-5 -30l-349 -2l-33 -211q-2 -11 -2 -29q0 -42 23.5 -57.5t69.5 -15.5h284l-5 -31q-96 -3 -290 -7q-125 -2 -125 105zM426 923h31
l96 -132h-27l-89 110l-134 -110h-27z" />
    <glyph glyph-name="Edieresis" unicode="&#xcb;" horiz-adv-x="569" 
d="M95 99q0 16 3 34l75 469q11 70 52 100.5t98 30.5q59 0 134 -2t105 -3l62 -2l-6 -31h-292q-48 0 -76.5 -23.5t-37.5 -78.5l-33 -209l348 -7l-5 -30l-349 -2l-33 -211q-2 -11 -2 -29q0 -42 23.5 -57.5t69.5 -15.5h284l-5 -31q-96 -3 -290 -7q-125 -2 -125 105zM286 833
l11 69q1 13 16 13h19q11 0 11 -10q0 4 -12 -70q-1 -6 -5.5 -9.5t-9.5 -3.5h-19q-11 0 -11 11zM493 833l11 69q1 13 16 13h19q11 0 11 -10q0 4 -12 -70q-1 -6 -5.5 -9.5t-9.5 -3.5h-19q-11 0 -11 11z" />
    <glyph glyph-name="Igrave" unicode="&#xcc;" horiz-adv-x="196" 
d="M194 733h41l-116 -733h-41zM121 925h38l95 -134h-24z" />
    <glyph glyph-name="Iacute" unicode="&#xcd;" horiz-adv-x="196" 
d="M194 733h41l-116 -733h-41zM333 925h40l-151 -134h-25z" />
    <glyph glyph-name="Icircumflex" unicode="&#xce;" horiz-adv-x="196" 
d="M194 733h41l-116 -733h-41zM223 923h31l96 -132h-27l-89 110l-134 -110h-27z" />
    <glyph glyph-name="Idieresis" unicode="&#xcf;" horiz-adv-x="196" 
d="M194 733h41l-116 -733h-41zM83 833l11 69q1 13 16 13h19q11 0 11 -10q0 4 -12 -70q-1 -6 -5.5 -9.5t-9.5 -3.5h-19q-11 0 -11 11zM290 833l11 69q1 13 16 13h19q11 0 11 -10q0 4 -12 -70q-1 -6 -5.5 -9.5t-9.5 -3.5h-19q-11 0 -11 11z" />
    <glyph glyph-name="Eth" unicode="&#xd0;" horiz-adv-x="666" 
d="M618.5 670.5q49.5 -62.5 49.5 -191.5q0 -47 -12 -125q-25 -162 -102.5 -258t-214.5 -96h-261l56 357h-73l6 32h73l54 344h256q119 0 168.5 -62.5zM627 480q0 111 -41 163.5t-146 52.5h-212l-48 -307h211l-6 -32h-210l-51 -320h216q120 0 186.5 90t89.5 238q11 68 11 115z
" />
    <glyph glyph-name="Ntilde" unicode="&#xd1;" horiz-adv-x="655" 
d="M194 733h35l319 -663l106 663h41l-116 -733h-36l-319 664l-105 -664h-41zM338.5 888.5q29.5 22.5 67.5 22.5q20 0 37.5 -8.5t43.5 -26.5q22 -17 38 -25t34 -8q30 0 51 18t27 51h22q-8 -44 -34.5 -69t-69.5 -25q-19 0 -36.5 8.5t-39.5 25.5q-24 17 -41 25.5t-37 8.5
q-29 0 -51 -17.5t-27 -51.5h-22q8 49 37.5 71.5z" />
    <glyph glyph-name="Ograve" unicode="&#xd2;" horiz-adv-x="681" 
d="M210 11q-49 17 -75 62.5t-26 129.5q0 71 16 168q24 149 65 228t104 109.5t164 30.5q75 0 124.5 -19t76.5 -67t27 -132q0 -72 -16 -169q-23 -147 -65 -224.5t-105.5 -105.5t-162.5 -28q-78 0 -127 17zM486 56.5q52 25.5 86.5 96t56.5 208.5q15 87 15 161q0 73 -22 112
t-63.5 53.5t-107.5 14.5q-86 0 -139 -26.5t-88.5 -100t-57.5 -213.5q-16 -102 -16 -158q0 -71 20.5 -108.5t62 -51t113.5 -13.5q88 0 140 25.5zM367 925h38l95 -134h-24z" />
    <glyph glyph-name="Oacute" unicode="&#xd3;" horiz-adv-x="681" 
d="M210 11q-49 17 -75 62.5t-26 129.5q0 71 16 168q24 149 65 228t104 109.5t164 30.5q75 0 124.5 -19t76.5 -67t27 -132q0 -72 -16 -169q-23 -147 -65 -224.5t-105.5 -105.5t-162.5 -28q-78 0 -127 17zM486 56.5q52 25.5 86.5 96t56.5 208.5q15 87 15 161q0 73 -22 112
t-63.5 53.5t-107.5 14.5q-86 0 -139 -26.5t-88.5 -100t-57.5 -213.5q-16 -102 -16 -158q0 -71 20.5 -108.5t62 -51t113.5 -13.5q88 0 140 25.5zM579 925h40l-151 -134h-25z" />
    <glyph glyph-name="Ocircumflex" unicode="&#xd4;" horiz-adv-x="681" 
d="M210 11q-49 17 -75 62.5t-26 129.5q0 71 16 168q24 149 65 228t104 109.5t164 30.5q75 0 124.5 -19t76.5 -67t27 -132q0 -72 -16 -169q-23 -147 -65 -224.5t-105.5 -105.5t-162.5 -28q-78 0 -127 17zM486 56.5q52 25.5 86.5 96t56.5 208.5q15 87 15 161q0 73 -22 112
t-63.5 53.5t-107.5 14.5q-86 0 -139 -26.5t-88.5 -100t-57.5 -213.5q-16 -102 -16 -158q0 -71 20.5 -108.5t62 -51t113.5 -13.5q88 0 140 25.5zM469 923h31l96 -132h-27l-89 110l-134 -110h-27z" />
    <glyph glyph-name="Otilde" unicode="&#xd5;" horiz-adv-x="681" 
d="M210 11q-49 17 -75 62.5t-26 129.5q0 71 16 168q24 149 65 228t104 109.5t164 30.5q75 0 124.5 -19t76.5 -67t27 -132q0 -72 -16 -169q-23 -147 -65 -224.5t-105.5 -105.5t-162.5 -28q-78 0 -127 17zM486 56.5q52 25.5 86.5 96t56.5 208.5q15 87 15 161q0 73 -22 112
t-63.5 53.5t-107.5 14.5q-86 0 -139 -26.5t-88.5 -100t-57.5 -213.5q-16 -102 -16 -158q0 -71 20.5 -108.5t62 -51t113.5 -13.5q88 0 140 25.5zM360.5 888.5q29.5 22.5 67.5 22.5q20 0 37.5 -8.5t43.5 -26.5q22 -17 38 -25t34 -8q30 0 51 18t27 51h22q-8 -44 -34.5 -69
t-69.5 -25q-19 0 -36.5 8.5t-39.5 25.5q-24 17 -41 25.5t-37 8.5q-29 0 -51 -17.5t-27 -51.5h-22q8 49 37.5 71.5z" />
    <glyph glyph-name="Odieresis" unicode="&#xd6;" horiz-adv-x="681" 
d="M210 11q-49 17 -75 62.5t-26 129.5q0 71 16 168q24 149 65 228t104 109.5t164 30.5q75 0 124.5 -19t76.5 -67t27 -132q0 -72 -16 -169q-23 -147 -65 -224.5t-105.5 -105.5t-162.5 -28q-78 0 -127 17zM486 56.5q52 25.5 86.5 96t56.5 208.5q15 87 15 161q0 73 -22 112
t-63.5 53.5t-107.5 14.5q-86 0 -139 -26.5t-88.5 -100t-57.5 -213.5q-16 -102 -16 -158q0 -71 20.5 -108.5t62 -51t113.5 -13.5q88 0 140 25.5zM329 833l11 69q1 13 16 13h19q11 0 11 -10q0 4 -12 -70q-1 -6 -5.5 -9.5t-9.5 -3.5h-19q-11 0 -11 11zM536 833l11 69
q1 13 16 13h19q11 0 11 -10q0 4 -12 -70q-1 -6 -5.5 -9.5t-9.5 -3.5h-19q-11 0 -11 11z" />
    <glyph glyph-name="multiply" unicode="&#xd7;" 
d="M388 356l122 -145l-30 -27l-123 146l-168 -146l-22 27l168 145l-122 145l30 27l123 -145l168 145l22 -27z" />
    <glyph glyph-name="Oslash" unicode="&#xd8;" horiz-adv-x="681" 
d="M661 649q25 -50 25 -128q0 -72 -16 -169q-23 -147 -65 -224.5t-105.5 -105.5t-162.5 -28q-71 0 -118 14t-74 50l-50 -58h-33l70 80q-23 46 -23 123q0 71 16 168q24 149 65 228t104 109.5t164 30.5q69 0 115.5 -15.5t74.5 -52.5l54 62h33zM162 115l457 524
q-21 36 -62 49.5t-106 13.5q-86 0 -139 -26.5t-88.5 -100t-57.5 -213.5q-16 -102 -16 -158q0 -54 12 -89zM631 614l-457 -524q21 -34 61.5 -46.5t110.5 -12.5q88 0 140 25.5t86.5 96t56.5 208.5q15 87 15 161q0 57 -13 92z" />
    <glyph glyph-name="Ugrave" unicode="&#xd9;" horiz-adv-x="670" 
d="M171 39.5q-54 45.5 -54 150.5q0 61 12 133l65 410h41l-65 -413q-13 -76 -13 -129q0 -88 44 -124t135 -36q78 0 127.5 21t84.5 83.5t54 184.5l66 413h41l-66 -416q-21 -135 -62.5 -205t-99.5 -94t-146 -24q-110 0 -164 45.5zM346 925h38l95 -134h-24z" />
    <glyph glyph-name="Uacute" unicode="&#xda;" horiz-adv-x="670" 
d="M171 39.5q-54 45.5 -54 150.5q0 61 12 133l65 410h41l-65 -413q-13 -76 -13 -129q0 -88 44 -124t135 -36q78 0 127.5 21t84.5 83.5t54 184.5l66 413h41l-66 -416q-21 -135 -62.5 -205t-99.5 -94t-146 -24q-110 0 -164 45.5zM558 925h40l-151 -134h-25z" />
    <glyph glyph-name="Ucircumflex" unicode="&#xdb;" horiz-adv-x="670" 
d="M171 39.5q-54 45.5 -54 150.5q0 61 12 133l65 410h41l-65 -413q-13 -76 -13 -129q0 -88 44 -124t135 -36q78 0 127.5 21t84.5 83.5t54 184.5l66 413h41l-66 -416q-21 -135 -62.5 -205t-99.5 -94t-146 -24q-110 0 -164 45.5zM448 923h31l96 -132h-27l-89 110l-134 -110
h-27z" />
    <glyph glyph-name="Udieresis" unicode="&#xdc;" horiz-adv-x="670" 
d="M171 39.5q-54 45.5 -54 150.5q0 61 12 133l65 410h41l-65 -413q-13 -76 -13 -129q0 -88 44 -124t135 -36q78 0 127.5 21t84.5 83.5t54 184.5l66 413h41l-66 -416q-21 -135 -62.5 -205t-99.5 -94t-146 -24q-110 0 -164 45.5zM308 833l11 69q1 13 16 13h19q11 0 11 -10
q0 4 -12 -70q-1 -6 -5.5 -9.5t-9.5 -3.5h-19q-11 0 -11 11zM515 833l11 69q1 13 16 13h19q11 0 11 -10q0 4 -12 -70q-1 -6 -5.5 -9.5t-9.5 -3.5h-19q-11 0 -11 11z" />
    <glyph glyph-name="Yacute" unicode="&#xdd;" horiz-adv-x="597" 
d="M309 254l-165 479h46l145 -429l302 429h48l-335 -479l-41 -254h-41zM519 925h40l-151 -134h-25z" />
    <glyph glyph-name="Thorn" unicode="&#xde;" horiz-adv-x="540" 
d="M542 436q0 -30 -7 -67q-29 -192 -223 -192q-35 0 -61 1t-44 2l-59 3l-29 -183h-41l116 733h39l-23 -146h167q165 0 165 -151zM500 433q0 62 -33 89t-98 27h-165l-52 -335h159q158 0 184 157q5 33 5 62z" />
    <glyph glyph-name="germandbls" unicode="&#xdf;" horiz-adv-x="571" 
d="M290.5 -2q-46.5 4 -73.5 9l4 26q95 -5 165 -5q64 0 93.5 30t35.5 67q6 35 6 48q0 29 -20 44.5t-62 33.5q-47 19 -71.5 39.5t-24.5 59.5q0 34 22 63t65 68q45 42 68 73t23 69q0 51 -33.5 80t-91.5 29q-82 0 -128.5 -41.5t-61.5 -134.5l-89 -556h-41l90 565q17 104 74 154
t159 50q80 0 120.5 -40t40.5 -102q0 -46 -26 -81.5t-75 -80.5q-39 -37 -57 -60t-18 -49q0 -28 20 -43.5t59 -30.5q33 -14 52 -25t32.5 -30t13.5 -49q0 -18 -6 -54q-12 -64 -57.5 -97t-112.5 -33q-48 0 -94.5 4z" />
    <glyph glyph-name="agrave" unicode="&#xe0;" horiz-adv-x="561" 
d="M134 38q-45 44 -45 134q0 33 11 99q21 140 83.5 203.5t185.5 63.5q53 0 106.5 -14t84.5 -43l-76 -481h-31v58q-30 -20 -90 -42t-110 -22q-74 0 -119 44zM355.5 43q42.5 14 101.5 42l60 382q-23 14 -63 25t-88 11q-74 0 -119 -25t-69.5 -76.5t-38.5 -140.5q-9 -55 -9 -84
q0 -74 35.5 -111t96.5 -37q51 0 93.5 14zM287 765h38l95 -134h-24z" />
    <glyph glyph-name="aacute" unicode="&#xe1;" horiz-adv-x="561" 
d="M134 38q-45 44 -45 134q0 33 11 99q21 140 83.5 203.5t185.5 63.5q53 0 106.5 -14t84.5 -43l-76 -481h-31v58q-30 -20 -90 -42t-110 -22q-74 0 -119 44zM355.5 43q42.5 14 101.5 42l60 382q-23 14 -63 25t-88 11q-74 0 -119 -25t-69.5 -76.5t-38.5 -140.5q-9 -55 -9 -84
q0 -74 35.5 -111t96.5 -37q51 0 93.5 14zM500 765h40l-151 -134h-25z" />
    <glyph glyph-name="acircumflex" unicode="&#xe2;" horiz-adv-x="561" 
d="M134 38q-45 44 -45 134q0 33 11 99q21 140 83.5 203.5t185.5 63.5q53 0 106.5 -14t84.5 -43l-76 -481h-31v58q-30 -20 -90 -42t-110 -22q-74 0 -119 44zM355.5 43q42.5 14 101.5 42l60 382q-23 14 -63 25t-88 11q-74 0 -119 -25t-69.5 -76.5t-38.5 -140.5q-9 -55 -9 -84
q0 -74 35.5 -111t96.5 -37q51 0 93.5 14zM399 763h31l96 -132h-27l-89 110l-134 -110h-27z" />
    <glyph glyph-name="atilde" unicode="&#xe3;" horiz-adv-x="561" 
d="M134 38q-45 44 -45 134q0 33 11 99q21 140 83.5 203.5t185.5 63.5q53 0 106.5 -14t84.5 -43l-76 -481h-31v58q-30 -20 -90 -42t-110 -22q-74 0 -119 44zM355.5 43q42.5 14 101.5 42l60 382q-23 14 -63 25t-88 11q-74 0 -119 -25t-69.5 -76.5t-38.5 -140.5q-9 -55 -9 -84
q0 -74 35.5 -111t96.5 -37q51 0 93.5 14zM271.5 728.5q29.5 22.5 67.5 22.5q21 0 38 -8.5t43 -26.5q22 -17 38 -25t34 -8q30 0 51 18t27 51h22q-8 -44 -34.5 -69t-69.5 -25q-19 0 -36.5 8.5t-39.5 25.5q-24 17 -41 25.5t-37 8.5q-29 0 -51 -17.5t-27 -51.5h-22
q8 49 37.5 71.5z" />
    <glyph glyph-name="adieresis" unicode="&#xe4;" horiz-adv-x="561" 
d="M134 38q-45 44 -45 134q0 33 11 99q21 140 83.5 203.5t185.5 63.5q53 0 106.5 -14t84.5 -43l-76 -481h-31v58q-30 -20 -90 -42t-110 -22q-74 0 -119 44zM355.5 43q42.5 14 101.5 42l60 382q-23 14 -63 25t-88 11q-74 0 -119 -25t-69.5 -76.5t-38.5 -140.5q-9 -55 -9 -84
q0 -74 35.5 -111t96.5 -37q51 0 93.5 14zM250 673l11 69q1 13 16 13h19q11 0 11 -10q0 4 -12 -70q-1 -6 -5.5 -9.5t-9.5 -3.5h-19q-11 0 -11 11zM457 673l11 69q1 13 16 13h19q11 0 11 -10q0 4 -12 -70q-1 -6 -5.5 -9.5t-9.5 -3.5h-19q-11 0 -11 11z" />
    <glyph glyph-name="aring" unicode="&#xe5;" horiz-adv-x="561" 
d="M134 38q-45 44 -45 134q0 33 11 99q21 140 83.5 203.5t185.5 63.5q53 0 106.5 -14t84.5 -43l-76 -481h-31v58q-30 -20 -90 -42t-110 -22q-74 0 -119 44zM355.5 43q42.5 14 101.5 42l60 382q-23 14 -63 25t-88 11q-74 0 -119 -25t-69.5 -76.5t-38.5 -140.5q-9 -55 -9 -84
q0 -74 35.5 -111t96.5 -37q51 0 93.5 14zM322.5 618q-25.5 20 -25.5 65q0 51 33 87t91 36q39 0 64 -20.5t25 -63.5q0 -53 -31.5 -88.5t-88.5 -35.5q-42 0 -67.5 20zM462.5 648q24.5 29 24.5 72q0 35 -19.5 50t-48.5 15q-48 0 -73.5 -29t-25.5 -73q0 -34 20 -49t51 -15
q47 0 71.5 29z" />
    <glyph glyph-name="ae" unicode="&#xe6;" horiz-adv-x="910" 
d="M133.5 37.5q-41.5 43.5 -41.5 134.5q0 158 64.5 262t212.5 104q46 0 98.5 -15t84.5 -39q31 28 78 42.5t101 14.5q90 0 136.5 -37.5t46.5 -110.5q0 -48 -29 -84.5t-83.5 -57t-127.5 -20.5q-54 0 -107 6t-69 12q-4 -35 -4 -72q0 -76 30 -112.5t108 -36.5h209l-5 -26
q-83 -8 -210 -8q-64 0 -104.5 25.5t-55.5 69.5q-40 -35 -100 -65t-118 -30q-73 0 -114.5 43.5zM815.5 293.5q58.5 31.5 58.5 94.5q0 56 -35.5 87.5t-100.5 31.5q-84 0 -131 -26.5t-69 -75.5t-37 -133q1 0 41.5 -5t111.5 -5q103 0 161.5 31.5zM362.5 57q57.5 27 96.5 63
q-5 19 -5 52q0 77 18 155t59 133q-83 43 -161 43q-131 0 -184 -95t-53 -230q0 -148 117 -148q55 0 112.5 27z" />
    <glyph glyph-name="ccedilla" unicode="&#xe7;" horiz-adv-x="484" 
d="M213.5 450q-52.5 -53 -73.5 -187q-8 -51 -8 -79q0 -62 17 -96t50 -47t86 -13h164l-3 -25q-76 -9 -171 -9h-15l-51 -60q36 -1 52 -13.5t16 -35.5q0 -17 -12 -35.5t-35.5 -31t-54.5 -12.5h-24l3 17l25 2q33 3 52.5 23t19.5 37q0 18 -15.5 28t-55.5 11l60 71q-73 7 -111 49
t-38 138q0 32 10 94q21 137 83 199.5t163 62.5q56 0 169 -9l-5 -26h-161q-84 0 -136.5 -53z" />
    <glyph glyph-name="egrave" unicode="&#xe8;" horiz-adv-x="548" 
d="M145 38.5q-53 44.5 -53 135.5q0 52 11 118q18 121 81.5 185t184.5 64q90 0 137 -32.5t47 -105.5q0 -172 -259 -172q-48 0 -90 5.5t-66 11.5q-5 -30 -5 -74q0 -77 43.5 -111.5t144.5 -34.5h157l-5 -26q-99 -8 -162 -8q-113 0 -166 44.5zM451 291.5q62 29.5 62 107.5
q0 58 -36 83t-111 25q-107 0 -157.5 -57.5t-67.5 -176.5q52 -11 132 -11q116 0 178 29.5zM285 765h38l95 -134h-24z" />
    <glyph glyph-name="eacute" unicode="&#xe9;" horiz-adv-x="548" 
d="M145 38.5q-53 44.5 -53 135.5q0 52 11 118q18 121 81.5 185t184.5 64q90 0 137 -32.5t47 -105.5q0 -172 -259 -172q-48 0 -90 5.5t-66 11.5q-5 -30 -5 -74q0 -77 43.5 -111.5t144.5 -34.5h157l-5 -26q-99 -8 -162 -8q-113 0 -166 44.5zM451 291.5q62 29.5 62 107.5
q0 58 -36 83t-111 25q-107 0 -157.5 -57.5t-67.5 -176.5q52 -11 132 -11q116 0 178 29.5zM498 765h40l-151 -134h-25z" />
    <glyph glyph-name="ecircumflex" unicode="&#xea;" horiz-adv-x="548" 
d="M145 38.5q-53 44.5 -53 135.5q0 52 11 118q18 121 81.5 185t184.5 64q90 0 137 -32.5t47 -105.5q0 -172 -259 -172q-48 0 -90 5.5t-66 11.5q-5 -30 -5 -74q0 -77 43.5 -111.5t144.5 -34.5h157l-5 -26q-99 -8 -162 -8q-113 0 -166 44.5zM451 291.5q62 29.5 62 107.5
q0 58 -36 83t-111 25q-107 0 -157.5 -57.5t-67.5 -176.5q52 -11 132 -11q116 0 178 29.5zM397 763h31l96 -132h-27l-89 110l-134 -110h-27z" />
    <glyph glyph-name="edieresis" unicode="&#xeb;" horiz-adv-x="548" 
d="M145 38.5q-53 44.5 -53 135.5q0 52 11 118q18 121 81.5 185t184.5 64q90 0 137 -32.5t47 -105.5q0 -172 -259 -172q-48 0 -90 5.5t-66 11.5q-5 -30 -5 -74q0 -77 43.5 -111.5t144.5 -34.5h157l-5 -26q-99 -8 -162 -8q-113 0 -166 44.5zM451 291.5q62 29.5 62 107.5
q0 58 -36 83t-111 25q-107 0 -157.5 -57.5t-67.5 -176.5q52 -11 132 -11q116 0 178 29.5zM248 673l11 69q1 13 16 13h19q11 0 11 -10q0 4 -12 -70q-1 -6 -5.5 -9.5t-9.5 -3.5h-19q-11 0 -11 11zM455 673l11 69q1 13 16 13h19q11 0 11 -10q0 4 -12 -70q-1 -6 -5.5 -9.5
t-9.5 -3.5h-19q-11 0 -11 11z" />
    <glyph glyph-name="igrave" unicode="&#xec;" horiz-adv-x="194" 
d="M161 532h41l-84 -532h-41zM104 765h38l95 -134h-24z" />
    <glyph glyph-name="iacute" unicode="&#xed;" horiz-adv-x="194" 
d="M161 532h41l-84 -532h-41zM317 765h40l-151 -134h-25z" />
    <glyph glyph-name="icircumflex" unicode="&#xee;" horiz-adv-x="194" 
d="M161 532h41l-84 -532h-41zM216 763h31l96 -132h-27l-89 110l-134 -110h-27z" />
    <glyph glyph-name="idieresis" unicode="&#xef;" horiz-adv-x="194" 
d="M161 532h41l-84 -532h-41zM67 673l11 69q1 13 16 13h19q11 0 11 -10q0 4 -12 -70q-1 -6 -5.5 -9.5t-9.5 -3.5h-19q-11 0 -11 11zM274 673l11 69q1 13 16 13h19q11 0 11 -10q0 4 -12 -70q-1 -6 -5.5 -9.5t-9.5 -3.5h-19q-11 0 -11 11z" />
    <glyph glyph-name="eth" unicode="&#xf0;" horiz-adv-x="562" 
d="M561 441q0 -87 -15 -178q-16 -105 -47 -163t-83 -82t-136 -24q-90 0 -139.5 41.5t-49.5 136.5q0 39 8 93q17 106 48 164.5t82 82.5t132 24q132 0 166 -101v3q0 161 -83 233l-156 -59l-5 19l143 54q-66 44 -176 46l5 32q132 -2 208 -65l153 58l5 -19l-142 -53
q82 -82 82 -243zM513 355q0 78 -36.5 112t-117.5 34q-69 0 -110.5 -20t-67 -72.5t-41.5 -152.5q-8 -51 -8 -84q0 -82 39.5 -112.5t115.5 -30.5q66 0 107 18.5t68 69t43 147.5q8 51 8 91z" />
    <glyph glyph-name="ntilde" unicode="&#xf1;" horiz-adv-x="568" 
d="M161 532h30l1 -61q49 32 107 51t115 19q73 0 106 -35t33 -93q0 -23 -9 -84l-53 -329h-41l52 328q9 62 9 74q0 101 -112 101q-58 0 -105 -14.5t-106 -47.5l-71 -441h-41zM274.5 728.5q29.5 22.5 67.5 22.5q21 0 38 -8.5t43 -26.5q22 -17 38 -25t34 -8q30 0 51 18t27 51h22
q-8 -44 -34.5 -69t-69.5 -25q-19 0 -36.5 8.5t-39.5 25.5q-24 17 -41 25.5t-37 8.5q-29 0 -51 -17.5t-27 -51.5h-22q8 49 37.5 71.5z" />
    <glyph glyph-name="ograve" unicode="&#xf2;" horiz-adv-x="562" 
d="M140.5 35.5q-49.5 41.5 -49.5 136.5q0 41 8 95q17 106 48.5 164.5t83.5 82.5t135 24q100 0 144.5 -45t44.5 -138q0 -28 -10 -106q-16 -98 -46.5 -153t-82.5 -78.5t-136 -23.5q-90 0 -139.5 41.5zM394 47q41 18 68 67.5t42 143.5q9 57 9 98q0 80 -35 113.5t-119 33.5
q-69 0 -110.5 -20t-67 -72.5t-41.5 -152.5q-8 -53 -8 -86q0 -82 39.5 -112.5t115.5 -30.5q66 0 107 18zM281 765h38l95 -134h-24z" />
    <glyph glyph-name="oacute" unicode="&#xf3;" horiz-adv-x="562" 
d="M140.5 35.5q-49.5 41.5 -49.5 136.5q0 41 8 95q17 106 48.5 164.5t83.5 82.5t135 24q100 0 144.5 -45t44.5 -138q0 -28 -10 -106q-16 -98 -46.5 -153t-82.5 -78.5t-136 -23.5q-90 0 -139.5 41.5zM394 47q41 18 68 67.5t42 143.5q9 57 9 98q0 80 -35 113.5t-119 33.5
q-69 0 -110.5 -20t-67 -72.5t-41.5 -152.5q-8 -53 -8 -86q0 -82 39.5 -112.5t115.5 -30.5q66 0 107 18zM494 765h40l-151 -134h-25z" />
    <glyph glyph-name="ocircumflex" unicode="&#xf4;" horiz-adv-x="562" 
d="M140.5 35.5q-49.5 41.5 -49.5 136.5q0 41 8 95q17 106 48.5 164.5t83.5 82.5t135 24q100 0 144.5 -45t44.5 -138q0 -28 -10 -106q-16 -98 -46.5 -153t-82.5 -78.5t-136 -23.5q-90 0 -139.5 41.5zM394 47q41 18 68 67.5t42 143.5q9 57 9 98q0 80 -35 113.5t-119 33.5
q-69 0 -110.5 -20t-67 -72.5t-41.5 -152.5q-8 -53 -8 -86q0 -82 39.5 -112.5t115.5 -30.5q66 0 107 18zM393 763h31l96 -132h-27l-89 110l-134 -110h-27z" />
    <glyph glyph-name="otilde" unicode="&#xf5;" horiz-adv-x="562" 
d="M140.5 35.5q-49.5 41.5 -49.5 136.5q0 41 8 95q17 106 48.5 164.5t83.5 82.5t135 24q100 0 144.5 -45t44.5 -138q0 -28 -10 -106q-16 -98 -46.5 -153t-82.5 -78.5t-136 -23.5q-90 0 -139.5 41.5zM394 47q41 18 68 67.5t42 143.5q9 57 9 98q0 80 -35 113.5t-119 33.5
q-69 0 -110.5 -20t-67 -72.5t-41.5 -152.5q-8 -53 -8 -86q0 -82 39.5 -112.5t115.5 -30.5q66 0 107 18zM265.5 728.5q29.5 22.5 67.5 22.5q21 0 38 -8.5t43 -26.5q22 -17 38 -25t34 -8q30 0 51 18t27 51h22q-8 -44 -34.5 -69t-69.5 -25q-19 0 -36.5 8.5t-39.5 25.5
q-24 17 -41 25.5t-37 8.5q-29 0 -51 -17.5t-27 -51.5h-22q8 49 37.5 71.5z" />
    <glyph glyph-name="odieresis" unicode="&#xf6;" horiz-adv-x="562" 
d="M140.5 35.5q-49.5 41.5 -49.5 136.5q0 41 8 95q17 106 48.5 164.5t83.5 82.5t135 24q100 0 144.5 -45t44.5 -138q0 -28 -10 -106q-16 -98 -46.5 -153t-82.5 -78.5t-136 -23.5q-90 0 -139.5 41.5zM394 47q41 18 68 67.5t42 143.5q9 57 9 98q0 80 -35 113.5t-119 33.5
q-69 0 -110.5 -20t-67 -72.5t-41.5 -152.5q-8 -53 -8 -86q0 -82 39.5 -112.5t115.5 -30.5q66 0 107 18zM244 673l11 69q1 13 16 13h19q11 0 11 -10q0 4 -12 -70q-1 -6 -5.5 -9.5t-9.5 -3.5h-19q-11 0 -11 11zM451 673l11 69q1 13 16 13h19q11 0 11 -10q0 4 -12 -70
q-1 -6 -5.5 -9.5t-9.5 -3.5h-19q-11 0 -11 11z" />
    <glyph glyph-name="divide" unicode="&#xf7;" 
d="M357.5 517.5q-5.5 6.5 -3.5 16.5l5 34q2 11 9 18t19 7h22q24 0 21 -25l-5 -34q-4 -23 -29 -23h-22q-11 0 -16.5 6.5zM140 375h448l-6 -37h-448zM296 125.5q-5 6.5 -4 16.5l5 34q5 25 28 25h22q26 0 21 -25l-5 -34q-4 -23 -29 -23h-22q-11 0 -16 6.5z" />
    <glyph glyph-name="oslash" unicode="&#xf8;" horiz-adv-x="561" 
d="M527 473q28 -44 28 -118q0 -28 -10 -106q-16 -98 -46.5 -153t-82.5 -78.5t-136 -23.5q-101 0 -147 49l-40 -43h-28l55 60q-29 41 -29 112q0 41 8 95q17 106 48.5 164.5t83.5 82.5t135 24q103 0 148 -49l39 43h28zM148 90l339 370q-18 22 -49 32.5t-79 10.5
q-69 0 -110.5 -20t-67 -72.5t-41.5 -152.5q-8 -53 -8 -86q0 -48 16 -82zM498 441l-339 -369q20 -24 51.5 -33.5t76.5 -9.5q66 0 107 18t68 67.5t42 143.5q9 57 9 98q0 54 -15 85z" />
    <glyph glyph-name="ugrave" unicode="&#xf9;" horiz-adv-x="568" 
d="M134.5 26.5q-35.5 32.5 -35.5 90.5q0 26 4 52l57 363h41l-57 -364q-4 -24 -4 -39q0 -48 27 -73t86 -25q57 0 103.5 14.5t107.5 45.5l70 441h41l-84 -532h-32l1 61q-55 -33 -106.5 -50t-115.5 -17q-68 0 -103.5 32.5zM289 765h38l95 -134h-24z" />
    <glyph glyph-name="uacute" unicode="&#xfa;" horiz-adv-x="568" 
d="M134.5 26.5q-35.5 32.5 -35.5 90.5q0 26 4 52l57 363h41l-57 -364q-4 -24 -4 -39q0 -48 27 -73t86 -25q57 0 103.5 14.5t107.5 45.5l70 441h41l-84 -532h-32l1 61q-55 -33 -106.5 -50t-115.5 -17q-68 0 -103.5 32.5zM502 765h40l-151 -134h-25z" />
    <glyph glyph-name="ucircumflex" unicode="&#xfb;" horiz-adv-x="568" 
d="M134.5 26.5q-35.5 32.5 -35.5 90.5q0 26 4 52l57 363h41l-57 -364q-4 -24 -4 -39q0 -48 27 -73t86 -25q57 0 103.5 14.5t107.5 45.5l70 441h41l-84 -532h-32l1 61q-55 -33 -106.5 -50t-115.5 -17q-68 0 -103.5 32.5zM401 763h31l96 -132h-27l-89 110l-134 -110h-27z" />
    <glyph glyph-name="udieresis" unicode="&#xfc;" horiz-adv-x="568" 
d="M134.5 26.5q-35.5 32.5 -35.5 90.5q0 26 4 52l57 363h41l-57 -364q-4 -24 -4 -39q0 -48 27 -73t86 -25q57 0 103.5 14.5t107.5 45.5l70 441h41l-84 -532h-32l1 61q-55 -33 -106.5 -50t-115.5 -17q-68 0 -103.5 32.5zM252 673l11 69q1 13 16 13h19q11 0 11 -10
q0 4 -12 -70q-1 -6 -5.5 -9.5t-9.5 -3.5h-19q-11 0 -11 11zM459 673l11 69q1 13 16 13h19q11 0 11 -10q0 4 -12 -70q-1 -6 -5.5 -9.5t-9.5 -3.5h-19q-11 0 -11 11z" />
    <glyph glyph-name="yacute" unicode="&#xfd;" horiz-adv-x="547" 
d="M97 -204q48 12 99 61t95 143q-29 4 -49.5 12.5t-37 32.5t-24.5 70l-78 417h42l74 -408q9 -49 31 -66t59 -20l193 410q25 60 28 92h33q0 -58 -26 -113l-203 -425q-58 -120 -113.5 -174t-122.5 -65v33zM464 765h40l-151 -134h-25z" />
    <glyph glyph-name="thorn" unicode="&#xfe;" horiz-adv-x="562" 
d="M197 763h41l-36 -231q66 6 186 6q167 0 167 -178q0 -43 -10 -101q-20 -128 -78 -196.5t-170 -68.5q-52 0 -93 8.5t-82 28.5l-43 -268h-41zM438.5 88q46.5 58 66.5 181q10 60 10 86q0 148 -134 148l-185 -2l-69 -440q55 -18 87 -24.5t81 -6.5q97 0 143.5 58z" />
    <glyph glyph-name="ydieresis" unicode="&#xff;" horiz-adv-x="547" 
d="M97 -204q48 12 99 61t95 143q-29 4 -49.5 12.5t-37 32.5t-24.5 70l-78 417h42l74 -408q9 -49 31 -66t59 -20l193 410q25 60 28 92h33q0 -58 -26 -113l-203 -425q-58 -120 -113.5 -174t-122.5 -65v33zM214 673l11 69q1 13 16 13h19q11 0 11 -10q0 4 -12 -70
q-1 -6 -5.5 -9.5t-9.5 -3.5h-19q-11 0 -11 11zM421 673l11 69q1 13 16 13h19q11 0 11 -10q0 4 -12 -70q-1 -6 -5.5 -9.5t-9.5 -3.5h-19q-11 0 -11 11z" />
    <glyph glyph-name="Amacron" unicode="&#x100;" horiz-adv-x="665" 
d="M427 733h55l141 -733h-42l-47 240h-322l-128 -240h-42zM528 278l-80 415l-218 -415h298zM339 870h256l-5 -25h-256z" />
    <glyph glyph-name="amacron" unicode="&#x101;" horiz-adv-x="561" 
d="M134 38q-45 44 -45 134q0 33 11 99q21 140 83.5 203.5t185.5 63.5q53 0 106.5 -14t84.5 -43l-76 -481h-31v58q-30 -20 -90 -42t-110 -22q-74 0 -119 44zM355.5 43q42.5 14 101.5 42l60 382q-23 14 -63 25t-88 11q-74 0 -119 -25t-69.5 -76.5t-38.5 -140.5q-9 -55 -9 -84
q0 -74 35.5 -111t96.5 -37q51 0 93.5 14zM271 710h256l-5 -25h-256z" />
    <glyph glyph-name="Abreve" unicode="&#x102;" horiz-adv-x="665" 
d="M427 733h55l141 -733h-42l-47 240h-322l-128 -240h-42zM528 278l-80 415l-218 -415h298zM377 816q-30 24 -30 78q0 10 2 34h22q-2 -22 -2 -29q0 -43 23.5 -64.5t62.5 -21.5q48 0 82.5 27.5t44.5 87.5h21q-12 -74 -52.5 -105t-96.5 -31q-47 0 -77 24z" />
    <glyph glyph-name="abreve" unicode="&#x103;" horiz-adv-x="561" 
d="M134 38q-45 44 -45 134q0 33 11 99q21 140 83.5 203.5t185.5 63.5q53 0 106.5 -14t84.5 -43l-76 -481h-31v58q-30 -20 -90 -42t-110 -22q-74 0 -119 44zM355.5 43q42.5 14 101.5 42l60 382q-23 14 -63 25t-88 11q-74 0 -119 -25t-69.5 -76.5t-38.5 -140.5q-9 -55 -9 -84
q0 -74 35.5 -111t96.5 -37q51 0 93.5 14zM309 656q-30 24 -30 78q0 10 2 34h22q-2 -22 -2 -29q0 -43 23.5 -64.5t62.5 -21.5q48 0 82.5 27.5t44.5 87.5h21q-12 -74 -52.5 -105t-96.5 -31q-47 0 -77 24z" />
    <glyph glyph-name="Aogonek" unicode="&#x104;" horiz-adv-x="665" 
d="M427 733h55l141 -733h-42l-47 240h-322l-128 -240h-42zM528 278l-80 415l-218 -415h298zM510 -163.5q-25 19.5 -25 53.5q0 28 23.5 58.5t72.5 51.5h18q-41 -20 -64 -49t-23 -52q0 -28 22 -43.5t64 -15.5h6l-4 -22q-8 -1 -23 -1q-42 0 -67 19.5z" />
    <glyph glyph-name="aogonek" unicode="&#x105;" horiz-adv-x="561" 
d="M420 -144.5q22 -15.5 64 -15.5h6l-4 -22q-8 -1 -23 -1q-42 0 -67 19.5t-25 53.5q0 28 23.5 58.5t72.5 51.5h-14v58q-30 -20 -90 -42t-110 -22q-74 0 -119 44t-45 134q0 33 11 99q21 140 83.5 203.5t185.5 63.5q53 0 106.5 -14t84.5 -43l-76 -481h1q-41 -20 -64 -49
t-23 -52q0 -28 22 -43.5zM517 467q-23 14 -63 25t-88 11q-74 0 -119 -25t-69.5 -76.5t-38.5 -140.5q-9 -55 -9 -84q0 -74 35.5 -111t96.5 -37q51 0 93.5 14t101.5 42z" />
    <glyph glyph-name="Cacute" unicode="&#x106;" horiz-adv-x="589" 
d="M158 49q-47 55 -47 166q0 67 16 163q28 180 96.5 270.5t194.5 90.5q65 0 115.5 -7t102.5 -18l-6 -29q-114 17 -210 17q-73 0 -121 -35.5t-79 -108.5t-52 -192q-15 -88 -15 -150q0 -99 37.5 -142t125.5 -43q73 0 120 3.5t91 10.5l-5 -30q-96 -21 -215 -21q-102 0 -149 55z
M539 925h40l-151 -134h-25z" />
    <glyph glyph-name="cacute" unicode="&#x107;" horiz-adv-x="484" 
d="M138 34.5q-47 40.5 -47 147.5q0 32 10 94q21 137 83 199.5t163 62.5q56 0 169 -9l-5 -26h-161q-84 0 -136.5 -53t-73.5 -187q-8 -51 -8 -79q0 -62 17 -96t50 -47t86 -13h164l-3 -25q-76 -9 -171 -9q-90 0 -137 40.5zM471 765h40l-151 -134h-25z" />
    <glyph glyph-name="Ccircumflex" unicode="&#x108;" horiz-adv-x="589" 
d="M158 49q-47 55 -47 166q0 67 16 163q28 180 96.5 270.5t194.5 90.5q65 0 115.5 -7t102.5 -18l-6 -29q-114 17 -210 17q-73 0 -121 -35.5t-79 -108.5t-52 -192q-15 -88 -15 -150q0 -99 37.5 -142t125.5 -43q73 0 120 3.5t91 10.5l-5 -30q-96 -21 -215 -21q-102 0 -149 55z
M429 923h31l96 -132h-27l-89 110l-134 -110h-27z" />
    <glyph glyph-name="ccircumflex" unicode="&#x109;" horiz-adv-x="484" 
d="M138 34.5q-47 40.5 -47 147.5q0 32 10 94q21 137 83 199.5t163 62.5q56 0 169 -9l-5 -26h-161q-84 0 -136.5 -53t-73.5 -187q-8 -51 -8 -79q0 -62 17 -96t50 -47t86 -13h164l-3 -25q-76 -9 -171 -9q-90 0 -137 40.5zM370 763h31l96 -132h-27l-89 110l-134 -110h-27z" />
    <glyph glyph-name="Cdotaccent" unicode="&#x10a;" horiz-adv-x="589" 
d="M158 49q-47 55 -47 166q0 67 16 163q28 180 96.5 270.5t194.5 90.5q65 0 115.5 -7t102.5 -18l-6 -29q-114 17 -210 17q-73 0 -121 -35.5t-79 -108.5t-52 -192q-15 -88 -15 -150q0 -99 37.5 -142t125.5 -43q73 0 120 3.5t91 10.5l-5 -30q-96 -21 -215 -21q-102 0 -149 55z
M415 832q-3 3 -3 8v2l11 67q1 13 15 13h19q11 0 11 -10v-3l-11 -67q-1 -6 -5 -9.5t-10 -3.5h-19q-5 0 -8 3z" />
    <glyph glyph-name="cdotaccent" unicode="&#x10b;" horiz-adv-x="484" 
d="M138 34.5q-47 40.5 -47 147.5q0 32 10 94q21 137 83 199.5t163 62.5q56 0 169 -9l-5 -26h-161q-84 0 -136.5 -53t-73.5 -187q-8 -51 -8 -79q0 -62 17 -96t50 -47t86 -13h164l-3 -25q-76 -9 -171 -9q-90 0 -137 40.5zM341 672q-3 3 -3 8v2l11 67q1 13 15 13h19
q11 0 11 -10v-3l-11 -67q-1 -6 -5 -9.5t-10 -3.5h-19q-5 0 -8 3z" />
    <glyph glyph-name="Ccaron" unicode="&#x10c;" horiz-adv-x="589" 
d="M158 49q-47 55 -47 166q0 67 16 163q28 180 96.5 270.5t194.5 90.5q65 0 115.5 -7t102.5 -18l-6 -29q-114 17 -210 17q-73 0 -121 -35.5t-79 -108.5t-52 -192q-15 -88 -15 -150q0 -99 37.5 -142t125.5 -43q73 0 120 3.5t91 10.5l-5 -30q-96 -21 -215 -21q-102 0 -149 55z
M330 923h28l87 -110l135 110h27l-150 -132h-31z" />
    <glyph glyph-name="ccaron" unicode="&#x10d;" horiz-adv-x="484" 
d="M138 34.5q-47 40.5 -47 147.5q0 32 10 94q21 137 83 199.5t163 62.5q56 0 169 -9l-5 -26h-161q-84 0 -136.5 -53t-73.5 -187q-8 -51 -8 -79q0 -62 17 -96t50 -47t86 -13h164l-3 -25q-76 -9 -171 -9q-90 0 -137 40.5zM252 763h28l87 -110l135 110h27l-150 -132h-31z" />
    <glyph glyph-name="Dcaron" unicode="&#x10e;" horiz-adv-x="666" 
d="M194 733h256q119 0 168.5 -62.5t49.5 -191.5q0 -47 -12 -125q-25 -162 -102.5 -258t-214.5 -96h-261zM340 37q120 0 186.5 90t89.5 238q11 68 11 115q0 111 -41 163.5t-146 52.5h-212l-104 -659h216zM320 923h28l87 -110l135 110h27l-150 -132h-31z" />
    <glyph glyph-name="dcaron" unicode="&#x10f;" horiz-adv-x="562" 
d="M135 38.5q-44 44.5 -44 128.5q0 56 10 107q17 89 43.5 145t79.5 87.5t142 31.5q47 0 85 -8.5t73 -27.5l42 261h41l-121 -763h-32v58q-44 -26 -97.5 -45t-107.5 -19q-70 0 -114 44.5zM355.5 43.5q47.5 14.5 102.5 41.5l60 382q-34 19 -69.5 27.5t-82.5 8.5
q-75 0 -119 -25.5t-67 -76t-39 -137.5q-10 -57 -10 -88q0 -76 35 -111.5t91 -35.5q51 0 98.5 14.5zM658 723l10 67h40l-10 -67l-29 -155h-26z" />
    <glyph glyph-name="Dcroat" unicode="&#x110;" horiz-adv-x="666" 
d="M618.5 670.5q49.5 -62.5 49.5 -191.5q0 -47 -12 -125q-25 -162 -102.5 -258t-214.5 -96h-261l56 357h-73l6 32h73l54 344h256q119 0 168.5 -62.5zM627 480q0 111 -41 163.5t-146 52.5h-212l-48 -307h211l-6 -32h-210l-51 -320h216q120 0 186.5 90t89.5 238q11 68 11 115z
" />
    <glyph glyph-name="dcroat" unicode="&#x111;" horiz-adv-x="569" 
d="M661 637h-74l-101 -637h-32v58q-44 -26 -97.5 -45t-107.5 -19q-70 0 -114 44.5t-44 128.5q0 56 10 107q17 89 43.5 145t79.5 87.5t142 31.5q47 0 85 -8.5t73 -27.5l22 135h-152l3 21h152l17 105h41l-17 -105h74zM518 467q-34 19 -69.5 27.5t-82.5 8.5q-75 0 -119 -25.5
t-67 -76t-39 -137.5q-10 -57 -10 -88q0 -76 35 -111.5t91 -35.5q51 0 98.5 14.5t102.5 41.5z" />
    <glyph glyph-name="Emacron" unicode="&#x112;" horiz-adv-x="569" 
d="M95 99q0 16 3 34l75 469q11 70 52 100.5t98 30.5q59 0 134 -2t105 -3l62 -2l-6 -31h-292q-48 0 -76.5 -23.5t-37.5 -78.5l-33 -209l348 -7l-5 -30l-349 -2l-33 -211q-2 -11 -2 -29q0 -42 23.5 -57.5t69.5 -15.5h284l-5 -31q-96 -3 -290 -7q-125 -2 -125 105zM307 870h256
l-5 -25h-256z" />
    <glyph glyph-name="emacron" unicode="&#x113;" horiz-adv-x="548" 
d="M145 38.5q-53 44.5 -53 135.5q0 52 11 118q18 121 81.5 185t184.5 64q90 0 137 -32.5t47 -105.5q0 -172 -259 -172q-48 0 -90 5.5t-66 11.5q-5 -30 -5 -74q0 -77 43.5 -111.5t144.5 -34.5h157l-5 -26q-99 -8 -162 -8q-113 0 -166 44.5zM451 291.5q62 29.5 62 107.5
q0 58 -36 83t-111 25q-107 0 -157.5 -57.5t-67.5 -176.5q52 -11 132 -11q116 0 178 29.5zM269 710h256l-5 -25h-256z" />
    <glyph glyph-name="Ebreve" unicode="&#x114;" horiz-adv-x="569" 
d="M95 99q0 16 3 34l75 469q11 70 52 100.5t98 30.5q59 0 134 -2t105 -3l62 -2l-6 -31h-292q-48 0 -76.5 -23.5t-37.5 -78.5l-33 -209l348 -7l-5 -30l-349 -2l-33 -211q-2 -11 -2 -29q0 -42 23.5 -57.5t69.5 -15.5h284l-5 -31q-96 -3 -290 -7q-125 -2 -125 105zM345 816
q-30 24 -30 78q0 10 2 34h22q-2 -22 -2 -29q0 -43 23.5 -64.5t62.5 -21.5q48 0 82.5 27.5t44.5 87.5h21q-12 -74 -52.5 -105t-96.5 -31q-47 0 -77 24z" />
    <glyph glyph-name="ebreve" unicode="&#x115;" horiz-adv-x="548" 
d="M145 38.5q-53 44.5 -53 135.5q0 52 11 118q18 121 81.5 185t184.5 64q90 0 137 -32.5t47 -105.5q0 -172 -259 -172q-48 0 -90 5.5t-66 11.5q-5 -30 -5 -74q0 -77 43.5 -111.5t144.5 -34.5h157l-5 -26q-99 -8 -162 -8q-113 0 -166 44.5zM451 291.5q62 29.5 62 107.5
q0 58 -36 83t-111 25q-107 0 -157.5 -57.5t-67.5 -176.5q52 -11 132 -11q116 0 178 29.5zM307 656q-30 24 -30 78q0 10 2 34h22q-2 -22 -2 -29q0 -43 23.5 -64.5t62.5 -21.5q48 0 82.5 27.5t44.5 87.5h21q-12 -74 -52.5 -105t-96.5 -31q-47 0 -77 24z" />
    <glyph glyph-name="Edotaccent" unicode="&#x116;" horiz-adv-x="569" 
d="M95 99q0 16 3 34l75 469q11 70 52 100.5t98 30.5q59 0 134 -2t105 -3l62 -2l-6 -31h-292q-48 0 -76.5 -23.5t-37.5 -78.5l-33 -209l348 -7l-5 -30l-349 -2l-33 -211q-2 -11 -2 -29q0 -42 23.5 -57.5t69.5 -15.5h284l-5 -31q-96 -3 -290 -7q-125 -2 -125 105zM412 832
q-3 3 -3 8v2l11 67q1 13 15 13h19q11 0 11 -10v-3l-11 -67q-1 -6 -5 -9.5t-10 -3.5h-19q-5 0 -8 3z" />
    <glyph glyph-name="edotaccent" unicode="&#x117;" horiz-adv-x="548" 
d="M145 38.5q-53 44.5 -53 135.5q0 52 11 118q18 121 81.5 185t184.5 64q90 0 137 -32.5t47 -105.5q0 -172 -259 -172q-48 0 -90 5.5t-66 11.5q-5 -30 -5 -74q0 -77 43.5 -111.5t144.5 -34.5h157l-5 -26q-99 -8 -162 -8q-113 0 -166 44.5zM451 291.5q62 29.5 62 107.5
q0 58 -36 83t-111 25q-107 0 -157.5 -57.5t-67.5 -176.5q52 -11 132 -11q116 0 178 29.5zM368 672q-3 3 -3 8v2l11 67q1 13 15 13h19q11 0 11 -10v-3l-11 -67q-1 -6 -5 -9.5t-10 -3.5h-19q-5 0 -8 3z" />
    <glyph glyph-name="Eogonek" unicode="&#x118;" horiz-adv-x="569" 
d="M249.5 671.5q-28.5 -23.5 -37.5 -78.5l-33 -209l348 -7l-5 -30l-349 -2l-33 -211q-2 -11 -2 -29q0 -42 23.5 -57.5t69.5 -15.5h284l-5 -31q-41 -20 -64 -49t-23 -52q0 -28 22 -43.5t64 -15.5h6l-4 -22q-8 -1 -23 -1q-42 0 -67 19.5t-25 53.5q0 28 23.5 58t71.5 51
l-271 -6q-125 -2 -125 105q0 16 3 34l75 469q11 70 52 100.5t98 30.5q59 0 134 -2t105 -3l62 -2l-6 -31h-292q-48 0 -76.5 -23.5z" />
    <glyph glyph-name="eogonek" unicode="&#x119;" horiz-adv-x="548" 
d="M204 236.5q-42 5.5 -66 11.5q-5 -30 -5 -74q0 -77 43.5 -111.5t144.5 -34.5h157l-5 -26q-41 -20 -64 -49t-23 -52q0 -28 22 -43.5t64 -15.5h6l-4 -22q-8 -1 -23 -1q-42 0 -67 19.5t-25 53.5q0 27 22.5 57t69.5 51q-76 -6 -140 -6q-113 0 -166 44.5t-53 135.5q0 52 11 118
q18 121 81.5 185t184.5 64q90 0 137 -32.5t47 -105.5q0 -172 -259 -172q-48 0 -90 5.5zM208.5 449.5q-50.5 -57.5 -67.5 -176.5q52 -11 132 -11q116 0 178 29.5t62 107.5q0 58 -36 83t-111 25q-107 0 -157.5 -57.5z" />
    <glyph glyph-name="Ecaron" unicode="&#x11a;" horiz-adv-x="569" 
d="M95 99q0 16 3 34l75 469q11 70 52 100.5t98 30.5q59 0 134 -2t105 -3l62 -2l-6 -31h-292q-48 0 -76.5 -23.5t-37.5 -78.5l-33 -209l348 -7l-5 -30l-349 -2l-33 -211q-2 -11 -2 -29q0 -42 23.5 -57.5t69.5 -15.5h284l-5 -31q-96 -3 -290 -7q-125 -2 -125 105zM327 923h28
l87 -110l135 110h27l-150 -132h-31z" />
    <glyph glyph-name="ecaron" unicode="&#x11b;" horiz-adv-x="548" 
d="M145 38.5q-53 44.5 -53 135.5q0 52 11 118q18 121 81.5 185t184.5 64q90 0 137 -32.5t47 -105.5q0 -172 -259 -172q-48 0 -90 5.5t-66 11.5q-5 -30 -5 -74q0 -77 43.5 -111.5t144.5 -34.5h157l-5 -26q-99 -8 -162 -8q-113 0 -166 44.5zM451 291.5q62 29.5 62 107.5
q0 58 -36 83t-111 25q-107 0 -157.5 -57.5t-67.5 -176.5q52 -11 132 -11q116 0 178 29.5zM279 763h28l87 -110l135 110h27l-150 -132h-31z" />
    <glyph glyph-name="Gcircumflex" unicode="&#x11c;" horiz-adv-x="639" 
d="M156 47.5q-44 53.5 -44 170.5q0 64 15 162q27 174 97 267.5t204 93.5q70 0 123.5 -8t104.5 -23l-5 -29q-111 23 -225 23q-115 0 -173.5 -83.5t-84.5 -252.5q-15 -91 -15 -155q0 -95 37.5 -138t121.5 -43q48 0 117.5 16.5t105.5 31.5l41 260h-203l5 30q24 4 69.5 5
t100.5 1q26 0 74 -2l-59 -374h-29v53q-36 -18 -107 -38.5t-126 -20.5q-101 0 -145 53.5zM446 923h31l96 -132h-27l-89 110l-134 -110h-27z" />
    <glyph glyph-name="gcircumflex" unicode="&#x11d;" horiz-adv-x="561" 
d="M59 -231l5 28h158q82 0 141 35t71 106l20 120q-51 -32 -107 -48t-107 -16q-40 0 -74 20t-54.5 59t-20.5 93q0 42 11 113q14 89 44.5 145t86 85t143.5 29q112 0 192 -16l-93 -589q-16 -96 -93.5 -135t-170.5 -35zM349.5 42q46.5 13 108.5 43l64 411l-61 3q-70 4 -104 4
q-97 0 -146.5 -55t-68.5 -175q-10 -67 -10 -102q0 -70 34 -106t87 -36q50 0 96.5 13zM399 763h31l96 -132h-27l-89 110l-134 -110h-27z" />
    <glyph glyph-name="Gbreve" unicode="&#x11e;" horiz-adv-x="639" 
d="M156 47.5q-44 53.5 -44 170.5q0 64 15 162q27 174 97 267.5t204 93.5q70 0 123.5 -8t104.5 -23l-5 -29q-111 23 -225 23q-115 0 -173.5 -83.5t-84.5 -252.5q-15 -91 -15 -155q0 -95 37.5 -138t121.5 -43q48 0 117.5 16.5t105.5 31.5l41 260h-203l5 30q24 4 69.5 5
t100.5 1q26 0 74 -2l-59 -374h-29v53q-36 -18 -107 -38.5t-126 -20.5q-101 0 -145 53.5zM365 816q-30 24 -30 78q0 10 2 34h22q-2 -22 -2 -29q0 -43 23.5 -64.5t62.5 -21.5q48 0 82.5 27.5t44.5 87.5h21q-12 -74 -52.5 -105t-96.5 -31q-47 0 -77 24z" />
    <glyph glyph-name="gbreve" unicode="&#x11f;" horiz-adv-x="561" 
d="M59 -231l5 28h158q82 0 141 35t71 106l20 120q-51 -32 -107 -48t-107 -16q-40 0 -74 20t-54.5 59t-20.5 93q0 42 11 113q14 89 44.5 145t86 85t143.5 29q112 0 192 -16l-93 -589q-16 -96 -93.5 -135t-170.5 -35zM349.5 42q46.5 13 108.5 43l64 411l-61 3q-70 4 -104 4
q-97 0 -146.5 -55t-68.5 -175q-10 -67 -10 -102q0 -70 34 -106t87 -36q50 0 96.5 13zM309 656q-30 24 -30 78q0 10 2 34h22q-2 -22 -2 -29q0 -43 23.5 -64.5t62.5 -21.5q48 0 82.5 27.5t44.5 87.5h21q-12 -74 -52.5 -105t-96.5 -31q-47 0 -77 24z" />
    <glyph glyph-name="Gdotaccent" unicode="&#x120;" horiz-adv-x="639" 
d="M156 47.5q-44 53.5 -44 170.5q0 64 15 162q27 174 97 267.5t204 93.5q70 0 123.5 -8t104.5 -23l-5 -29q-111 23 -225 23q-115 0 -173.5 -83.5t-84.5 -252.5q-15 -91 -15 -155q0 -95 37.5 -138t121.5 -43q48 0 117.5 16.5t105.5 31.5l41 260h-203l5 30q24 4 69.5 5
t100.5 1q26 0 74 -2l-59 -374h-29v53q-36 -18 -107 -38.5t-126 -20.5q-101 0 -145 53.5zM432 832q-3 3 -3 8v2l11 67q1 13 15 13h19q11 0 11 -10v-3l-11 -67q-1 -6 -5 -9.5t-10 -3.5h-19q-5 0 -8 3z" />
    <glyph glyph-name="gdotaccent" unicode="&#x121;" horiz-adv-x="561" 
d="M59 -231l5 28h158q82 0 141 35t71 106l20 120q-51 -32 -107 -48t-107 -16q-40 0 -74 20t-54.5 59t-20.5 93q0 42 11 113q14 89 44.5 145t86 85t143.5 29q112 0 192 -16l-93 -589q-16 -96 -93.5 -135t-170.5 -35zM349.5 42q46.5 13 108.5 43l64 411l-61 3q-70 4 -104 4
q-97 0 -146.5 -55t-68.5 -175q-10 -67 -10 -102q0 -70 34 -106t87 -36q50 0 96.5 13zM370 672q-3 3 -3 8v2l11 67q1 13 15 13h19q11 0 11 -10v-3l-11 -67q-1 -6 -5 -9.5t-10 -3.5h-19q-5 0 -8 3z" />
    <glyph glyph-name="Gcommaaccent" unicode="&#x122;" horiz-adv-x="639" 
d="M156 47.5q-44 53.5 -44 170.5q0 64 15 162q27 174 97 267.5t204 93.5q70 0 123.5 -8t104.5 -23l-5 -29q-111 23 -225 23q-115 0 -173.5 -83.5t-84.5 -252.5q-15 -91 -15 -155q0 -95 37.5 -138t121.5 -43q48 0 117.5 16.5t105.5 31.5l41 260h-203l5 30q24 4 69.5 5
t100.5 1q26 0 74 -2l-59 -374h-29v53q-36 -18 -107 -38.5t-126 -20.5q-101 0 -145 53.5zM221 -178l31 4q30 4 47.5 12t30 32.5t19.5 72.5h27q-8 -53 -21.5 -82t-38 -42t-68.5 -13h-30z" />
    <glyph glyph-name="gcommaaccent" unicode="&#x123;" horiz-adv-x="561" 
d="M59 -231l5 28h158q82 0 141 35t71 106l20 120q-51 -32 -107 -48t-107 -16q-40 0 -74 20t-54.5 59t-20.5 93q0 42 11 113q14 89 44.5 145t86 85t143.5 29q112 0 192 -16l-93 -589q-16 -96 -93.5 -135t-170.5 -35zM349.5 42q46.5 13 108.5 43l64 411l-61 3q-70 4 -104 4
q-97 0 -146.5 -55t-68.5 -175q-10 -67 -10 -102q0 -70 34 -106t87 -36q50 0 96.5 13zM352.5 693q13.5 29 38.5 42.5t68 13.5h31l-4 -17l-31 -4q-30 -3 -47.5 -11t-30 -32t-19.5 -73h-27q8 52 21.5 81z" />
    <glyph glyph-name="Hcircumflex" unicode="&#x124;" horiz-adv-x="652" 
d="M194 733h41l-57 -359h416l57 359h41l-116 -733h-41l53 337h-416l-53 -337h-41zM451 923h31l96 -132h-27l-89 110l-134 -110h-27z" />
    <glyph glyph-name="hcircumflex" unicode="&#x125;" horiz-adv-x="568" 
d="M197 763h41l-46 -292q109 70 225 70q67 0 101.5 -33t34.5 -96q0 -21 -3 -45l-59 -367h-41l57 359q3 15 3 42q0 54 -28 78t-83 24q-58 0 -105 -14.5t-106 -47.5l-71 -441h-41zM315 963h31l96 -132h-27l-89 110l-134 -110h-27z" />
    <glyph glyph-name="Hbar" unicode="&#x126;" horiz-adv-x="652" 
d="M732 529h-72l-84 -529h-41l53 337h-416l-53 -337h-41l84 529h-73l4 29h73l28 175h41l-28 -175h416l28 175h41l-28 -175h73zM619 529h-416l-25 -155h416z" />
    <glyph glyph-name="hbar" unicode="&#x127;" horiz-adv-x="568" 
d="M518.5 508q34.5 -33 34.5 -96q0 -21 -3 -45l-59 -367h-41l57 359q3 15 3 42q0 54 -28 78t-83 24q-58 0 -105 -14.5t-106 -47.5l-71 -441h-41l101 637h-77l4 21h76l17 105h41l-17 -105h150l-4 -21h-149l-26 -166q109 70 225 70q67 0 101.5 -33z" />
    <glyph glyph-name="Itilde" unicode="&#x128;" horiz-adv-x="196" 
d="M194 733h41l-116 -733h-41zM114.5 888.5q29.5 22.5 67.5 22.5q20 0 37.5 -8.5t43.5 -26.5q22 -17 38 -25t34 -8q30 0 51 18t27 51h22q-8 -44 -34.5 -69t-69.5 -25q-19 0 -36.5 8.5t-39.5 25.5q-24 17 -41 25.5t-37 8.5q-29 0 -51 -17.5t-27 -51.5h-22q8 49 37.5 71.5z
" />
    <glyph glyph-name="itilde" unicode="&#x129;" horiz-adv-x="194" 
d="M161 532h41l-84 -532h-41zM88.5 728.5q29.5 22.5 67.5 22.5q21 0 38 -8.5t43 -26.5q22 -17 38 -25t34 -8q30 0 51 18t27 51h22q-8 -44 -34.5 -69t-69.5 -25q-19 0 -36.5 8.5t-39.5 25.5q-24 17 -41 25.5t-37 8.5q-29 0 -51 -17.5t-27 -51.5h-22q8 49 37.5 71.5z" />
    <glyph glyph-name="Imacron" unicode="&#x12a;" horiz-adv-x="196" 
d="M194 733h41l-116 -733h-41zM104 870h256l-5 -25h-256z" />
    <glyph glyph-name="imacron" unicode="&#x12b;" horiz-adv-x="194" 
d="M161 532h41l-84 -532h-41zM88 710h256l-5 -25h-256z" />
    <glyph glyph-name="Ibreve" unicode="&#x12c;" horiz-adv-x="196" 
d="M194 733h41l-116 -733h-41zM142 816q-30 24 -30 78q0 10 2 34h22q-2 -22 -2 -29q0 -43 23.5 -64.5t62.5 -21.5q48 0 82.5 27.5t44.5 87.5h21q-12 -74 -52.5 -105t-96.5 -31q-47 0 -77 24z" />
    <glyph glyph-name="ibreve" unicode="&#x12d;" horiz-adv-x="194" 
d="M161 532h41l-84 -532h-41zM126 656q-30 24 -30 78q0 10 2 34h22q-2 -22 -2 -29q0 -43 23.5 -64.5t62.5 -21.5q48 0 82.5 27.5t44.5 87.5h21q-12 -74 -52.5 -105t-96.5 -31q-47 0 -77 24z" />
    <glyph glyph-name="Iogonek" unicode="&#x12e;" horiz-adv-x="196" 
d="M194 733h41l-116 -733h-41zM30 -163.5q-25 19.5 -25 53.5q0 28 23.5 58.5t72.5 51.5h18q-41 -20 -64 -49t-23 -52q0 -28 22 -43.5t64 -15.5h6l-4 -22q-8 -1 -23 -1q-42 0 -67 19.5z" />
    <glyph glyph-name="iogonek" unicode="&#x12f;" horiz-adv-x="194" 
d="M176.5 640.5q-3.5 3.5 -2.5 9.5l11 67q2 13 16 13h25q6 0 8.5 -3.5t1.5 -9.5l-11 -67q-1 -13 -14 -13h-26q-5 0 -8.5 3.5zM161 532h41l-84 -532h-41zM29 -163.5q-25 19.5 -25 53.5q0 28 23.5 58.5t72.5 51.5h18q-41 -20 -64 -49t-23 -52q0 -28 22 -43.5t64 -15.5h6
l-4 -22q-8 -1 -23 -1q-42 0 -67 19.5z" />
    <glyph glyph-name="Idotaccent" unicode="&#x130;" horiz-adv-x="196" 
d="M194 733h41l-116 -733h-41zM209 832q-3 3 -3 8v2l11 67q1 13 15 13h19q11 0 11 -10v-3l-11 -67q-1 -6 -5 -9.5t-10 -3.5h-19q-5 0 -8 3z" />
    <glyph glyph-name="dotlessi" unicode="&#x131;" horiz-adv-x="194" 
d="M161 532h41l-84 -532h-41z" />
    <glyph glyph-name="Jcircumflex" unicode="&#x134;" horiz-adv-x="329" 
d="M75.5 1q-26.5 7 -44.5 18l6 30q41 -17 93 -17q111 0 134 140l90 561h41l-90 -566q-15 -89 -57 -131t-115 -42q-31 0 -57.5 7zM385 923h31l96 -132h-27l-89 110l-134 -110h-27z" />
    <glyph glyph-name="jcircumflex" unicode="&#x135;" horiz-adv-x="194" 
d="M161 532h41l-85 -536q-23 -134 -50 -233h-28zM216 763h31l96 -132h-27l-89 110l-134 -110h-27z" />
    <glyph glyph-name="Kcommaaccent" unicode="&#x136;" horiz-adv-x="572" 
d="M194 733h41l-55 -347h147l273 347h45l-286 -366l182 -367h-44l-173 349h-151l-54 -349h-41zM177 -178l31 4q30 4 47.5 12t30 32.5t19.5 72.5h27q-8 -53 -21.5 -82t-38 -42t-68.5 -13h-30z" />
    <glyph glyph-name="kcommaaccent" unicode="&#x137;" horiz-adv-x="506" 
d="M197 763h41l-72 -459q107 2 181 54.5t110 173.5h41q-52 -178 -190 -236l164 -296h-45l-157 284q-25 -6 -56 -10t-53 -4l-44 -270h-41zM148 -178l31 4q30 4 47.5 12t30 32.5t19.5 72.5h27q-8 -53 -21.5 -82t-38 -42t-68.5 -13h-30z" />
    <glyph glyph-name="kgreenlandic" unicode="&#x138;" horiz-adv-x="506" 
d="M160 532h41l-38 -246q108 2 181.5 59t112.5 187h41q-31 -105 -80 -164.5t-113 -89.5l167 -278h-45l-160 266q-24 -7 -54.5 -10.5t-55.5 -3.5l-40 -252h-41z" />
    <glyph glyph-name="Lacute" unicode="&#x139;" horiz-adv-x="519" 
d="M126 21.5q-30 21.5 -30 75.5q0 18 3 36l95 600h41l-95 -597q-3 -16 -3 -33q0 -38 22.5 -52t61.5 -14h279l-5 -37h-281q-58 0 -88 21.5zM341 925h40l-151 -134h-25z" />
    <glyph glyph-name="lacute" unicode="&#x13a;" horiz-adv-x="276" 
d="M123 25.5q-27 25.5 -27 73.5q0 29 9 81l92 583h41l-91 -576q-1 -5 -5 -30.5t-4 -50.5q0 -36 16.5 -52t48.5 -20l59 -5l-5 -29h-56q-51 0 -78 25.5zM354 965h40l-151 -134h-25z" />
    <glyph glyph-name="Lcommaaccent" unicode="&#x13b;" horiz-adv-x="519" 
d="M126 21.5q-30 21.5 -30 75.5q0 18 3 36l95 600h41l-95 -597q-3 -16 -3 -33q0 -38 22.5 -52t61.5 -14h279l-5 -37h-281q-58 0 -88 21.5zM180 -178l31 4q30 4 47.5 12t30 32.5t19.5 72.5h27q-8 -53 -21.5 -82t-38 -42t-68.5 -13h-30z" />
    <glyph glyph-name="lcommaaccent" unicode="&#x13c;" horiz-adv-x="276" 
d="M123 25.5q-27 25.5 -27 73.5q0 29 9 81l92 583h41l-91 -576q-1 -5 -5 -30.5t-4 -50.5q0 -36 16.5 -52t48.5 -20l59 -5l-5 -29h-56q-51 0 -78 25.5zM72 -178l31 4q30 4 47.5 12t30 32.5t19.5 72.5h27q-8 -53 -21.5 -82t-38 -42t-68.5 -13h-30z" />
    <glyph glyph-name="Lcaron" unicode="&#x13d;" horiz-adv-x="519" 
d="M126 21.5q-30 21.5 -30 75.5q0 18 3 36l95 600h41l-95 -597q-3 -16 -3 -33q0 -38 22.5 -52t61.5 -14h279l-5 -37h-281q-58 0 -88 21.5zM348 658l10 67h40l-10 -67l-29 -155h-26z" />
    <glyph glyph-name="lcaron" unicode="&#x13e;" horiz-adv-x="276" 
d="M123 25.5q-27 25.5 -27 73.5q0 29 9 81l92 583h41l-91 -576q-1 -5 -5 -30.5t-4 -50.5q0 -36 16.5 -52t48.5 -20l59 -5l-5 -29h-56q-51 0 -78 25.5zM291 723l10 67h40l-10 -67l-29 -155h-26z" />
    <glyph glyph-name="Ldot" unicode="&#x13f;" horiz-adv-x="519" 
d="M126 21.5q-30 21.5 -30 75.5q0 18 3 36l95 600h41l-95 -597q-3 -16 -3 -33q0 -38 22.5 -52t61.5 -14h279l-5 -37h-281q-58 0 -88 21.5zM413 412q-3 4 -2 9l4 23q2 13 15 13h22q13 0 10 -13l-3 -23q-1 -13 -15 -13h-22q-6 0 -9 4z" />
    <glyph glyph-name="ldot" unicode="&#x140;" horiz-adv-x="282" 
d="M123 25.5q-27 25.5 -27 73.5q0 29 9 81l92 583h41l-91 -576q-1 -5 -5 -30.5t-4 -50.5q0 -36 16.5 -52t48.5 -20l59 -5l-5 -29h-56q-51 0 -78 25.5zM298 407q-3 4 -2 9l4 23q2 13 15 13h22q13 0 10 -13l-3 -23q-1 -13 -15 -13h-22q-6 0 -9 4z" />
    <glyph glyph-name="Lslash" unicode="&#x141;" horiz-adv-x="519" 
d="M500 37l-5 -37h-281q-58 0 -88 21.5t-30 75.5q0 18 3 36l35 220l-86 -33l4 29l87 33l55 351h41l-54 -338l150 61l-4 -28l-150 -61l-37 -231q-3 -16 -3 -33q0 -38 22.5 -52t61.5 -14h279z" />
    <glyph glyph-name="lslash" unicode="&#x142;" horiz-adv-x="276" 
d="M147 187q-1 -5 -5 -30.5t-4 -50.5q0 -36 16.5 -52t48.5 -20l59 -5l-5 -29h-56q-51 0 -78 25.5t-27 73.5q0 29 9 81l34 214l-83 -27l4 29l83 26l54 341h41l-51 -326l116 36l-4 -29l-117 -36z" />
    <glyph glyph-name="Nacute" unicode="&#x143;" horiz-adv-x="655" 
d="M194 733h35l319 -663l106 663h41l-116 -733h-36l-319 664l-105 -664h-41zM557 925h40l-151 -134h-25z" />
    <glyph glyph-name="nacute" unicode="&#x144;" horiz-adv-x="568" 
d="M161 532h30l1 -61q49 32 107 51t115 19q73 0 106 -35t33 -93q0 -23 -9 -84l-53 -329h-41l52 328q9 62 9 74q0 101 -112 101q-58 0 -105 -14.5t-106 -47.5l-71 -441h-41zM503 765h40l-151 -134h-25z" />
    <glyph glyph-name="Ncommaaccent" unicode="&#x145;" horiz-adv-x="655" 
d="M194 733h35l319 -663l106 663h41l-116 -733h-36l-319 664l-105 -664h-41zM222 -178l31 4q30 4 47.5 12t30 32.5t19.5 72.5h27q-8 -53 -21.5 -82t-38 -42t-68.5 -13h-30z" />
    <glyph glyph-name="ncommaaccent" unicode="&#x146;" horiz-adv-x="568" 
d="M161 532h30l1 -61q49 32 107 51t115 19q73 0 106 -35t33 -93q0 -23 -9 -84l-53 -329h-41l52 328q9 62 9 74q0 101 -112 101q-58 0 -105 -14.5t-106 -47.5l-71 -441h-41zM175 -178l31 4q30 4 47.5 12t30 32.5t19.5 72.5h27q-8 -53 -21.5 -82t-38 -42t-68.5 -13h-30z" />
    <glyph glyph-name="Ncaron" unicode="&#x147;" horiz-adv-x="655" 
d="M194 733h35l319 -663l106 663h41l-116 -733h-36l-319 664l-105 -664h-41zM348 923h28l87 -110l135 110h27l-150 -132h-31z" />
    <glyph glyph-name="ncaron" unicode="&#x148;" horiz-adv-x="568" 
d="M161 532h30l1 -61q49 32 107 51t115 19q73 0 106 -35t33 -93q0 -23 -9 -84l-53 -329h-41l52 328q9 62 9 74q0 101 -112 101q-58 0 -105 -14.5t-106 -47.5l-71 -441h-41zM284 763h28l87 -110l135 110h27l-150 -132h-31z" />
    <glyph glyph-name="Eng" unicode="&#x14a;" horiz-adv-x="655" 
d="M579 0l-15 -87q-14 -86 -61 -121t-133 -35q-26 0 -55.5 7t-49.5 17l4 30q62 -17 103 -17q65 0 102.5 25.5t49.5 96.5l15 92l-315 656l-105 -664h-41l116 733h35l319 -663l106 663h41z" />
    <glyph glyph-name="eng" unicode="&#x14b;" horiz-adv-x="568" 
d="M544 329l-47 -289h1l-7 -45q-14 -88 -59.5 -147.5t-116.5 -84.5h-35q74 36 115.5 91.5t54.5 140.5l1 5h-1l52 328q9 62 9 74q0 101 -112 101q-58 0 -105 -14.5t-106 -47.5l-71 -441h-41l85 532h30l1 -61q49 32 107 51t115 19q73 0 106 -35t33 -93q0 -23 -9 -84z" />
    <glyph glyph-name="Omacron" unicode="&#x14c;" horiz-adv-x="681" 
d="M210 11q-49 17 -75 62.5t-26 129.5q0 71 16 168q24 149 65 228t104 109.5t164 30.5q75 0 124.5 -19t76.5 -67t27 -132q0 -72 -16 -169q-23 -147 -65 -224.5t-105.5 -105.5t-162.5 -28q-78 0 -127 17zM486 56.5q52 25.5 86.5 96t56.5 208.5q15 87 15 161q0 73 -22 112
t-63.5 53.5t-107.5 14.5q-86 0 -139 -26.5t-88.5 -100t-57.5 -213.5q-16 -102 -16 -158q0 -71 20.5 -108.5t62 -51t113.5 -13.5q88 0 140 25.5zM350 870h256l-5 -25h-256z" />
    <glyph glyph-name="omacron" unicode="&#x14d;" horiz-adv-x="562" 
d="M140.5 35.5q-49.5 41.5 -49.5 136.5q0 41 8 95q17 106 48.5 164.5t83.5 82.5t135 24q100 0 144.5 -45t44.5 -138q0 -28 -10 -106q-16 -98 -46.5 -153t-82.5 -78.5t-136 -23.5q-90 0 -139.5 41.5zM394 47q41 18 68 67.5t42 143.5q9 57 9 98q0 80 -35 113.5t-119 33.5
q-69 0 -110.5 -20t-67 -72.5t-41.5 -152.5q-8 -53 -8 -86q0 -82 39.5 -112.5t115.5 -30.5q66 0 107 18zM265 710h256l-5 -25h-256z" />
    <glyph glyph-name="Obreve" unicode="&#x14e;" horiz-adv-x="681" 
d="M210 11q-49 17 -75 62.5t-26 129.5q0 71 16 168q24 149 65 228t104 109.5t164 30.5q75 0 124.5 -19t76.5 -67t27 -132q0 -72 -16 -169q-23 -147 -65 -224.5t-105.5 -105.5t-162.5 -28q-78 0 -127 17zM486 56.5q52 25.5 86.5 96t56.5 208.5q15 87 15 161q0 73 -22 112
t-63.5 53.5t-107.5 14.5q-86 0 -139 -26.5t-88.5 -100t-57.5 -213.5q-16 -102 -16 -158q0 -71 20.5 -108.5t62 -51t113.5 -13.5q88 0 140 25.5zM388 816q-30 24 -30 78q0 10 2 34h22q-2 -22 -2 -29q0 -43 23.5 -64.5t62.5 -21.5q48 0 82.5 27.5t44.5 87.5h21
q-12 -74 -52.5 -105t-96.5 -31q-47 0 -77 24z" />
    <glyph glyph-name="obreve" unicode="&#x14f;" horiz-adv-x="562" 
d="M140.5 35.5q-49.5 41.5 -49.5 136.5q0 41 8 95q17 106 48.5 164.5t83.5 82.5t135 24q100 0 144.5 -45t44.5 -138q0 -28 -10 -106q-16 -98 -46.5 -153t-82.5 -78.5t-136 -23.5q-90 0 -139.5 41.5zM394 47q41 18 68 67.5t42 143.5q9 57 9 98q0 80 -35 113.5t-119 33.5
q-69 0 -110.5 -20t-67 -72.5t-41.5 -152.5q-8 -53 -8 -86q0 -82 39.5 -112.5t115.5 -30.5q66 0 107 18zM303 656q-30 24 -30 78q0 10 2 34h22q-2 -22 -2 -29q0 -43 23.5 -64.5t62.5 -21.5q48 0 82.5 27.5t44.5 87.5h21q-12 -74 -52.5 -105t-96.5 -31q-47 0 -77 24z" />
    <glyph glyph-name="Ohungarumlaut" unicode="&#x150;" horiz-adv-x="681" 
d="M210 11q-49 17 -75 62.5t-26 129.5q0 71 16 168q24 149 65 228t104 109.5t164 30.5q75 0 124.5 -19t76.5 -67t27 -132q0 -72 -16 -169q-23 -147 -65 -224.5t-105.5 -105.5t-162.5 -28q-78 0 -127 17zM486 56.5q52 25.5 86.5 96t56.5 208.5q15 87 15 161q0 73 -22 112
t-63.5 53.5t-107.5 14.5q-86 0 -139 -26.5t-88.5 -100t-57.5 -213.5q-16 -102 -16 -158q0 -71 20.5 -108.5t62 -51t113.5 -13.5q88 0 140 25.5zM498 925h38l-150 -134h-24zM641 925h38l-150 -134h-24z" />
    <glyph glyph-name="ohungarumlaut" unicode="&#x151;" horiz-adv-x="562" 
d="M140.5 35.5q-49.5 41.5 -49.5 136.5q0 41 8 95q17 106 48.5 164.5t83.5 82.5t135 24q100 0 144.5 -45t44.5 -138q0 -28 -10 -106q-16 -98 -46.5 -153t-82.5 -78.5t-136 -23.5q-90 0 -139.5 41.5zM394 47q41 18 68 67.5t42 143.5q9 57 9 98q0 80 -35 113.5t-119 33.5
q-69 0 -110.5 -20t-67 -72.5t-41.5 -152.5q-8 -53 -8 -86q0 -82 39.5 -112.5t115.5 -30.5q66 0 107 18zM413 765h38l-150 -134h-24zM556 765h38l-150 -134h-24z" />
    <glyph glyph-name="OE" unicode="&#x152;" horiz-adv-x="1065" 
d="M745.5 671.5q-28.5 -23.5 -37.5 -78.5l-33 -209l348 -7l-5 -30l-349 -2l-33 -211q-2 -11 -2 -29q0 -42 23.5 -57.5t69.5 -15.5h284l-5 -31q-96 -3 -290 -7q-55 -1 -91 23.5t-34 87.5q-41 -63 -101 -87t-153 -24q-78 0 -127 17t-75 62.5t-26 129.5q0 71 16 168
q24 149 65 228t104 109.5t164 30.5q88 0 141 -26t74 -92q15 60 54 86t91 26q60 0 135 -2t105 -3l62 -2l-6 -31h-292q-48 0 -76.5 -23.5zM486 56.5q52 25.5 86.5 96t56.5 208.5q15 87 15 161q0 73 -22 112t-63.5 53.5t-107.5 14.5q-86 0 -139 -26.5t-88.5 -100t-57.5 -213.5
q-16 -102 -16 -158q0 -71 20.5 -108.5t62 -51t113.5 -13.5q88 0 140 25.5z" />
    <glyph glyph-name="oe" unicode="&#x153;" horiz-adv-x="955" 
d="M140.5 35.5q-49.5 41.5 -49.5 136.5q0 41 8 95q17 106 49.5 164.5t84 82.5t132.5 24q86 0 127.5 -37.5t51.5 -109.5q29 76 85.5 113t148.5 37q89 0 135.5 -32.5t46.5 -105.5q0 -172 -259 -172q-47 0 -89 5t-67 12q-5 -30 -5 -74q0 -77 44 -111.5t145 -34.5h156l-4 -26
q-99 -8 -159 -8q-100 0 -152 38t-60 114q-33 -79 -85 -115.5t-146 -36.5q-89 0 -138.5 41.5zM859 291.5q62 29.5 62 107.5q0 58 -36 83t-111 25q-108 0 -158.5 -58t-67.5 -176q53 -11 133 -11q116 0 178 29.5zM390.5 47q41.5 18 70 68t43.5 143q9 57 9 98q0 79 -35.5 113
t-118.5 34q-69 0 -110.5 -20t-67 -72.5t-41.5 -152.5q-8 -53 -8 -86q0 -80 40.5 -111.5t114.5 -31.5q62 0 103.5 18z" />
    <glyph glyph-name="Racute" unicode="&#x154;" horiz-adv-x="608" 
d="M194 733h259q69 0 117 -35t48 -126q0 -22 -5 -57q-17 -107 -66 -147t-110 -46l106 -322h-41l-105 318h-23q-37 1 -105.5 2.5t-99.5 3.5l-50 -324h-41zM400 353q67 0 111.5 34.5t59.5 131.5q4 24 4 49q0 128 -129 128h-218l-53 -343h225zM500 925h40l-151 -134h-25z" />
    <glyph glyph-name="racute" unicode="&#x155;" horiz-adv-x="382" 
d="M161 532h31v-63q84 69 172 69q48 0 73 -8l-7 -41q-29 7 -73 7q-45 0 -86.5 -15.5t-83.5 -41.5l-69 -439h-41zM413 765h40l-151 -134h-25z" />
    <glyph glyph-name="Rcommaaccent" unicode="&#x156;" horiz-adv-x="608" 
d="M194 733h259q69 0 117 -35t48 -126q0 -22 -5 -57q-17 -107 -66 -147t-110 -46l106 -322h-41l-105 318h-23q-37 1 -105.5 2.5t-99.5 3.5l-50 -324h-41zM400 353q67 0 111.5 34.5t59.5 131.5q4 24 4 49q0 128 -129 128h-218l-53 -343h225zM183 -178l31 4q30 4 47.5 12
t30 32.5t19.5 72.5h27q-8 -53 -21.5 -82t-38 -42t-68.5 -13h-30z" />
    <glyph glyph-name="rcommaaccent" unicode="&#x157;" horiz-adv-x="382" 
d="M161 532h31v-63q84 69 172 69q48 0 73 -8l-7 -41q-29 7 -73 7q-45 0 -86.5 -15.5t-83.5 -41.5l-69 -439h-41zM-9 -178l31 4q30 4 47.5 12t30 32.5t19.5 72.5h27q-8 -53 -21.5 -82t-38 -42t-68.5 -13h-30z" />
    <glyph glyph-name="Rcaron" unicode="&#x158;" horiz-adv-x="608" 
d="M194 733h259q69 0 117 -35t48 -126q0 -22 -5 -57q-17 -107 -66 -147t-110 -46l106 -322h-41l-105 318h-23q-37 1 -105.5 2.5t-99.5 3.5l-50 -324h-41zM400 353q67 0 111.5 34.5t59.5 131.5q4 24 4 49q0 128 -129 128h-218l-53 -343h225zM291 923h28l87 -110l135 110h27
l-150 -132h-31z" />
    <glyph glyph-name="rcaron" unicode="&#x159;" horiz-adv-x="382" 
d="M161 532h31v-63q84 69 172 69q48 0 73 -8l-7 -41q-29 7 -73 7q-45 0 -86.5 -15.5t-83.5 -41.5l-69 -439h-41zM194 763h28l87 -110l135 110h27l-150 -132h-31z" />
    <glyph glyph-name="Sacute" unicode="&#x15a;" horiz-adv-x="566" 
d="M179.5 -2q-63.5 4 -102.5 10l4 30q76 -7 221 -7q87 0 136 28t60 105l10 60q2 26 2 35q0 47 -27.5 68.5t-88.5 21.5h-104q-70 0 -105 27t-35 87q0 17 3 38l10 65q15 100 69 136.5t151 36.5q35 0 105 -5.5t106 -11.5l-4 -30q-128 8 -208 8q-56 0 -91.5 -11t-58 -40.5
t-30.5 -84.5l-9 -60q-3 -19 -3 -35q0 -45 25 -62.5t81 -17.5h107q148 0 148 -122q0 -19 -3 -40l-10 -67q-15 -94 -76 -130t-164 -36q-55 0 -118.5 4zM516 925h40l-151 -134h-25z" />
    <glyph glyph-name="sacute" unicode="&#x15b;" horiz-adv-x="503" 
d="M158.5 -3.5q-70.5 2.5 -93.5 6.5l4 25h215q62 0 97.5 20.5t43.5 68.5l8 46q1 6 1 16q0 34 -21 50.5t-63 16.5h-108q-67 0 -98.5 19.5t-31.5 61.5q0 21 4 41l8 45q10 61 50.5 93t123.5 32q40 0 102 -2.5t96 -6.5l-5 -25h-200q-61 0 -91 -22t-38 -70l-7 -42q-4 -25 -4 -38
q0 -27 22.5 -38t73.5 -11h109q53 0 85.5 -26t32.5 -73q0 -7 -2 -25l-8 -49q-10 -61 -58 -88.5t-130 -27.5q-47 0 -117.5 2.5zM462 765h40l-151 -134h-25z" />
    <glyph glyph-name="Scircumflex" unicode="&#x15c;" horiz-adv-x="566" 
d="M179.5 -2q-63.5 4 -102.5 10l4 30q76 -7 221 -7q87 0 136 28t60 105l10 60q2 26 2 35q0 47 -27.5 68.5t-88.5 21.5h-104q-70 0 -105 27t-35 87q0 17 3 38l10 65q15 100 69 136.5t151 36.5q35 0 105 -5.5t106 -11.5l-4 -30q-128 8 -208 8q-56 0 -91.5 -11t-58 -40.5
t-30.5 -84.5l-9 -60q-3 -19 -3 -35q0 -45 25 -62.5t81 -17.5h107q148 0 148 -122q0 -19 -3 -40l-10 -67q-15 -94 -76 -130t-164 -36q-55 0 -118.5 4zM406 923h31l96 -132h-27l-89 110l-134 -110h-27z" />
    <glyph glyph-name="scircumflex" unicode="&#x15d;" horiz-adv-x="503" 
d="M158.5 -3.5q-70.5 2.5 -93.5 6.5l4 25h215q62 0 97.5 20.5t43.5 68.5l8 46q1 6 1 16q0 34 -21 50.5t-63 16.5h-108q-67 0 -98.5 19.5t-31.5 61.5q0 21 4 41l8 45q10 61 50.5 93t123.5 32q40 0 102 -2.5t96 -6.5l-5 -25h-200q-61 0 -91 -22t-38 -70l-7 -42q-4 -25 -4 -38
q0 -27 22.5 -38t73.5 -11h109q53 0 85.5 -26t32.5 -73q0 -7 -2 -25l-8 -49q-10 -61 -58 -88.5t-130 -27.5q-47 0 -117.5 2.5zM361 763h31l96 -132h-27l-89 110l-134 -110h-27z" />
    <glyph glyph-name="Scedilla" unicode="&#x15e;" horiz-adv-x="566" 
d="M193 504q-3 -19 -3 -35q0 -45 25 -62.5t81 -17.5h107q148 0 148 -122q0 -19 -3 -40l-10 -67q-15 -94 -76 -130t-164 -36h-11l-51 -60q36 -1 52 -13.5t16 -35.5q0 -17 -12 -35.5t-35.5 -31t-54.5 -12.5h-24l3 17l25 2q33 3 52.5 23t19.5 37q0 18 -15.5 28t-55.5 11l59 70
q-132 4 -189 14l4 30q76 -7 221 -7q87 0 136 28t60 105l10 60q2 26 2 35q0 47 -27.5 68.5t-88.5 21.5h-104q-70 0 -105 27t-35 87q0 17 3 38l10 65q15 100 69 136.5t151 36.5q35 0 105 -5.5t106 -11.5l-4 -30q-128 8 -208 8q-56 0 -91.5 -11t-58 -40.5t-30.5 -84.5z" />
    <glyph glyph-name="scedilla" unicode="&#x15f;" horiz-adv-x="503" 
d="M155 370q-4 -25 -4 -38q0 -27 22.5 -38t73.5 -11h109q53 0 85.5 -26t32.5 -73q0 -7 -2 -25l-8 -49q-10 -61 -58 -88.5t-130 -27.5h-25l-51 -60q36 -1 52 -13.5t16 -35.5q0 -17 -12 -35.5t-35.5 -31t-54.5 -12.5h-24l3 17l25 2q33 3 52.5 23t19.5 37q0 18 -15.5 28
t-55.5 11l59 71q-134 2 -165 8l4 25h215q62 0 97.5 20.5t43.5 68.5l8 46q1 6 1 16q0 34 -21 50.5t-63 16.5h-108q-67 0 -98.5 19.5t-31.5 61.5q0 21 4 41l8 45q10 61 50.5 93t123.5 32q40 0 102 -2.5t96 -6.5l-5 -25h-200q-61 0 -91 -22t-38 -70z" />
    <glyph glyph-name="Scaron" unicode="&#x160;" horiz-adv-x="566" 
d="M179.5 -2q-63.5 4 -102.5 10l4 30q76 -7 221 -7q87 0 136 28t60 105l10 60q2 26 2 35q0 47 -27.5 68.5t-88.5 21.5h-104q-70 0 -105 27t-35 87q0 17 3 38l10 65q15 100 69 136.5t151 36.5q35 0 105 -5.5t106 -11.5l-4 -30q-128 8 -208 8q-56 0 -91.5 -11t-58 -40.5
t-30.5 -84.5l-9 -60q-3 -19 -3 -35q0 -45 25 -62.5t81 -17.5h107q148 0 148 -122q0 -19 -3 -40l-10 -67q-15 -94 -76 -130t-164 -36q-55 0 -118.5 4zM307 923h28l87 -110l135 110h27l-150 -132h-31z" />
    <glyph glyph-name="scaron" unicode="&#x161;" horiz-adv-x="503" 
d="M158.5 -3.5q-70.5 2.5 -93.5 6.5l4 25h215q62 0 97.5 20.5t43.5 68.5l8 46q1 6 1 16q0 34 -21 50.5t-63 16.5h-108q-67 0 -98.5 19.5t-31.5 61.5q0 21 4 41l8 45q10 61 50.5 93t123.5 32q40 0 102 -2.5t96 -6.5l-5 -25h-200q-61 0 -91 -22t-38 -70l-7 -42q-4 -25 -4 -38
q0 -27 22.5 -38t73.5 -11h109q53 0 85.5 -26t32.5 -73q0 -7 -2 -25l-8 -49q-10 -61 -58 -88.5t-130 -27.5q-47 0 -117.5 2.5zM243 763h28l87 -110l135 110h27l-150 -132h-31z" />
    <glyph glyph-name="uni0162" unicode="&#x162;" horiz-adv-x="603" 
d="M680 733l-6 -37h-247l-110 -696h-14l-56 -66q36 -1 52 -13.5t16 -35.5q0 -17 -12 -35.5t-35.5 -31t-54.5 -12.5h-24l3 17l25 2q33 3 52.5 23t19.5 37q0 18 -15.5 28t-55.5 11l63 76h-5l110 696h-247l6 37h535z" />
    <glyph glyph-name="uni0163" unicode="&#x163;" horiz-adv-x="372" 
d="M191 192q-1 -9 -4.5 -34t-3.5 -43q0 -38 18.5 -57t58.5 -23l66 -6l-5 -29h-60h-7l-56 -66q36 -1 52 -13.5t16 -35.5q0 -17 -12 -35.5t-35.5 -31t-54.5 -12.5h-24l3 17l25 2q33 3 52.5 23t19.5 37q0 18 -15.5 28t-55.5 11l65 78q-46 6 -69.5 33.5t-23.5 73.5q0 29 10 83
l50 305h-85l3 26l86 9l34 149h30l-24 -149h168l-5 -35h-168z" />
    <glyph glyph-name="Tcaron" unicode="&#x164;" horiz-adv-x="603" 
d="M386 696h-247l6 37h535l-6 -37h-247l-110 -696h-41zM318 923h28l87 -110l135 110h27l-150 -132h-31z" />
    <glyph glyph-name="tcaron" unicode="&#x165;" horiz-adv-x="372" 
d="M171.5 28.5q-30.5 28.5 -30.5 80.5q0 29 10 83l50 305h-85l3 26l86 9l34 149h30l-24 -149h168l-5 -35h-168l-49 -305q-1 -9 -4.5 -34t-3.5 -43q0 -38 18.5 -57t58.5 -23l66 -6l-5 -29h-60q-59 0 -89.5 28.5zM340 741l10 67h40l-10 -67l-29 -155h-26z" />
    <glyph glyph-name="Tbar" unicode="&#x166;" horiz-adv-x="602" 
d="M427 696l-46 -291h196l-4 -29h-197l-59 -376h-41l59 376h-196l4 29h197l46 291h-247l6 37h535l-6 -37h-247z" />
    <glyph glyph-name="tbar" unicode="&#x167;" horiz-adv-x="355" 
d="M240 497l-26 -164h149l-4 -22h-149l-19 -119q-1 -9 -4.5 -34t-3.5 -43q0 -38 18.5 -57t58.5 -23l66 -6l-5 -29h-60q-59 0 -89.5 28.5t-30.5 80.5q0 29 10 83l20 119h-86l4 22h85l27 164h-85l3 26l86 9l34 149h30l-24 -149h168l-5 -35h-168z" />
    <glyph glyph-name="Utilde" unicode="&#x168;" horiz-adv-x="670" 
d="M171 39.5q-54 45.5 -54 150.5q0 61 12 133l65 410h41l-65 -413q-13 -76 -13 -129q0 -88 44 -124t135 -36q78 0 127.5 21t84.5 83.5t54 184.5l66 413h41l-66 -416q-21 -135 -62.5 -205t-99.5 -94t-146 -24q-110 0 -164 45.5zM339.5 888.5q29.5 22.5 67.5 22.5
q20 0 37.5 -8.5t43.5 -26.5q22 -17 38 -25t34 -8q30 0 51 18t27 51h22q-8 -44 -34.5 -69t-69.5 -25q-19 0 -36.5 8.5t-39.5 25.5q-24 17 -41 25.5t-37 8.5q-29 0 -51 -17.5t-27 -51.5h-22q8 49 37.5 71.5z" />
    <glyph glyph-name="utilde" unicode="&#x169;" horiz-adv-x="568" 
d="M134.5 26.5q-35.5 32.5 -35.5 90.5q0 26 4 52l57 363h41l-57 -364q-4 -24 -4 -39q0 -48 27 -73t86 -25q57 0 103.5 14.5t107.5 45.5l70 441h41l-84 -532h-32l1 61q-55 -33 -106.5 -50t-115.5 -17q-68 0 -103.5 32.5zM273.5 728.5q29.5 22.5 67.5 22.5q21 0 38 -8.5
t43 -26.5q22 -17 38 -25t34 -8q30 0 51 18t27 51h22q-8 -44 -34.5 -69t-69.5 -25q-19 0 -36.5 8.5t-39.5 25.5q-24 17 -41 25.5t-37 8.5q-29 0 -51 -17.5t-27 -51.5h-22q8 49 37.5 71.5z" />
    <glyph glyph-name="Umacron" unicode="&#x16a;" horiz-adv-x="670" 
d="M171 39.5q-54 45.5 -54 150.5q0 61 12 133l65 410h41l-65 -413q-13 -76 -13 -129q0 -88 44 -124t135 -36q78 0 127.5 21t84.5 83.5t54 184.5l66 413h41l-66 -416q-21 -135 -62.5 -205t-99.5 -94t-146 -24q-110 0 -164 45.5zM329 870h256l-5 -25h-256z" />
    <glyph glyph-name="umacron" unicode="&#x16b;" horiz-adv-x="568" 
d="M134.5 26.5q-35.5 32.5 -35.5 90.5q0 26 4 52l57 363h41l-57 -364q-4 -24 -4 -39q0 -48 27 -73t86 -25q57 0 103.5 14.5t107.5 45.5l70 441h41l-84 -532h-32l1 61q-55 -33 -106.5 -50t-115.5 -17q-68 0 -103.5 32.5zM273 710h256l-5 -25h-256z" />
    <glyph glyph-name="Ubreve" unicode="&#x16c;" horiz-adv-x="670" 
d="M171 39.5q-54 45.5 -54 150.5q0 61 12 133l65 410h41l-65 -413q-13 -76 -13 -129q0 -88 44 -124t135 -36q78 0 127.5 21t84.5 83.5t54 184.5l66 413h41l-66 -416q-21 -135 -62.5 -205t-99.5 -94t-146 -24q-110 0 -164 45.5zM367 816q-30 24 -30 78q0 10 2 34h22
q-2 -22 -2 -29q0 -43 23.5 -64.5t62.5 -21.5q48 0 82.5 27.5t44.5 87.5h21q-12 -74 -52.5 -105t-96.5 -31q-47 0 -77 24z" />
    <glyph glyph-name="ubreve" unicode="&#x16d;" horiz-adv-x="568" 
d="M134.5 26.5q-35.5 32.5 -35.5 90.5q0 26 4 52l57 363h41l-57 -364q-4 -24 -4 -39q0 -48 27 -73t86 -25q57 0 103.5 14.5t107.5 45.5l70 441h41l-84 -532h-32l1 61q-55 -33 -106.5 -50t-115.5 -17q-68 0 -103.5 32.5zM311 656q-30 24 -30 78q0 10 2 34h22q-2 -22 -2 -29
q0 -43 23.5 -64.5t62.5 -21.5q48 0 82.5 27.5t44.5 87.5h21q-12 -74 -52.5 -105t-96.5 -31q-47 0 -77 24z" />
    <glyph glyph-name="Uring" unicode="&#x16e;" horiz-adv-x="670" 
d="M171 39.5q-54 45.5 -54 150.5q0 61 12 133l65 410h41l-65 -413q-13 -76 -13 -129q0 -88 44 -124t135 -36q78 0 127.5 21t84.5 83.5t54 184.5l66 413h41l-66 -416q-21 -135 -62.5 -205t-99.5 -94t-146 -24q-110 0 -164 45.5zM380.5 798q-25.5 20 -25.5 65q0 51 33 87
t91 36q39 0 64 -20.5t25 -63.5q0 -53 -31.5 -88.5t-88.5 -35.5q-42 0 -67.5 20zM520.5 828q24.5 29 24.5 72q0 35 -19.5 50t-48.5 15q-48 0 -73.5 -29t-25.5 -73q0 -34 20 -49t51 -15q47 0 71.5 29z" />
    <glyph glyph-name="uring" unicode="&#x16f;" horiz-adv-x="568" 
d="M134.5 26.5q-35.5 32.5 -35.5 90.5q0 26 4 52l57 363h41l-57 -364q-4 -24 -4 -39q0 -48 27 -73t86 -25q57 0 103.5 14.5t107.5 45.5l70 441h41l-84 -532h-32l1 61q-55 -33 -106.5 -50t-115.5 -17q-68 0 -103.5 32.5zM324.5 618q-25.5 20 -25.5 65q0 51 33 87t91 36
q39 0 64 -20.5t25 -63.5q0 -53 -31.5 -88.5t-88.5 -35.5q-42 0 -67.5 20zM464.5 648q24.5 29 24.5 72q0 35 -19.5 50t-48.5 15q-48 0 -73.5 -29t-25.5 -73q0 -34 20 -49t51 -15q47 0 71.5 29z" />
    <glyph glyph-name="Uhungarumlaut" unicode="&#x170;" horiz-adv-x="670" 
d="M171 39.5q-54 45.5 -54 150.5q0 61 12 133l65 410h41l-65 -413q-13 -76 -13 -129q0 -88 44 -124t135 -36q78 0 127.5 21t84.5 83.5t54 184.5l66 413h41l-66 -416q-21 -135 -62.5 -205t-99.5 -94t-146 -24q-110 0 -164 45.5zM477 925h38l-150 -134h-24zM620 925h38
l-150 -134h-24z" />
    <glyph glyph-name="uhungarumlaut" unicode="&#x171;" horiz-adv-x="568" 
d="M134.5 26.5q-35.5 32.5 -35.5 90.5q0 26 4 52l57 363h41l-57 -364q-4 -24 -4 -39q0 -48 27 -73t86 -25q57 0 103.5 14.5t107.5 45.5l70 441h41l-84 -532h-32l1 61q-55 -33 -106.5 -50t-115.5 -17q-68 0 -103.5 32.5zM421 765h38l-150 -134h-24zM564 765h38l-150 -134h-24
z" />
    <glyph glyph-name="Uogonek" unicode="&#x172;" horiz-adv-x="670" 
d="M709 733l-66 -416q-17 -110 -48 -176.5t-74 -98.5t-102 -42q-41 -20 -64 -49t-23 -52q0 -28 22 -43.5t64 -15.5h6l-4 -22q-8 -1 -23 -1q-42 0 -67 19.5t-25 53.5q0 27 21.5 56.5t66.5 50.5q-27 -3 -58 -3q-110 0 -164 45.5t-54 150.5q0 61 12 133l65 410h41l-65 -413
q-13 -76 -13 -129q0 -88 44 -124t135 -36q78 0 127.5 21t84.5 83.5t54 184.5l66 413h41z" />
    <glyph glyph-name="uogonek" unicode="&#x173;" horiz-adv-x="568" 
d="M426 -144.5q22 -15.5 64 -15.5h6l-4 -22q-8 -1 -23 -1q-42 0 -67 19.5t-25 53.5q0 28 23.5 58.5t72.5 51.5h-14l1 61q-55 -33 -106.5 -50t-115.5 -17q-68 0 -103.5 32.5t-35.5 90.5q0 26 4 52l57 363h41l-57 -364q-4 -24 -4 -39q0 -48 27 -73t86 -25q57 0 103.5 14.5
t107.5 45.5l70 441h41l-84 -532q-41 -20 -64 -49t-23 -52q0 -28 22 -43.5z" />
    <glyph glyph-name="Wcircumflex" unicode="&#x174;" horiz-adv-x="987" 
d="M158 733h43l102 -681l280 681h48l54 -680l329 680h43l-352 -733h-50l-56 677l-281 -677h-50zM619 923h31l96 -132h-27l-89 110l-134 -110h-27z" />
    <glyph glyph-name="wcircumflex" unicode="&#x175;" horiz-adv-x="805" 
d="M101 532h42l97 -485l206 485h36l86 -487l188 393q9 19 18.5 49t13.5 53h33q0 -27 -9 -60t-23 -63l-204 -417h-45l-83 471l-203 -471h-44zM502 763h31l96 -132h-27l-89 110l-134 -110h-27z" />
    <glyph glyph-name="Ycircumflex" unicode="&#x176;" horiz-adv-x="597" 
d="M309 254l-165 479h46l145 -429l302 429h48l-335 -479l-41 -254h-41zM409 923h31l96 -132h-27l-89 110l-134 -110h-27z" />
    <glyph glyph-name="ycircumflex" unicode="&#x177;" horiz-adv-x="547" 
d="M97 -204q48 12 99 61t95 143q-29 4 -49.5 12.5t-37 32.5t-24.5 70l-78 417h42l74 -408q9 -49 31 -66t59 -20l193 410q25 60 28 92h33q0 -58 -26 -113l-203 -425q-58 -120 -113.5 -174t-122.5 -65v33zM363 763h31l96 -132h-27l-89 110l-134 -110h-27z" />
    <glyph glyph-name="Ydieresis" unicode="&#x178;" horiz-adv-x="597" 
d="M309 254l-165 479h46l145 -429l302 429h48l-335 -479l-41 -254h-41zM269 833l11 69q1 13 16 13h19q11 0 11 -10q0 4 -12 -70q-1 -6 -5.5 -9.5t-9.5 -3.5h-19q-11 0 -11 11zM476 833l11 69q1 13 16 13h19q11 0 11 -10q0 4 -12 -70q-1 -6 -5.5 -9.5t-9.5 -3.5h-19
q-11 0 -11 11z" />
    <glyph glyph-name="Zacute" unicode="&#x179;" horiz-adv-x="555" 
d="M49 36l515 660h-411l7 37h458l-6 -36l-515 -660h420l-5 -37h-468zM497 925h40l-151 -134h-25z" />
    <glyph glyph-name="zacute" unicode="&#x17a;" horiz-adv-x="498" 
d="M67 34l396 463h-337l5 35h384l-5 -34l-397 -462h342q0 -6 -2.5 -18t-3.5 -17h-387zM462 765h40l-151 -134h-25z" />
    <glyph glyph-name="Zdotaccent" unicode="&#x17b;" horiz-adv-x="555" 
d="M49 36l515 660h-411l7 37h458l-6 -36l-515 -660h420l-5 -37h-468zM373 832q-3 3 -3 8v2l11 67q1 13 15 13h19q11 0 11 -10v-3l-11 -67q-1 -6 -5 -9.5t-10 -3.5h-19q-5 0 -8 3z" />
    <glyph glyph-name="zdotaccent" unicode="&#x17c;" horiz-adv-x="498" 
d="M67 34l396 463h-337l5 35h384l-5 -34l-397 -462h342q0 -6 -2.5 -18t-3.5 -17h-387zM332 672q-3 3 -3 8v2l11 67q1 13 15 13h19q11 0 11 -10v-3l-11 -67q-1 -6 -5 -9.5t-10 -3.5h-19q-5 0 -8 3z" />
    <glyph glyph-name="Zcaron" unicode="&#x17d;" horiz-adv-x="555" 
d="M49 36l515 660h-411l7 37h458l-6 -36l-515 -660h420l-5 -37h-468zM288 923h28l87 -110l135 110h27l-150 -132h-31z" />
    <glyph glyph-name="zcaron" unicode="&#x17e;" horiz-adv-x="498" 
d="M67 34l396 463h-337l5 35h384l-5 -34l-397 -462h342q0 -6 -2.5 -18t-3.5 -17h-387zM243 763h28l87 -110l135 110h27l-150 -132h-31z" />
    <glyph glyph-name="uni018F" unicode="&#x18f;" horiz-adv-x="596" 
d="M151.5 41.5q-44.5 47.5 -44.5 155.5q0 58 12 139l7 36h421q16 104 16 159q0 68 -20.5 105t-65 51.5t-121.5 14.5q-66 0 -107 -6t-48 -7l5 29q92 21 175 21q79 0 126.5 -17t72 -61.5t24.5 -126.5q0 -66 -15 -164q-23 -146 -64 -228.5t-97.5 -115t-134.5 -32.5
q-97 0 -141.5 47.5zM406.5 58q44.5 27 77 93t56.5 186h-380q-13 -91 -13 -140q0 -89 35 -127.5t114 -38.5q66 0 110.5 27z" />
    <glyph glyph-name="florin" unicode="&#x192;" 
d="M-6 -196l9 26h71q40 0 70 23t57.5 77.5t58.5 152.5l106 333h-100l10 35h100l36 113q29 91 55.5 140t61 71.5t86.5 22.5q53 0 85 -8l-8 -26h-74q-42 0 -69.5 -19t-49 -61t-46.5 -121l-37 -113h139l-10 -34h-138l-105 -328q-35 -110 -66.5 -172.5t-70 -91t-93.5 -28.5
q-49 0 -78 8z" />
    <glyph glyph-name="Ohorn" unicode="&#x1a0;" horiz-adv-x="681" 
d="M705 740q-37 -32 -85 -32h-13q39 -24 59 -69t20 -118q0 -72 -16 -169q-23 -147 -65 -224.5t-105.5 -105.5t-162.5 -28q-78 0 -127 17t-75 62.5t-26 129.5q0 71 16 168q24 149 65 228t104 109.5t164 30.5q42 0 78 -6h85q81 0 100 115h33q-12 -76 -49 -108zM622 634
q-22 39 -63.5 53.5t-107.5 14.5q-86 0 -139 -26.5t-88.5 -100t-57.5 -213.5q-16 -102 -16 -158q0 -71 20.5 -108.5t62 -51t113.5 -13.5q88 0 140 25.5t86.5 96t56.5 208.5q15 87 15 161q0 73 -22 112z" />
    <glyph glyph-name="ohorn" unicode="&#x1a1;" horiz-adv-x="578" 
d="M596.5 539q-36.5 -32 -84.5 -32h-19q32 -22 47 -59.5t15 -92.5q0 -28 -10 -106q-16 -98 -46.5 -153t-82.5 -78.5t-136 -23.5q-90 0 -139.5 41.5t-49.5 136.5q0 41 8 95q17 106 48.5 164.5t83.5 82.5t135 24q36 0 66 -6h80q83 0 100 115h33q-12 -76 -48.5 -108zM478 469.5
q-35 33.5 -119 33.5q-69 0 -110.5 -20t-67 -72.5t-41.5 -152.5q-8 -53 -8 -86q0 -82 39.5 -112.5t115.5 -30.5q66 0 107 18t68 67.5t42 143.5q9 57 9 98q0 80 -35 113.5z" />
    <glyph glyph-name="Uhorn" unicode="&#x1af;" horiz-adv-x="670" 
d="M783.5 744q-33.5 -33 -78.5 -36l-62 -391q-21 -135 -62.5 -205t-99.5 -94t-146 -24q-110 0 -164 45.5t-54 150.5q0 61 12 133l65 410h41l-65 -413q-13 -76 -13 -129q0 -88 44 -124t135 -36q78 0 127.5 21t84.5 83.5t54 184.5l66 413h27q81 0 100 115h33
q-11 -71 -44.5 -104z" />
    <glyph glyph-name="uhorn" unicode="&#x1b0;" horiz-adv-x="584" 
d="M646 545.5q-32 -32.5 -75 -37.5l-80 -508h-32l1 61q-55 -33 -106.5 -50t-115.5 -17q-68 0 -103.5 32.5t-35.5 90.5q0 26 4 52l57 363h41l-57 -364q-4 -24 -4 -39q0 -48 27 -73t86 -25q57 0 103.5 14.5t107.5 45.5l70 441h21q81 0 100 115h33q-10 -69 -42 -101.5z" />
    <glyph glyph-name="Gcaron" unicode="&#x1e6;" horiz-adv-x="639" 
d="M156 47.5q-44 53.5 -44 170.5q0 64 15 162q27 174 97 267.5t204 93.5q70 0 123.5 -8t104.5 -23l-5 -29q-111 23 -225 23q-115 0 -173.5 -83.5t-84.5 -252.5q-15 -91 -15 -155q0 -95 37.5 -138t121.5 -43q48 0 117.5 16.5t105.5 31.5l41 260h-203l5 30q24 4 69.5 5
t100.5 1q26 0 74 -2l-59 -374h-29v53q-36 -18 -107 -38.5t-126 -20.5q-101 0 -145 53.5zM347 923h28l87 -110l135 110h27l-150 -132h-31z" />
    <glyph glyph-name="gcaron" unicode="&#x1e7;" horiz-adv-x="561" 
d="M59 -231l5 28h158q82 0 141 35t71 106l20 120q-51 -32 -107 -48t-107 -16q-40 0 -74 20t-54.5 59t-20.5 93q0 42 11 113q14 89 44.5 145t86 85t143.5 29q112 0 192 -16l-93 -589q-16 -96 -93.5 -135t-170.5 -35zM349.5 42q46.5 13 108.5 43l64 411l-61 3q-70 4 -104 4
q-97 0 -146.5 -55t-68.5 -175q-10 -67 -10 -102q0 -70 34 -106t87 -36q50 0 96.5 13zM281 763h28l87 -110l135 110h27l-150 -132h-31z" />
    <glyph glyph-name="uni01EA" unicode="&#x1ea;" horiz-adv-x="681" 
d="M582.5 720q49.5 -19 76.5 -67t27 -132q0 -72 -16 -169q-20 -123 -52 -196t-78.5 -109t-114.5 -47q-41 -20 -64 -49t-23 -52q0 -28 22 -43.5t64 -15.5h6l-4 -22q-8 -1 -23 -1q-42 0 -67 19.5t-25 53.5q0 27 21.5 56.5t67.5 50.5q-30 -3 -63 -3q-78 0 -127 17t-75 62.5
t-26 129.5q0 71 16 168q24 149 65 228t104 109.5t164 30.5q75 0 124.5 -19zM644 522q0 73 -22 112t-63.5 53.5t-107.5 14.5q-86 0 -139 -26.5t-88.5 -100t-57.5 -213.5q-16 -102 -16 -158q0 -71 20.5 -108.5t62 -51t113.5 -13.5q88 0 140 25.5t86.5 96t56.5 208.5
q15 87 15 161z" />
    <glyph glyph-name="uni01EB" unicode="&#x1eb;" horiz-adv-x="562" 
d="M510.5 493q44.5 -45 44.5 -138q0 -28 -10 -106q-19 -121 -62 -178t-125 -71q-41 -20 -64 -49t-23 -52q0 -28 22 -43.5t64 -15.5h6l-4 -22q-8 -1 -23 -1q-42 0 -67 19.5t-25 53.5q0 27 21.5 56t66.5 50q-32 -2 -52 -2q-90 0 -139.5 41.5t-49.5 136.5q0 41 8 95
q17 106 48.5 164.5t83.5 82.5t135 24q100 0 144.5 -45zM513 356q0 80 -35 113.5t-119 33.5q-69 0 -110.5 -20t-67 -72.5t-41.5 -152.5q-8 -53 -8 -86q0 -82 39.5 -112.5t115.5 -30.5q66 0 107 18t68 67.5t42 143.5q9 57 9 98z" />
    <glyph glyph-name="Aringacute" unicode="&#x1fa;" horiz-adv-x="665" 
d="M390.5 798q-25.5 20 -25.5 65q0 51 32.5 86.5t89.5 36.5l119 117h40l-134 -119q30 -6 48 -26t18 -56q0 -53 -31.5 -88.5t-88.5 -35.5q-42 0 -67.5 20zM413.5 936q-25.5 -29 -25.5 -73q0 -34 20 -49t51 -15q47 0 71.5 29t24.5 72q0 35 -19.5 50t-48.5 15q-48 0 -73.5 -29z
M482 733l141 -733h-42l-47 240h-322l-128 -240h-42l385 733h55zM528 278l-80 415l-218 -415h298z" />
    <glyph glyph-name="aringacute" unicode="&#x1fb;" horiz-adv-x="561" 
d="M134 38q-45 44 -45 134q0 33 11 99q21 140 83.5 203.5t185.5 63.5q53 0 106.5 -14t84.5 -43l-76 -481h-31v58q-30 -20 -90 -42t-110 -22q-74 0 -119 44zM355.5 43q42.5 14 101.5 42l60 382q-23 14 -63 25t-88 11q-74 0 -119 -25t-69.5 -76.5t-38.5 -140.5q-9 -55 -9 -84
q0 -74 35.5 -111t96.5 -37q51 0 93.5 14zM322.5 618q-25.5 20 -25.5 65q0 51 33 87t91 36q39 0 64 -20.5t25 -63.5q0 -53 -31.5 -88.5t-88.5 -35.5q-42 0 -67.5 20zM462.5 648q24.5 29 24.5 72q0 35 -19.5 50t-48.5 15q-48 0 -73.5 -29t-25.5 -73q0 -34 20 -49t51 -15
q47 0 71.5 29zM547 965h40l-151 -134h-25z" />
    <glyph glyph-name="AEacute" unicode="&#x1fc;" horiz-adv-x="908" 
d="M527 17q-33 20 -33 73q0 18 2 29l19 120h-254l-187 -239h-46l459 586q45 58 75.5 88t67 44.5t89.5 14.5q92 0 214 -5l62 -2l-6 -31h-266q-47 0 -69.5 -10t-29.5 -28t-13 -54l-3 -21l-32 -200l323 -3l-5 -30l-323 -4l-35 -211q-2 -10 -2 -26q0 -44 26 -58.5t69 -14.5h256
l-5 -31l-42 -1q-156 -6 -225 -6q-53 0 -86 20zM520 275l59 373l-290 -373h231zM723 925h40l-151 -134h-25z" />
    <glyph glyph-name="aeacute" unicode="&#x1fd;" horiz-adv-x="910" 
d="M133.5 37.5q-41.5 43.5 -41.5 134.5q0 158 64.5 262t212.5 104q46 0 98.5 -15t84.5 -39q31 28 78 42.5t101 14.5q90 0 136.5 -37.5t46.5 -110.5q0 -48 -29 -84.5t-83.5 -57t-127.5 -20.5q-54 0 -107 6t-69 12q-4 -35 -4 -72q0 -76 30 -112.5t108 -36.5h209l-5 -26
q-83 -8 -210 -8q-64 0 -104.5 25.5t-55.5 69.5q-40 -35 -100 -65t-118 -30q-73 0 -114.5 43.5zM815.5 293.5q58.5 31.5 58.5 94.5q0 56 -35.5 87.5t-100.5 31.5q-84 0 -131 -26.5t-69 -75.5t-37 -133q1 0 41.5 -5t111.5 -5q103 0 161.5 31.5zM362.5 57q57.5 27 96.5 63
q-5 19 -5 52q0 77 18 155t59 133q-83 43 -161 43q-131 0 -184 -95t-53 -230q0 -148 117 -148q55 0 112.5 27zM670 765h40l-151 -134h-25z" />
    <glyph glyph-name="Oslashacute" unicode="&#x1fe;" horiz-adv-x="681" 
d="M661 649q25 -50 25 -128q0 -72 -16 -169q-23 -147 -65 -224.5t-105.5 -105.5t-162.5 -28q-71 0 -118 14t-74 50l-50 -58h-33l70 80q-23 46 -23 123q0 71 16 168q24 149 65 228t104 109.5t164 30.5q69 0 115.5 -15.5t74.5 -52.5l54 62h33zM162 115l457 524
q-21 36 -62 49.5t-106 13.5q-86 0 -139 -26.5t-88.5 -100t-57.5 -213.5q-16 -102 -16 -158q0 -54 12 -89zM631 614l-457 -524q21 -34 61.5 -46.5t110.5 -12.5q88 0 140 25.5t86.5 96t56.5 208.5q15 87 15 161q0 57 -13 92zM575 925h40l-151 -134h-25z" />
    <glyph glyph-name="oslashacute" unicode="&#x1ff;" horiz-adv-x="561" 
d="M527 473q28 -44 28 -118q0 -28 -10 -106q-16 -98 -46.5 -153t-82.5 -78.5t-136 -23.5q-101 0 -147 49l-40 -43h-28l55 60q-29 41 -29 112q0 41 8 95q17 106 48.5 164.5t83.5 82.5t135 24q103 0 148 -49l39 43h28zM148 90l339 370q-18 22 -49 32.5t-79 10.5
q-69 0 -110.5 -20t-67 -72.5t-41.5 -152.5q-8 -53 -8 -86q0 -48 16 -82zM498 441l-339 -369q20 -24 51.5 -33.5t76.5 -9.5q66 0 107 18t68 67.5t42 143.5q9 57 9 98q0 54 -15 85zM465 765h40l-151 -134h-25z" />
    <glyph glyph-name="uni0200" unicode="&#x200;" horiz-adv-x="665" 
d="M427 733h55l141 -733h-42l-47 240h-322l-128 -240h-42zM528 278l-80 415l-218 -415h298zM273 925h38l95 -134h-24zM401 925h38l95 -134h-24z" />
    <glyph glyph-name="uni0201" unicode="&#x201;" horiz-adv-x="561" 
d="M134 38q-45 44 -45 134q0 33 11 99q21 140 83.5 203.5t185.5 63.5q53 0 106.5 -14t84.5 -43l-76 -481h-31v58q-30 -20 -90 -42t-110 -22q-74 0 -119 44zM355.5 43q42.5 14 101.5 42l60 382q-23 14 -63 25t-88 11q-74 0 -119 -25t-69.5 -76.5t-38.5 -140.5q-9 -55 -9 -84
q0 -74 35.5 -111t96.5 -37q51 0 93.5 14zM222 765h38l95 -134h-24zM350 765h38l95 -134h-24z" />
    <glyph glyph-name="uni0202" unicode="&#x202;" horiz-adv-x="665" 
d="M427 733h55l141 -733h-42l-47 240h-322l-128 -240h-42zM528 278l-80 415l-218 -415h298zM380.5 897.5q40.5 30.5 96.5 30.5q47 0 77 -24t30 -78q0 -10 -2 -34h-22q2 22 2 29q0 44 -24 65t-64 21q-46 0 -80.5 -27.5t-44.5 -87.5h-21q12 75 52.5 105.5z" />
    <glyph glyph-name="uni0203" unicode="&#x203;" horiz-adv-x="561" 
d="M134 38q-45 44 -45 134q0 33 11 99q21 140 83.5 203.5t185.5 63.5q53 0 106.5 -14t84.5 -43l-76 -481h-31v58q-30 -20 -90 -42t-110 -22q-74 0 -119 44zM355.5 43q42.5 14 101.5 42l60 382q-23 14 -63 25t-88 11q-74 0 -119 -25t-69.5 -76.5t-38.5 -140.5q-9 -55 -9 -84
q0 -74 35.5 -111t96.5 -37q51 0 93.5 14zM302.5 737.5q40.5 30.5 96.5 30.5q47 0 77 -24t30 -78q0 -10 -2 -34h-22q2 22 2 29q0 44 -24 65t-64 21q-46 0 -80.5 -27.5t-44.5 -87.5h-21q12 75 52.5 105.5z" />
    <glyph glyph-name="uni0204" unicode="&#x204;" horiz-adv-x="569" 
d="M95 99q0 16 3 34l75 469q11 70 52 100.5t98 30.5q59 0 134 -2t105 -3l62 -2l-6 -31h-292q-48 0 -76.5 -23.5t-37.5 -78.5l-33 -209l348 -7l-5 -30l-349 -2l-33 -211q-2 -11 -2 -29q0 -42 23.5 -57.5t69.5 -15.5h284l-5 -31q-96 -3 -290 -7q-125 -2 -125 105zM241 925h38
l95 -134h-24zM369 925h38l95 -134h-24z" />
    <glyph glyph-name="uni0205" unicode="&#x205;" horiz-adv-x="548" 
d="M145 38.5q-53 44.5 -53 135.5q0 52 11 118q18 121 81.5 185t184.5 64q90 0 137 -32.5t47 -105.5q0 -172 -259 -172q-48 0 -90 5.5t-66 11.5q-5 -30 -5 -74q0 -77 43.5 -111.5t144.5 -34.5h157l-5 -26q-99 -8 -162 -8q-113 0 -166 44.5zM451 291.5q62 29.5 62 107.5
q0 58 -36 83t-111 25q-107 0 -157.5 -57.5t-67.5 -176.5q52 -11 132 -11q116 0 178 29.5zM220 765h38l95 -134h-24zM348 765h38l95 -134h-24z" />
    <glyph glyph-name="uni0206" unicode="&#x206;" horiz-adv-x="569" 
d="M95 99q0 16 3 34l75 469q11 70 52 100.5t98 30.5q59 0 134 -2t105 -3l62 -2l-6 -31h-292q-48 0 -76.5 -23.5t-37.5 -78.5l-33 -209l348 -7l-5 -30l-349 -2l-33 -211q-2 -11 -2 -29q0 -42 23.5 -57.5t69.5 -15.5h284l-5 -31q-96 -3 -290 -7q-125 -2 -125 105zM348.5 897.5
q40.5 30.5 96.5 30.5q47 0 77 -24t30 -78q0 -10 -2 -34h-22q2 22 2 29q0 44 -24 65t-64 21q-46 0 -80.5 -27.5t-44.5 -87.5h-21q12 75 52.5 105.5z" />
    <glyph glyph-name="uni0207" unicode="&#x207;" horiz-adv-x="548" 
d="M145 38.5q-53 44.5 -53 135.5q0 52 11 118q18 121 81.5 185t184.5 64q90 0 137 -32.5t47 -105.5q0 -172 -259 -172q-48 0 -90 5.5t-66 11.5q-5 -30 -5 -74q0 -77 43.5 -111.5t144.5 -34.5h157l-5 -26q-99 -8 -162 -8q-113 0 -166 44.5zM451 291.5q62 29.5 62 107.5
q0 58 -36 83t-111 25q-107 0 -157.5 -57.5t-67.5 -176.5q52 -11 132 -11q116 0 178 29.5zM300.5 737.5q40.5 30.5 96.5 30.5q47 0 77 -24t30 -78q0 -10 -2 -34h-22q2 22 2 29q0 44 -24 65t-64 21q-46 0 -80.5 -27.5t-44.5 -87.5h-21q12 75 52.5 105.5z" />
    <glyph glyph-name="uni0208" unicode="&#x208;" horiz-adv-x="196" 
d="M194 733h41l-116 -733h-41zM38 925h38l95 -134h-24zM166 925h38l95 -134h-24z" />
    <glyph glyph-name="uni0209" unicode="&#x209;" horiz-adv-x="194" 
d="M161 532h41l-84 -532h-41zM39 765h38l95 -134h-24zM167 765h38l95 -134h-24z" />
    <glyph glyph-name="uni020A" unicode="&#x20a;" horiz-adv-x="196" 
d="M194 733h41l-116 -733h-41zM145.5 897.5q40.5 30.5 96.5 30.5q47 0 77 -24t30 -78q0 -10 -2 -34h-22q2 22 2 29q0 44 -24 65t-64 21q-46 0 -80.5 -27.5t-44.5 -87.5h-21q12 75 52.5 105.5z" />
    <glyph glyph-name="uni020B" unicode="&#x20b;" horiz-adv-x="194" 
d="M161 532h41l-84 -532h-41zM119.5 737.5q40.5 30.5 96.5 30.5q47 0 77 -24t30 -78q0 -10 -2 -34h-22q2 22 2 29q0 44 -24 65t-64 21q-46 0 -80.5 -27.5t-44.5 -87.5h-21q12 75 52.5 105.5z" />
    <glyph glyph-name="uni020C" unicode="&#x20c;" horiz-adv-x="681" 
d="M210 11q-49 17 -75 62.5t-26 129.5q0 71 16 168q24 149 65 228t104 109.5t164 30.5q75 0 124.5 -19t76.5 -67t27 -132q0 -72 -16 -169q-23 -147 -65 -224.5t-105.5 -105.5t-162.5 -28q-78 0 -127 17zM486 56.5q52 25.5 86.5 96t56.5 208.5q15 87 15 161q0 73 -22 112
t-63.5 53.5t-107.5 14.5q-86 0 -139 -26.5t-88.5 -100t-57.5 -213.5q-16 -102 -16 -158q0 -71 20.5 -108.5t62 -51t113.5 -13.5q88 0 140 25.5zM284 925h38l95 -134h-24zM412 925h38l95 -134h-24z" />
    <glyph glyph-name="uni020D" unicode="&#x20d;" horiz-adv-x="562" 
d="M140.5 35.5q-49.5 41.5 -49.5 136.5q0 41 8 95q17 106 48.5 164.5t83.5 82.5t135 24q100 0 144.5 -45t44.5 -138q0 -28 -10 -106q-16 -98 -46.5 -153t-82.5 -78.5t-136 -23.5q-90 0 -139.5 41.5zM394 47q41 18 68 67.5t42 143.5q9 57 9 98q0 80 -35 113.5t-119 33.5
q-69 0 -110.5 -20t-67 -72.5t-41.5 -152.5q-8 -53 -8 -86q0 -82 39.5 -112.5t115.5 -30.5q66 0 107 18zM216 765h38l95 -134h-24zM344 765h38l95 -134h-24z" />
    <glyph glyph-name="uni020E" unicode="&#x20e;" horiz-adv-x="681" 
d="M210 11q-49 17 -75 62.5t-26 129.5q0 71 16 168q24 149 65 228t104 109.5t164 30.5q75 0 124.5 -19t76.5 -67t27 -132q0 -72 -16 -169q-23 -147 -65 -224.5t-105.5 -105.5t-162.5 -28q-78 0 -127 17zM486 56.5q52 25.5 86.5 96t56.5 208.5q15 87 15 161q0 73 -22 112
t-63.5 53.5t-107.5 14.5q-86 0 -139 -26.5t-88.5 -100t-57.5 -213.5q-16 -102 -16 -158q0 -71 20.5 -108.5t62 -51t113.5 -13.5q88 0 140 25.5zM391.5 897.5q40.5 30.5 96.5 30.5q47 0 77 -24t30 -78q0 -10 -2 -34h-22q2 22 2 29q0 44 -24 65t-64 21q-46 0 -80.5 -27.5
t-44.5 -87.5h-21q12 75 52.5 105.5z" />
    <glyph glyph-name="uni020F" unicode="&#x20f;" horiz-adv-x="562" 
d="M140.5 35.5q-49.5 41.5 -49.5 136.5q0 41 8 95q17 106 48.5 164.5t83.5 82.5t135 24q100 0 144.5 -45t44.5 -138q0 -28 -10 -106q-16 -98 -46.5 -153t-82.5 -78.5t-136 -23.5q-90 0 -139.5 41.5zM394 47q41 18 68 67.5t42 143.5q9 57 9 98q0 80 -35 113.5t-119 33.5
q-69 0 -110.5 -20t-67 -72.5t-41.5 -152.5q-8 -53 -8 -86q0 -82 39.5 -112.5t115.5 -30.5q66 0 107 18zM296.5 737.5q40.5 30.5 96.5 30.5q47 0 77 -24t30 -78q0 -10 -2 -34h-22q2 22 2 29q0 44 -24 65t-64 21q-46 0 -80.5 -27.5t-44.5 -87.5h-21q12 75 52.5 105.5z" />
    <glyph glyph-name="uni0210" unicode="&#x210;" horiz-adv-x="608" 
d="M194 733h259q69 0 117 -35t48 -126q0 -22 -5 -57q-17 -107 -66 -147t-110 -46l106 -322h-41l-105 318h-23q-37 1 -105.5 2.5t-99.5 3.5l-50 -324h-41zM400 353q67 0 111.5 34.5t59.5 131.5q4 24 4 49q0 128 -129 128h-218l-53 -343h225zM205 925h38l95 -134h-24zM333 925
h38l95 -134h-24z" />
    <glyph glyph-name="uni0211" unicode="&#x211;" horiz-adv-x="382" 
d="M161 532h31v-63q84 69 172 69q48 0 73 -8l-7 -41q-29 7 -73 7q-45 0 -86.5 -15.5t-83.5 -41.5l-69 -439h-41zM135 765h38l95 -134h-24zM263 765h38l95 -134h-24z" />
    <glyph glyph-name="uni0212" unicode="&#x212;" horiz-adv-x="608" 
d="M194 733h259q69 0 117 -35t48 -126q0 -22 -5 -57q-17 -107 -66 -147t-110 -46l106 -322h-41l-105 318h-23q-37 1 -105.5 2.5t-99.5 3.5l-50 -324h-41zM400 353q67 0 111.5 34.5t59.5 131.5q4 24 4 49q0 128 -129 128h-218l-53 -343h225zM312.5 897.5q40.5 30.5 96.5 30.5
q47 0 77 -24t30 -78q0 -10 -2 -34h-22q2 22 2 29q0 44 -24 65t-64 21q-46 0 -80.5 -27.5t-44.5 -87.5h-21q12 75 52.5 105.5z" />
    <glyph glyph-name="uni0213" unicode="&#x213;" horiz-adv-x="382" 
d="M161 532h31v-63q84 69 172 69q48 0 73 -8l-7 -41q-29 7 -73 7q-45 0 -86.5 -15.5t-83.5 -41.5l-69 -439h-41zM215.5 737.5q40.5 30.5 96.5 30.5q47 0 77 -24t30 -78q0 -10 -2 -34h-22q2 22 2 29q0 44 -24 65t-64 21q-46 0 -80.5 -27.5t-44.5 -87.5h-21q12 75 52.5 105.5z
" />
    <glyph glyph-name="uni0214" unicode="&#x214;" horiz-adv-x="670" 
d="M171 39.5q-54 45.5 -54 150.5q0 61 12 133l65 410h41l-65 -413q-13 -76 -13 -129q0 -88 44 -124t135 -36q78 0 127.5 21t84.5 83.5t54 184.5l66 413h41l-66 -416q-21 -135 -62.5 -205t-99.5 -94t-146 -24q-110 0 -164 45.5zM263 925h38l95 -134h-24zM391 925h38l95 -134
h-24z" />
    <glyph glyph-name="uni0215" unicode="&#x215;" horiz-adv-x="568" 
d="M134.5 26.5q-35.5 32.5 -35.5 90.5q0 26 4 52l57 363h41l-57 -364q-4 -24 -4 -39q0 -48 27 -73t86 -25q57 0 103.5 14.5t107.5 45.5l70 441h41l-84 -532h-32l1 61q-55 -33 -106.5 -50t-115.5 -17q-68 0 -103.5 32.5zM224 765h38l95 -134h-24zM352 765h38l95 -134h-24z
" />
    <glyph glyph-name="uni0216" unicode="&#x216;" horiz-adv-x="670" 
d="M171 39.5q-54 45.5 -54 150.5q0 61 12 133l65 410h41l-65 -413q-13 -76 -13 -129q0 -88 44 -124t135 -36q78 0 127.5 21t84.5 83.5t54 184.5l66 413h41l-66 -416q-21 -135 -62.5 -205t-99.5 -94t-146 -24q-110 0 -164 45.5zM370.5 897.5q40.5 30.5 96.5 30.5q47 0 77 -24
t30 -78q0 -10 -2 -34h-22q2 22 2 29q0 44 -24 65t-64 21q-46 0 -80.5 -27.5t-44.5 -87.5h-21q12 75 52.5 105.5z" />
    <glyph glyph-name="uni0217" unicode="&#x217;" horiz-adv-x="568" 
d="M134.5 26.5q-35.5 32.5 -35.5 90.5q0 26 4 52l57 363h41l-57 -364q-4 -24 -4 -39q0 -48 27 -73t86 -25q57 0 103.5 14.5t107.5 45.5l70 441h41l-84 -532h-32l1 61q-55 -33 -106.5 -50t-115.5 -17q-68 0 -103.5 32.5zM304.5 737.5q40.5 30.5 96.5 30.5q47 0 77 -24t30 -78
q0 -10 -2 -34h-22q2 22 2 29q0 44 -24 65t-64 21q-46 0 -80.5 -27.5t-44.5 -87.5h-21q12 75 52.5 105.5z" />
    <glyph glyph-name="Scommaaccent" unicode="&#x218;" horiz-adv-x="566" 
d="M179.5 -2q-63.5 4 -102.5 10l4 30q76 -7 221 -7q87 0 136 28t60 105l10 60q2 26 2 35q0 47 -27.5 68.5t-88.5 21.5h-104q-70 0 -105 27t-35 87q0 17 3 38l10 65q15 100 69 136.5t151 36.5q35 0 105 -5.5t106 -11.5l-4 -30q-128 8 -208 8q-56 0 -91.5 -11t-58 -40.5
t-30.5 -84.5l-9 -60q-3 -19 -3 -35q0 -45 25 -62.5t81 -17.5h107q148 0 148 -122q0 -19 -3 -40l-10 -67q-15 -94 -76 -130t-164 -36q-55 0 -118.5 4zM181 -178l31 4q30 4 47.5 12t30 32.5t19.5 72.5h27q-8 -53 -21.5 -82t-38 -42t-68.5 -13h-30z" />
    <glyph glyph-name="scommaaccent" unicode="&#x219;" horiz-adv-x="503" 
d="M158.5 -3.5q-70.5 2.5 -93.5 6.5l4 25h215q62 0 97.5 20.5t43.5 68.5l8 46q1 6 1 16q0 34 -21 50.5t-63 16.5h-108q-67 0 -98.5 19.5t-31.5 61.5q0 21 4 41l8 45q10 61 50.5 93t123.5 32q40 0 102 -2.5t96 -6.5l-5 -25h-200q-61 0 -91 -22t-38 -70l-7 -42q-4 -25 -4 -38
q0 -27 22.5 -38t73.5 -11h109q53 0 85.5 -26t32.5 -73q0 -7 -2 -25l-8 -49q-10 -61 -58 -88.5t-130 -27.5q-47 0 -117.5 2.5zM135 -178l31 4q30 4 47.5 12t30 32.5t19.5 72.5h27q-8 -53 -21.5 -82t-38 -42t-68.5 -13h-30z" />
    <glyph glyph-name="uni021A" unicode="&#x21a;" horiz-adv-x="603" 
d="M386 696h-247l6 37h535l-6 -37h-247l-110 -696h-41zM192 -178l31 4q30 4 47.5 12t30 32.5t19.5 72.5h27q-8 -53 -21.5 -82t-38 -42t-68.5 -13h-30z" />
    <glyph glyph-name="uni021B" unicode="&#x21b;" horiz-adv-x="372" 
d="M171.5 28.5q-30.5 28.5 -30.5 80.5q0 29 10 83l50 305h-85l3 26l86 9l34 149h30l-24 -149h168l-5 -35h-168l-49 -305q-1 -9 -4.5 -34t-3.5 -43q0 -38 18.5 -57t58.5 -23l66 -6l-5 -29h-60q-59 0 -89.5 28.5zM132 -178l31 4q30 4 47.5 12t30 32.5t19.5 72.5h27
q-8 -53 -21.5 -82t-38 -42t-68.5 -13h-30z" />
    <glyph glyph-name="uni022A" unicode="&#x22a;" horiz-adv-x="681" 
d="M210 11q-49 17 -75 62.5t-26 129.5q0 71 16 168q24 149 65 228t104 109.5t164 30.5q75 0 124.5 -19t76.5 -67t27 -132q0 -72 -16 -169q-23 -147 -65 -224.5t-105.5 -105.5t-162.5 -28q-78 0 -127 17zM486 56.5q52 25.5 86.5 96t56.5 208.5q15 87 15 161q0 73 -22 112
t-63.5 53.5t-107.5 14.5q-86 0 -139 -26.5t-88.5 -100t-57.5 -213.5q-16 -102 -16 -158q0 -71 20.5 -108.5t62 -51t113.5 -13.5q88 0 140 25.5zM338 833l11 69q1 13 16 13h19q11 0 11 -10q0 4 -12 -70q-1 -6 -5.5 -9.5t-9.5 -3.5h-19q-11 0 -11 11zM545 833l11 69
q1 13 16 13h19q11 0 11 -10q0 4 -12 -70q-1 -6 -5.5 -9.5t-9.5 -3.5h-19q-11 0 -11 11zM361 1006h256l-5 -25h-256z" />
    <glyph glyph-name="uni022B" unicode="&#x22b;" horiz-adv-x="562" 
d="M140.5 35.5q-49.5 41.5 -49.5 136.5q0 41 8 95q17 106 48.5 164.5t83.5 82.5t135 24q100 0 144.5 -45t44.5 -138q0 -28 -10 -106q-16 -98 -46.5 -153t-82.5 -78.5t-136 -23.5q-90 0 -139.5 41.5zM394 47q41 18 68 67.5t42 143.5q9 57 9 98q0 80 -35 113.5t-119 33.5
q-69 0 -110.5 -20t-67 -72.5t-41.5 -152.5q-8 -53 -8 -86q0 -82 39.5 -112.5t115.5 -30.5q66 0 107 18zM244 671l11 69q1 13 16 13h19q11 0 11 -10q0 4 -12 -70q-1 -6 -5.5 -9.5t-9.5 -3.5h-19q-11 0 -11 11zM451 671l11 69q1 13 16 13h19q11 0 11 -10q0 4 -12 -70
q-1 -6 -5.5 -9.5t-9.5 -3.5h-19q-11 0 -11 11zM267 853h256l-5 -25h-256z" />
    <glyph glyph-name="uni022C" unicode="&#x22c;" horiz-adv-x="681" 
d="M210 11q-49 17 -75 62.5t-26 129.5q0 71 16 168q24 149 65 228t104 109.5t164 30.5q75 0 124.5 -19t76.5 -67t27 -132q0 -72 -16 -169q-23 -147 -65 -224.5t-105.5 -105.5t-162.5 -28q-78 0 -127 17zM486 56.5q52 25.5 86.5 96t56.5 208.5q15 87 15 161q0 73 -22 112
t-63.5 53.5t-107.5 14.5q-86 0 -139 -26.5t-88.5 -100t-57.5 -213.5q-16 -102 -16 -158q0 -71 20.5 -108.5t62 -51t113.5 -13.5q88 0 140 25.5zM361 1004h256l-5 -25h-256zM342.5 888.5q29.5 22.5 67.5 22.5q20 0 37.5 -8.5t43.5 -26.5q22 -17 38 -25t34 -8q30 0 51 18
t27 51h22q-8 -44 -34.5 -69t-69.5 -25q-19 0 -36.5 8.5t-39.5 25.5q-24 17 -41 25.5t-37 8.5q-29 0 -51 -17.5t-27 -51.5h-22q8 49 37.5 71.5z" />
    <glyph glyph-name="uni022D" unicode="&#x22d;" horiz-adv-x="562" 
d="M140.5 35.5q-49.5 41.5 -49.5 136.5q0 41 8 95q17 106 48.5 164.5t83.5 82.5t135 24q100 0 144.5 -45t44.5 -138q0 -28 -10 -106q-16 -98 -46.5 -153t-82.5 -78.5t-136 -23.5q-90 0 -139.5 41.5zM394 47q41 18 68 67.5t42 143.5q9 57 9 98q0 80 -35 113.5t-119 33.5
q-69 0 -110.5 -20t-67 -72.5t-41.5 -152.5q-8 -53 -8 -86q0 -82 39.5 -112.5t115.5 -30.5q66 0 107 18zM266 851h256l-5 -25h-256zM238.5 726.5q29.5 22.5 67.5 22.5q21 0 38 -8.5t43 -26.5q22 -17 38 -25t34 -8q30 0 51 18t27 51h22q-8 -44 -34.5 -69t-69.5 -25
q-19 0 -36.5 8.5t-39.5 25.5q-24 17 -41 25.5t-37 8.5q-29 0 -51 -17.5t-27 -51.5h-22q8 49 37.5 71.5z" />
    <glyph glyph-name="uni0230" unicode="&#x230;" horiz-adv-x="681" 
d="M210 11q-49 17 -75 62.5t-26 129.5q0 71 16 168q24 149 65 228t104 109.5t164 30.5q75 0 124.5 -19t76.5 -67t27 -132q0 -72 -16 -169q-23 -147 -65 -224.5t-105.5 -105.5t-162.5 -28q-78 0 -127 17zM486 56.5q52 25.5 86.5 96t56.5 208.5q15 87 15 161q0 73 -22 112
t-63.5 53.5t-107.5 14.5q-86 0 -139 -26.5t-88.5 -100t-57.5 -213.5q-16 -102 -16 -158q0 -71 20.5 -108.5t62 -51t113.5 -13.5q88 0 140 25.5zM455 832q-3 3 -3 8v2l11 67q1 13 15 13h19q11 0 11 -10v-3l-11 -67q-1 -6 -5 -9.5t-10 -3.5h-19q-5 0 -8 3zM371 1025h256
l-5 -25h-256z" />
    <glyph glyph-name="uni0231" unicode="&#x231;" horiz-adv-x="562" 
d="M140.5 35.5q-49.5 41.5 -49.5 136.5q0 41 8 95q17 106 48.5 164.5t83.5 82.5t135 24q100 0 144.5 -45t44.5 -138q0 -28 -10 -106q-16 -98 -46.5 -153t-82.5 -78.5t-136 -23.5q-90 0 -139.5 41.5zM394 47q41 18 68 67.5t42 143.5q9 57 9 98q0 80 -35 113.5t-119 33.5
q-69 0 -110.5 -20t-67 -72.5t-41.5 -152.5q-8 -53 -8 -86q0 -82 39.5 -112.5t115.5 -30.5q66 0 107 18zM364 669q-3 3 -3 8v2l11 67q1 13 15 13h19q11 0 11 -10v-3l-11 -67q-1 -6 -5 -9.5t-10 -3.5h-19q-5 0 -8 3zM285 853h256l-5 -25h-256z" />
    <glyph glyph-name="uni0232" unicode="&#x232;" horiz-adv-x="597" 
d="M309 254l-165 479h46l145 -429l302 429h48l-335 -479l-41 -254h-41zM290 870h256l-5 -25h-256z" />
    <glyph glyph-name="uni0233" unicode="&#x233;" horiz-adv-x="547" 
d="M97 -204q48 12 99 61t95 143q-29 4 -49.5 12.5t-37 32.5t-24.5 70l-78 417h42l74 -408q9 -49 31 -66t59 -20l193 410q25 60 28 92h33q0 -58 -26 -113l-203 -425q-58 -120 -113.5 -174t-122.5 -65v33zM235 710h256l-5 -25h-256z" />
    <glyph glyph-name="uni0237" unicode="&#x237;" horiz-adv-x="194" 
d="M161 532h41l-85 -536q-23 -134 -50 -233h-28z" />
    <glyph glyph-name="uni0259" unicode="&#x259;" horiz-adv-x="550" 
d="M490 493.5q53 -44.5 53 -135.5q0 -52 -11 -118q-18 -121 -81.5 -185t-184.5 -64q-90 0 -137 32.5t-47 105.5q0 172 259 172q48 0 90 -5.5t66 -11.5q5 30 5 74q0 77 -43.5 111.5t-144.5 34.5h-157l5 26q99 8 162 8q113 0 166 -44.5zM184 240.5q-62 -29.5 -62 -107.5
q0 -58 36 -83t111 -25q107 0 157.5 57.5t67.5 176.5q-52 11 -132 11q-116 0 -178 -29.5z" />
    <glyph glyph-name="uni02B9" unicode="&#x2b9;" horiz-adv-x="114" 
d="M176 763h39l-88 -292h-28z" />
    <glyph glyph-name="uni02BA" unicode="&#x2ba;" horiz-adv-x="208" 
d="M176 763h39l-88 -292h-28zM270 763h39l-88 -292h-28z" />
    <glyph glyph-name="uni02BB" unicode="&#x2bb;" horiz-adv-x="128" 
d="M183 737q3 -1 4 -1l-2 -12q-10 0 -14.5 -3t-5.5 -12l-7 -44h7q5 0 8 -3t3 -8l-1 -6l-10 -61q-1 -15 -15 -15h-21q-11 0 -11 10l1 7l18 111q6 38 38 38q5 0 8 -1z" />
    <glyph glyph-name="uni02BC" unicode="&#x2bc;" horiz-adv-x="177" 
d="M146 544l3 14q18 0 23 20l9 62h-7q-13 0 -13 13q0 3 1 4l11 68q1 17 17 17h23q8 0 8 -11v-6l-22 -137q-4 -26 -16 -35.5t-26 -9.5q-7 0 -11 1z" />
    <glyph glyph-name="uni02BE" unicode="&#x2be;" horiz-adv-x="194" 
d="M110 611q65 0 96 26.5t31 72.5q0 40 -24 57t-76 17l3 22q64 0 96 -22t32 -72q0 -53 -42 -88t-120 -35z" />
    <glyph glyph-name="uni02BF" unicode="&#x2bf;" horiz-adv-x="194" 
d="M152 610.5q-32 21.5 -32 70.5q0 54 42 89.5t120 35.5l-3 -22q-65 0 -96 -27t-31 -72q0 -39 24.5 -56.5t75.5 -17.5l-4 -22q-64 0 -96 21.5z" />
    <glyph glyph-name="circumflex" unicode="&#x2c6;" horiz-adv-x="404" 
d="M314 763h31l96 -132h-27l-89 110l-134 -110h-27z" />
    <glyph glyph-name="caron" unicode="&#x2c7;" horiz-adv-x="404" 
d="M185 763h28l87 -110l135 110h27l-150 -132h-31z" />
    <glyph glyph-name="uni02C8" unicode="&#x2c8;" horiz-adv-x="97" 
d="M151 763h37l-41 -260h-37z" />
    <glyph glyph-name="uni02C9" unicode="&#x2c9;" horiz-adv-x="316" 
d="M143 710h256l-5 -25h-256z" />
    <glyph glyph-name="uni02CA" unicode="&#x2ca;" horiz-adv-x="208" 
d="M261 765h40l-151 -134h-25z" />
    <glyph glyph-name="uni02CB" unicode="&#x2cb;" horiz-adv-x="208" 
d="M145 765h38l95 -134h-24z" />
    <glyph glyph-name="uni02CC" unicode="&#x2cc;" horiz-adv-x="97" 
d="M34 23h37l-41 -260h-37z" />
    <glyph glyph-name="breve" unicode="&#x2d8;" horiz-adv-x="361" 
d="M204 656q-30 24 -30 78q0 10 2 34h22q-2 -22 -2 -29q0 -43 23.5 -64.5t62.5 -21.5q48 0 82.5 27.5t44.5 87.5h21q-12 -74 -52.5 -105t-96.5 -31q-47 0 -77 24z" />
    <glyph glyph-name="dotaccent" unicode="&#x2d9;" horiz-adv-x="172" 
d="M168 665q-3 3 -3 8v2l11 67q1 13 15 13h19q11 0 11 -10v-3l-11 -67q-1 -6 -5 -9.5t-10 -3.5h-19q-5 0 -8 3z" />
    <glyph glyph-name="ring" unicode="&#x2da;" horiz-adv-x="336" 
d="M198.5 618q-25.5 20 -25.5 65q0 51 33 87t91 36q39 0 64 -20.5t25 -63.5q0 -53 -31.5 -88.5t-88.5 -35.5q-42 0 -67.5 20zM338.5 648q24.5 29 24.5 72q0 35 -19.5 50t-48.5 15q-48 0 -73.5 -29t-25.5 -73q0 -34 20 -49t51 -15q47 0 71.5 29z" />
    <glyph glyph-name="ogonek" unicode="&#x2db;" horiz-adv-x="252" 
d="M70 -163.5q-25 19.5 -25 53.5q0 28 23.5 58.5t72.5 51.5h18q-41 -20 -64 -49t-23 -52q0 -28 22 -43.5t64 -15.5h6l-4 -22q-8 -1 -23 -1q-42 0 -67 19.5z" />
    <glyph glyph-name="tilde" unicode="&#x2dc;" horiz-adv-x="466" 
d="M204.5 728.5q29.5 22.5 67.5 22.5q21 0 38 -8.5t43 -26.5q22 -17 38 -25t34 -8q30 0 51 18t27 51h22q-8 -44 -34.5 -69t-69.5 -25q-19 0 -36.5 8.5t-39.5 25.5q-24 17 -41 25.5t-37 8.5q-29 0 -51 -17.5t-27 -51.5h-22q8 49 37.5 71.5z" />
    <glyph glyph-name="hungarumlaut" unicode="&#x2dd;" horiz-adv-x="352" 
d="M261 765h38l-150 -134h-24zM404 765h38l-150 -134h-24z" />
    <glyph glyph-name="gravecomb" unicode="&#x300;" horiz-adv-x="0" 
d="M-365 765h38l95 -134h-24z" />
    <glyph glyph-name="acutecomb" unicode="&#x301;" horiz-adv-x="0" 
d="M-152 765h40l-151 -134h-25z" />
    <glyph glyph-name="uni0302" unicode="&#x302;" horiz-adv-x="0" 
d="M-253 763h31l96 -132h-27l-89 110l-134 -110h-27z" />
    <glyph glyph-name="tildecomb" unicode="&#x303;" horiz-adv-x="0" 
d="M-380.5 728.5q29.5 22.5 67.5 22.5q21 0 38 -8.5t43 -26.5q22 -17 38 -25t34 -8q30 0 51 18t27 51h22q-8 -44 -34.5 -69t-69.5 -25q-19 0 -36.5 8.5t-39.5 25.5q-24 17 -41 25.5t-37 8.5q-29 0 -51 -17.5t-27 -51.5h-22q8 49 37.5 71.5z" />
    <glyph glyph-name="uni0304" unicode="&#x304;" horiz-adv-x="0" 
d="M-381 710h256l-5 -25h-256z" />
    <glyph glyph-name="uni0306" unicode="&#x306;" horiz-adv-x="0" 
d="M-343 656q-30 24 -30 78q0 10 2 34h22q-2 -22 -2 -29q0 -43 23.5 -64.5t62.5 -21.5q48 0 82.5 27.5t44.5 87.5h21q-12 -74 -52.5 -105t-96.5 -31q-47 0 -77 24z" />
    <glyph glyph-name="uni0307" unicode="&#x307;" horiz-adv-x="0" 
d="M-282 672q-3 3 -3 8v2l11 67q1 13 15 13h19q11 0 11 -10v-3l-11 -67q-1 -6 -5 -9.5t-10 -3.5h-19q-5 0 -8 3z" />
    <glyph glyph-name="uni0308" unicode="&#x308;" horiz-adv-x="0" 
d="M-402 673l11 69q1 13 16 13h19q11 0 11 -10q0 4 -12 -70q-1 -6 -5.5 -9.5t-9.5 -3.5h-19q-11 0 -11 11zM-195 673l11 69q1 13 16 13h19q11 0 11 -10q0 4 -12 -70q-1 -6 -5.5 -9.5t-9.5 -3.5h-19q-11 0 -11 11z" />
    <glyph glyph-name="hookabovecomb" unicode="&#x309;" horiz-adv-x="0" 
d="M-322 629q77 23 77 83q0 40 -47 40q-19 0 -39 -6l3 20q19 6 45 6q63 0 63 -57q0 -36 -25.5 -64t-80.5 -43z" />
    <glyph glyph-name="uni030A" unicode="&#x30a;" horiz-adv-x="0" 
d="M-329.5 618q-25.5 20 -25.5 65q0 51 33 87t91 36q39 0 64 -20.5t25 -63.5q0 -53 -31.5 -88.5t-88.5 -35.5q-42 0 -67.5 20zM-189.5 648q24.5 29 24.5 72q0 35 -19.5 50t-48.5 15q-48 0 -73.5 -29t-25.5 -73q0 -34 20 -49t51 -15q47 0 71.5 29z" />
    <glyph glyph-name="uni030B" unicode="&#x30b;" horiz-adv-x="0" 
d="M-233 765h38l-150 -134h-24zM-90 765h38l-150 -134h-24z" />
    <glyph glyph-name="uni030C" unicode="&#x30c;" horiz-adv-x="0" 
d="M-371 763h28l87 -110l135 110h27l-150 -132h-31z" />
    <glyph glyph-name="uni030F" unicode="&#x30f;" horiz-adv-x="0" 
d="M-435 765h38l95 -134h-24zM-307 765h38l95 -134h-24z" />
    <glyph glyph-name="uni0311" unicode="&#x311;" horiz-adv-x="0" 
d="M-349.5 737.5q40.5 30.5 96.5 30.5q47 0 77 -24t30 -78q0 -10 -2 -34h-22q2 22 2 29q0 44 -24 65t-64 21q-46 0 -80.5 -27.5t-44.5 -87.5h-21q12 75 52.5 105.5z" />
    <glyph glyph-name="uni0312" unicode="&#x312;" horiz-adv-x="0" 
d="M-235.5 693q13.5 29 38.5 42.5t68 13.5h31l-4 -17l-31 -4q-30 -3 -47.5 -11t-30 -32t-19.5 -73h-27q8 52 21.5 81z" />
    <glyph glyph-name="uni031B" unicode="&#x31b;" horiz-adv-x="0" 
d="M-270 532h101q83 0 100 115h33q-12 -76 -48.5 -108t-84.5 -32h-104z" />
    <glyph glyph-name="dotbelowcomb" unicode="&#x323;" horiz-adv-x="0" 
d="M-300 -198q-3 3 -3 8v2l11 67q1 13 15 13h19q11 0 11 -10v-3l-11 -67q-1 -6 -5 -9.5t-10 -3.5h-19q-5 0 -8 3z" />
    <glyph glyph-name="uni0324" unicode="&#x324;" horiz-adv-x="0" 
d="M-403 -177l11 69q1 13 16 13h19q11 0 11 -10q0 4 -12 -70q-1 -6 -5.5 -9.5t-9.5 -3.5h-19q-11 0 -11 11zM-196 -177l11 69q1 13 16 13h19q11 0 11 -10q0 4 -12 -70q-1 -6 -5.5 -9.5t-9.5 -3.5h-19q-11 0 -11 11z" />
    <glyph glyph-name="uni0326" unicode="&#x326;" horiz-adv-x="0" 
d="M-393 -178l31 4q30 4 47.5 12t30 32.5t19.5 72.5h27q-8 -53 -21.5 -82t-38 -42t-68.5 -13h-30z" />
    <glyph glyph-name="uni0327" unicode="&#x327;" horiz-adv-x="0" 
d="M-236 -79.5q16 -12.5 16 -35.5q0 -17 -12 -35.5t-35.5 -31t-54.5 -12.5h-24l3 17l25 2q33 3 52.5 23t19.5 37q0 18 -15.5 28t-55.5 11l65 78h22l-58 -68q36 -1 52 -13.5z" />
    <glyph glyph-name="uni0328" unicode="&#x328;" horiz-adv-x="0" 
d="M-330 -163.5q-25 19.5 -25 53.5q0 28 23.5 58.5t72.5 51.5h18q-41 -20 -64 -49t-23 -52q0 -28 22 -43.5t64 -15.5h6l-4 -22q-8 -1 -23 -1q-42 0 -67 19.5z" />
    <glyph glyph-name="uni032E" unicode="&#x32e;" horiz-adv-x="0" 
d="M-344 -194q-30 24 -30 78q0 10 2 34h21q-2 -22 -2 -29q0 -43 24 -64.5t63 -21.5q48 0 82.5 27.5t43.5 87.5h22q-12 -75 -53 -105.5t-96 -30.5q-47 0 -77 24z" />
    <glyph glyph-name="uni0331" unicode="&#x331;" horiz-adv-x="0" 
d="M-390 -150h256l-5 -25h-256z" />
    <glyph glyph-name="uni0335" unicode="&#x335;" horiz-adv-x="0" 
d="M-299 320h264l-4 -23h-264z" />
    <glyph glyph-name="uni03A9" unicode="&#x3a9;" horiz-adv-x="789" 
d="M71 30l203 8q-63 60 -100 136.5t-37 148.5q0 103 38.5 198.5t120.5 156.5t205 61q92 0 154 -34.5t92 -93t30 -130.5q0 -73 -25.5 -153.5t-80.5 -157.5t-141 -133l198 -7l-5 -30h-250l5 37q135 82 196.5 202t61.5 238q0 99 -59.5 162t-178.5 63q-108 0 -180 -56.5
t-106.5 -144t-34.5 -180.5q0 -77 38 -146t107 -138l-6 -37h-250z" />
    <glyph glyph-name="uni03BC" unicode="&#x3bc;" horiz-adv-x="584" 
d="M585 533l-84 -533h-29l-1 61q-49 -30 -104.5 -48.5t-111.5 -18.5q-84 0 -120 52l-50 -314h-41l68 428q0 6 2 20l56 353h41l-49 -310h1l-12 -77q-1 -6 -1 -18q0 -53 30.5 -75t88.5 -22q55 0 100.5 13.5t104.5 43.5l70 445h41z" />
    <glyph glyph-name="pi" unicode="&#x3c0;" horiz-adv-x="608" 
d="M407.5 14q-21.5 20 -21.5 66q0 19 3 41l59 372h-193l-78 -493h-41l78 493h-111l7 39h509l-7 -39h-123l-59 -371q-2 -22 -2 -31q0 -31 14.5 -45t44.5 -14h60l-3 -24q-31 -14 -71 -14q-44 0 -65.5 20z" />
    <glyph glyph-name="uni1E02" unicode="&#x1e02;" horiz-adv-x="602" 
d="M194 733h240q169 0 169 -137q0 -26 -4 -50q-10 -67 -47 -108.5t-89 -53.5q40 -11 73.5 -49t33.5 -101q0 -27 -6 -55q-36 -179 -228 -179h-258zM399 400q129 0 159 140q6 29 6 50q0 106 -138 106h-198l-46 -296h217zM342 37q84 0 125.5 39t57.5 115q5 20 5 45
q0 59 -37.5 94t-96.5 35h-219l-53 -328h218zM383 832q-3 3 -3 8v2l11 67q1 13 15 13h19q11 0 11 -10v-3l-11 -67q-1 -6 -5 -9.5t-10 -3.5h-19q-5 0 -8 3z" />
    <glyph glyph-name="uni1E03" unicode="&#x1e03;" horiz-adv-x="564" 
d="M214 12.5q-51 18.5 -88 43.5l-18 -56h-32l121 763h41l-45 -287q49 29 106 45.5t98 16.5q72 0 116 -45t44 -129q0 -47 -11 -113q-19 -118 -79 -187.5t-155 -69.5q-47 0 -98 18.5zM439.5 88q48.5 59 66.5 174q10 62 10 97q0 74 -35 109t-93 35q-83 0 -200 -55l-57 -365
q45 -25 85 -39.5t90 -14.5q85 0 133.5 59zM219 872q-3 3 -3 8v2l11 67q1 13 15 13h19q11 0 11 -10v-3l-11 -67q-1 -6 -5 -9.5t-10 -3.5h-19q-5 0 -8 3z" />
    <glyph glyph-name="uni1E08" unicode="&#x1e08;" horiz-adv-x="589" 
d="M428 791h-25l136 134h40zM299 666.5q-48 -35.5 -79 -108.5t-52 -192q-15 -88 -15 -150q0 -99 37.5 -142t125.5 -43q73 0 120 3.5t91 10.5l-5 -30q-86 -19 -194 -21l-51 -60q36 -1 52 -13.5t16 -35.5q0 -17 -12 -35.5t-35.5 -31t-54.5 -12.5h-24l3 17l25 2q33 3 52.5 23
t19.5 37q0 18 -15.5 28t-55.5 11l58 70q-102 0 -148.5 55t-46.5 166q0 67 16 163q28 180 96.5 270.5t194.5 90.5q65 0 115.5 -7t102.5 -18l-6 -29q-114 17 -210 17q-73 0 -121 -35.5z" />
    <glyph glyph-name="uni1E09" unicode="&#x1e09;" horiz-adv-x="484" 
d="M360 631h-25l136 134h40zM213.5 450q-52.5 -53 -73.5 -187q-8 -51 -8 -79q0 -62 17 -96t50 -47t86 -13h164l-3 -25q-76 -9 -171 -9h-15l-51 -60q36 -1 52 -13.5t16 -35.5q0 -17 -12 -35.5t-35.5 -31t-54.5 -12.5h-24l3 17l25 2q33 3 52.5 23t19.5 37q0 18 -15.5 28
t-55.5 11l60 71q-73 7 -111 49t-38 138q0 32 10 94q21 137 83 199.5t163 62.5q56 0 169 -9l-5 -26h-161q-84 0 -136.5 -53z" />
    <glyph glyph-name="uni1E0A" unicode="&#x1e0a;" horiz-adv-x="666" 
d="M194 733h256q119 0 168.5 -62.5t49.5 -191.5q0 -47 -12 -125q-25 -162 -102.5 -258t-214.5 -96h-261zM340 37q120 0 186.5 90t89.5 238q11 68 11 115q0 111 -41 163.5t-146 52.5h-212l-104 -659h216zM405 832q-3 3 -3 8v2l11 67q1 13 15 13h19q11 0 11 -10v-3l-11 -67
q-1 -6 -5 -9.5t-10 -3.5h-19q-5 0 -8 3z" />
    <glyph glyph-name="uni1E0B" unicode="&#x1e0b;" horiz-adv-x="562" 
d="M135 38.5q-44 44.5 -44 128.5q0 56 10 107q17 89 43.5 145t79.5 87.5t142 31.5q47 0 85 -8.5t73 -27.5l42 261h41l-121 -763h-32v58q-44 -26 -97.5 -45t-107.5 -19q-70 0 -114 44.5zM355.5 43.5q47.5 14.5 102.5 41.5l60 382q-34 19 -69.5 27.5t-82.5 8.5
q-75 0 -119 -25.5t-67 -76t-39 -137.5q-10 -57 -10 -88q0 -76 35 -111.5t91 -35.5q51 0 98.5 14.5zM587 872q-3 3 -3 8v2l11 67q1 13 15 13h19q11 0 11 -10v-3l-11 -67q-1 -6 -5 -9.5t-10 -3.5h-19q-5 0 -8 3z" />
    <glyph glyph-name="uni1E0C" unicode="&#x1e0c;" horiz-adv-x="666" 
d="M194 733h256q119 0 168.5 -62.5t49.5 -191.5q0 -47 -12 -125q-25 -162 -102.5 -258t-214.5 -96h-261zM340 37q120 0 186.5 90t89.5 238q11 68 11 115q0 111 -41 163.5t-146 52.5h-212l-104 -659h216zM235 -198q-3 3 -3 8v2l11 67q1 13 15 13h19q11 0 11 -10v-3l-11 -67
q-1 -6 -5 -9.5t-10 -3.5h-19q-5 0 -8 3z" />
    <glyph glyph-name="uni1E0D" unicode="&#x1e0d;" horiz-adv-x="562" 
d="M135 38.5q-44 44.5 -44 128.5q0 56 10 107q17 89 43.5 145t79.5 87.5t142 31.5q47 0 85 -8.5t73 -27.5l42 261h41l-121 -763h-32v58q-44 -26 -97.5 -45t-107.5 -19q-70 0 -114 44.5zM355.5 43.5q47.5 14.5 102.5 41.5l60 382q-34 19 -69.5 27.5t-82.5 8.5
q-75 0 -119 -25.5t-67 -76t-39 -137.5q-10 -57 -10 -88q0 -76 35 -111.5t91 -35.5q51 0 98.5 14.5zM225 -198q-3 3 -3 8v2l11 67q1 13 15 13h19q11 0 11 -10v-3l-11 -67q-1 -6 -5 -9.5t-10 -3.5h-19q-5 0 -8 3z" />
    <glyph glyph-name="uni1E0E" unicode="&#x1e0e;" horiz-adv-x="666" 
d="M194 733h256q119 0 168.5 -62.5t49.5 -191.5q0 -47 -12 -125q-25 -162 -102.5 -258t-214.5 -96h-261zM340 37q120 0 186.5 90t89.5 238q11 68 11 115q0 111 -41 163.5t-146 52.5h-212l-104 -659h216zM135 -150h256l-5 -25h-256z" />
    <glyph glyph-name="uni1E0F" unicode="&#x1e0f;" horiz-adv-x="562" 
d="M135 38.5q-44 44.5 -44 128.5q0 56 10 107q17 89 43.5 145t79.5 87.5t142 31.5q47 0 85 -8.5t73 -27.5l42 261h41l-121 -763h-32v58q-44 -26 -97.5 -45t-107.5 -19q-70 0 -114 44.5zM355.5 43.5q47.5 14.5 102.5 41.5l60 382q-34 19 -69.5 27.5t-82.5 8.5
q-75 0 -119 -25.5t-67 -76t-39 -137.5q-10 -57 -10 -88q0 -76 35 -111.5t91 -35.5q51 0 98.5 14.5zM137 -150h256l-5 -25h-256z" />
    <glyph glyph-name="uni1E14" unicode="&#x1e14;" horiz-adv-x="569" 
d="M95 99q0 16 3 34l75 469q11 70 52 100.5t98 30.5q59 0 134 -2t105 -3l62 -2l-6 -31h-292q-48 0 -76.5 -23.5t-37.5 -78.5l-33 -209l348 -7l-5 -30l-349 -2l-33 -211q-2 -11 -2 -29q0 -42 23.5 -57.5t69.5 -15.5h284l-5 -31q-96 -3 -290 -7q-125 -2 -125 105zM307 870h256
l-5 -25h-256zM323 1049h38l95 -134h-24z" />
    <glyph glyph-name="uni1E15" unicode="&#x1e15;" horiz-adv-x="548" 
d="M145 38.5q-53 44.5 -53 135.5q0 52 11 118q18 121 81.5 185t184.5 64q90 0 137 -32.5t47 -105.5q0 -172 -259 -172q-48 0 -90 5.5t-66 11.5q-5 -30 -5 -74q0 -77 43.5 -111.5t144.5 -34.5h157l-5 -26q-99 -8 -162 -8q-113 0 -166 44.5zM451 291.5q62 29.5 62 107.5
q0 58 -36 83t-111 25q-107 0 -157.5 -57.5t-67.5 -176.5q52 -11 132 -11q116 0 178 29.5zM269 710h256l-5 -25h-256zM285 889h38l95 -134h-24z" />
    <glyph glyph-name="uni1E16" unicode="&#x1e16;" horiz-adv-x="569" 
d="M95 99q0 16 3 34l75 469q11 70 52 100.5t98 30.5q59 0 134 -2t105 -3l62 -2l-6 -31h-292q-48 0 -76.5 -23.5t-37.5 -78.5l-33 -209l348 -7l-5 -30l-349 -2l-33 -211q-2 -11 -2 -29q0 -42 23.5 -57.5t69.5 -15.5h284l-5 -31q-96 -3 -290 -7q-125 -2 -125 105zM307 870h256
l-5 -25h-256zM555 1049h40l-151 -134h-25z" />
    <glyph glyph-name="uni1E17" unicode="&#x1e17;" horiz-adv-x="548" 
d="M145 38.5q-53 44.5 -53 135.5q0 52 11 118q18 121 81.5 185t184.5 64q90 0 137 -32.5t47 -105.5q0 -172 -259 -172q-48 0 -90 5.5t-66 11.5q-5 -30 -5 -74q0 -77 43.5 -111.5t144.5 -34.5h157l-5 -26q-99 -8 -162 -8q-113 0 -166 44.5zM451 291.5q62 29.5 62 107.5
q0 58 -36 83t-111 25q-107 0 -157.5 -57.5t-67.5 -176.5q52 -11 132 -11q116 0 178 29.5zM269 710h256l-5 -25h-256zM518 889h40l-151 -134h-25z" />
    <glyph glyph-name="uni1E1C" unicode="&#x1e1c;" horiz-adv-x="569" 
d="M345 816q-30 24 -30 78q0 10 2 34h22q-2 -22 -2 -29q0 -43 23.5 -64.5t62.5 -21.5q48 0 82.5 27.5t44.5 87.5h21q-12 -74 -52.5 -105t-96.5 -31q-47 0 -77 24zM249.5 671.5q-28.5 -23.5 -37.5 -78.5l-33 -209l348 -7l-5 -30l-349 -2l-33 -211q-2 -11 -2 -29
q0 -42 23.5 -57.5t69.5 -15.5h284l-5 -31q-134 -4 -201 -5l-53 -62q36 -1 52 -13.5t16 -35.5q0 -17 -12 -35.5t-35.5 -31t-54.5 -12.5h-24l3 17l25 2q33 3 52.5 23t19.5 37q0 18 -15.5 28t-55.5 11l59 71l-70 -1q-121 0 -121 105q0 16 3 34l75 469q11 70 52 100.5t98 30.5
q59 0 134 -2t105 -3l62 -2l-6 -31h-292q-48 0 -76.5 -23.5z" />
    <glyph glyph-name="uni1E1D" unicode="&#x1e1d;" horiz-adv-x="548" 
d="M307 656q-30 24 -30 78q0 10 2 34h22q-2 -22 -2 -29q0 -43 23.5 -64.5t62.5 -21.5q48 0 82.5 27.5t44.5 87.5h21q-12 -74 -52.5 -105t-96.5 -31q-47 0 -77 24zM204 236.5q-42 5.5 -66 11.5q-5 -30 -5 -74q0 -77 43.5 -111.5t144.5 -34.5h157l-5 -26q-99 -8 -162 -8h-4
l-51 -60q36 -1 52 -13.5t16 -35.5q0 -17 -12 -35.5t-35.5 -31t-54.5 -12.5h-24l3 17l25 2q33 3 52.5 23t19.5 37q0 18 -15.5 28t-55.5 11l59 71q-100 4 -147 48.5t-47 130.5q0 52 11 118q18 121 81.5 185t184.5 64q90 0 137 -32.5t47 -105.5q0 -172 -259 -172q-48 0 -90 5.5
zM208.5 449.5q-50.5 -57.5 -67.5 -176.5q52 -11 132 -11q116 0 178 29.5t62 107.5q0 58 -36 83t-111 25q-107 0 -157.5 -57.5z" />
    <glyph glyph-name="uni1E1E" unicode="&#x1e1e;" horiz-adv-x="547" 
d="M172 595q12 79 51 108.5t98 29.5q63 0 139.5 -2t105.5 -3l57 -2l-5 -31h-295q-48 0 -75 -24t-36 -78l-34 -213l348 -6l-5 -30l-348 -2l-54 -342h-41zM404 832q-3 3 -3 8v2l11 67q1 13 15 13h19q11 0 11 -10v-3l-11 -67q-1 -6 -5 -9.5t-10 -3.5h-19q-5 0 -8 3z" />
    <glyph glyph-name="uni1E1F" unicode="&#x1e1f;" horiz-adv-x="364" 
d="M194 495h-85l4 27l87 10l14 84q8 46 18 76t41 53.5t88 23.5q67 0 116 -6l-4 -28h-110q-38 0 -60 -15t-32 -41t-17 -69l-13 -78h180l-6 -37h-180l-78 -495h-41zM347 872q-3 3 -3 8v2l11 67q1 13 15 13h19q11 0 11 -10v-3l-11 -67q-1 -6 -5 -9.5t-10 -3.5h-19q-5 0 -8 3z
" />
    <glyph glyph-name="uni1E20" unicode="&#x1e20;" horiz-adv-x="639" 
d="M156 47.5q-44 53.5 -44 170.5q0 64 15 162q27 174 97 267.5t204 93.5q70 0 123.5 -8t104.5 -23l-5 -29q-111 23 -225 23q-115 0 -173.5 -83.5t-84.5 -252.5q-15 -91 -15 -155q0 -95 37.5 -138t121.5 -43q48 0 117.5 16.5t105.5 31.5l41 260h-203l5 30q24 4 69.5 5
t100.5 1q26 0 74 -2l-59 -374h-29v53q-36 -18 -107 -38.5t-126 -20.5q-101 0 -145 53.5zM327 870h256l-5 -25h-256z" />
    <glyph glyph-name="uni1E21" unicode="&#x1e21;" horiz-adv-x="561" 
d="M59 -231l5 28h158q82 0 141 35t71 106l20 120q-51 -32 -107 -48t-107 -16q-40 0 -74 20t-54.5 59t-20.5 93q0 42 11 113q14 89 44.5 145t86 85t143.5 29q112 0 192 -16l-93 -589q-16 -96 -93.5 -135t-170.5 -35zM349.5 42q46.5 13 108.5 43l64 411l-61 3q-70 4 -104 4
q-97 0 -146.5 -55t-68.5 -175q-10 -67 -10 -102q0 -70 34 -106t87 -36q50 0 96.5 13zM271 710h256l-5 -25h-256z" />
    <glyph glyph-name="uni1E24" unicode="&#x1e24;" horiz-adv-x="652" 
d="M194 733h41l-57 -359h416l57 359h41l-116 -733h-41l53 337h-416l-53 -337h-41zM267 -198q-3 3 -3 8v2l11 67q1 13 15 13h19q11 0 11 -10v-3l-11 -67q-1 -6 -5 -9.5t-10 -3.5h-19q-5 0 -8 3z" />
    <glyph glyph-name="uni1E25" unicode="&#x1e25;" horiz-adv-x="568" 
d="M197 763h41l-46 -292q109 70 225 70q67 0 101.5 -33t34.5 -96q0 -21 -3 -45l-59 -367h-41l57 359q3 15 3 42q0 54 -28 78t-83 24q-58 0 -105 -14.5t-106 -47.5l-71 -441h-41zM225 -198q-3 3 -3 8v2l11 67q1 13 15 13h19q11 0 11 -10v-3l-11 -67q-1 -6 -5 -9.5t-10 -3.5
h-19q-5 0 -8 3z" />
    <glyph glyph-name="uni1E2A" unicode="&#x1e2a;" horiz-adv-x="652" 
d="M194 733h41l-57 -359h416l57 359h41l-116 -733h-41l53 337h-416l-53 -337h-41zM198 -194q-30 24 -30 78q0 10 2 34h21q-2 -22 -2 -29q0 -43 24 -64.5t63 -21.5q48 0 82.5 27.5t43.5 87.5h22q-12 -75 -53 -105.5t-96 -30.5q-47 0 -77 24z" />
    <glyph glyph-name="uni1E2B" unicode="&#x1e2b;" horiz-adv-x="568" 
d="M197 763h41l-46 -292q109 70 225 70q67 0 101.5 -33t34.5 -96q0 -21 -3 -45l-59 -367h-41l57 359q3 15 3 42q0 54 -28 78t-83 24q-58 0 -105 -14.5t-106 -47.5l-71 -441h-41zM183 -194q-30 24 -30 78q0 10 2 34h21q-2 -22 -2 -29q0 -43 24 -64.5t63 -21.5q48 0 82.5 27.5
t43.5 87.5h22q-12 -75 -53 -105.5t-96 -30.5q-47 0 -77 24z" />
    <glyph glyph-name="uni1E2E" unicode="&#x1e2e;" horiz-adv-x="196" 
d="M194 733h41l-116 -733h-41zM83 833l11 69q1 13 16 13h19q11 0 11 -10q0 4 -12 -70q-1 -6 -5.5 -9.5t-9.5 -3.5h-19q-11 0 -11 11zM290 833l11 69q1 13 16 13h19q11 0 11 -10q0 4 -12 -70q-1 -6 -5.5 -9.5t-9.5 -3.5h-19q-11 0 -11 11zM344 1087h40l-151 -134h-25z" />
    <glyph glyph-name="uni1E2F" unicode="&#x1e2f;" horiz-adv-x="194" 
d="M161 532h41l-84 -532h-41zM67 673l11 69q1 13 16 13h19q11 0 11 -10q0 4 -12 -70q-1 -6 -5.5 -9.5t-9.5 -3.5h-19q-11 0 -11 11zM274 673l11 69q1 13 16 13h19q11 0 11 -10q0 4 -12 -70q-1 -6 -5.5 -9.5t-9.5 -3.5h-19q-11 0 -11 11zM328 929h40l-151 -134h-25z" />
    <glyph glyph-name="uni1E36" unicode="&#x1e36;" horiz-adv-x="519" 
d="M126 21.5q-30 21.5 -30 75.5q0 18 3 36l95 600h41l-95 -597q-3 -16 -3 -33q0 -38 22.5 -52t61.5 -14h279l-5 -37h-281q-58 0 -88 21.5zM221 -198q-3 3 -3 8v2l11 67q1 13 15 13h19q11 0 11 -10v-3l-11 -67q-1 -6 -5 -9.5t-10 -3.5h-19q-5 0 -8 3z" />
    <glyph glyph-name="uni1E37" unicode="&#x1e37;" horiz-adv-x="276" 
d="M123 25.5q-27 25.5 -27 73.5q0 29 9 81l92 583h41l-91 -576q-1 -5 -5 -30.5t-4 -50.5q0 -36 16.5 -52t48.5 -20l59 -5l-5 -29h-56q-51 0 -78 25.5zM124 -198q-3 3 -3 8v2l11 67q1 13 15 13h19q11 0 11 -10v-3l-11 -67q-1 -6 -5 -9.5t-10 -3.5h-19q-5 0 -8 3z" />
    <glyph glyph-name="uni1E3A" unicode="&#x1e3a;" horiz-adv-x="519" 
d="M126 21.5q-30 21.5 -30 75.5q0 18 3 36l95 600h41l-95 -597q-3 -16 -3 -33q0 -38 22.5 -52t61.5 -14h279l-5 -37h-281q-58 0 -88 21.5zM121 -150h256l-5 -25h-256z" />
    <glyph glyph-name="uni1E3B" unicode="&#x1e3b;" horiz-adv-x="276" 
d="M123 25.5q-27 25.5 -27 73.5q0 29 9 81l92 583h41l-91 -576q-1 -5 -5 -30.5t-4 -50.5q0 -36 16.5 -52t48.5 -20l59 -5l-5 -29h-56q-51 0 -78 25.5zM36 -150h256l-5 -25h-256z" />
    <glyph glyph-name="uni1E40" unicode="&#x1e40;" horiz-adv-x="784" 
d="M265 733h38l113 -666l325 666h38l-32 -733h-40l30 654l-311 -654h-38l-106 653l-173 -653h-42zM507 832q-3 3 -3 8v2l11 67q1 13 15 13h19q11 0 11 -10v-3l-11 -67q-1 -6 -5 -9.5t-10 -3.5h-19q-5 0 -8 3z" />
    <glyph glyph-name="uni1E41" unicode="&#x1e41;" horiz-adv-x="941" 
d="M161 532h30l1 -61q117 70 222 70q58 0 88.5 -21t45.5 -61q52 37 114.5 59.5t123.5 22.5q141 0 141 -131q0 -21 -4 -45l-58 -365h-41l58 365q3 14 3 36q0 52 -28 77t-85 25q-61 0 -111 -18t-110 -54q1 -7 1 -25q0 -24 -4 -51l-57 -355h-41l57 355q4 25 4 47
q0 101 -112 101q-57 0 -102.5 -14.5t-108.5 -47.5l-71 -441h-41zM551 672q-3 3 -3 8v2l11 67q1 13 15 13h19q11 0 11 -10v-3l-11 -67q-1 -6 -5 -9.5t-10 -3.5h-19q-5 0 -8 3z" />
    <glyph glyph-name="uni1E42" unicode="&#x1e42;" horiz-adv-x="784" 
d="M265 733h38l113 -666l325 666h38l-32 -733h-40l30 654l-311 -654h-38l-106 653l-173 -653h-42zM337 -198q-3 3 -3 8v2l11 67q1 13 15 13h19q11 0 11 -10v-3l-11 -67q-1 -6 -5 -9.5t-10 -3.5h-19q-5 0 -8 3z" />
    <glyph glyph-name="uni1E43" unicode="&#x1e43;" horiz-adv-x="941" 
d="M161 532h30l1 -61q117 70 222 70q58 0 88.5 -21t45.5 -61q52 37 114.5 59.5t123.5 22.5q141 0 141 -131q0 -21 -4 -45l-58 -365h-41l58 365q3 14 3 36q0 52 -28 77t-85 25q-61 0 -111 -18t-110 -54q1 -7 1 -25q0 -24 -4 -51l-57 -355h-41l57 355q4 25 4 47
q0 101 -112 101q-57 0 -102.5 -14.5t-108.5 -47.5l-71 -441h-41zM405 -198q-3 3 -3 8v2l11 67q1 13 15 13h19q11 0 11 -10v-3l-11 -67q-1 -6 -5 -9.5t-10 -3.5h-19q-5 0 -8 3z" />
    <glyph glyph-name="uni1E44" unicode="&#x1e44;" horiz-adv-x="655" 
d="M194 733h35l319 -663l106 663h41l-116 -733h-36l-319 664l-105 -664h-41zM263 -198q-3 3 -3 8v2l11 67q1 13 15 13h19q11 0 11 -10v-3l-11 -67q-1 -6 -5 -9.5t-10 -3.5h-19q-5 0 -8 3z" />
    <glyph glyph-name="uni1E45" unicode="&#x1e45;" horiz-adv-x="568" 
d="M161 532h30l1 -61q49 32 107 51t115 19q73 0 106 -35t33 -93q0 -23 -9 -84l-53 -329h-41l52 328q9 62 9 74q0 101 -112 101q-58 0 -105 -14.5t-106 -47.5l-71 -441h-41zM227 -198q-3 3 -3 8v2l11 67q1 13 15 13h19q11 0 11 -10v-3l-11 -67q-1 -6 -5 -9.5t-10 -3.5h-19
q-5 0 -8 3z" />
    <glyph glyph-name="uni1E46" unicode="&#x1e46;" horiz-adv-x="655" 
d="M194 733h35l319 -663l106 663h41l-116 -733h-36l-319 664l-105 -664h-41zM263 -198q-3 3 -3 8v2l11 67q1 13 15 13h19q11 0 11 -10v-3l-11 -67q-1 -6 -5 -9.5t-10 -3.5h-19q-5 0 -8 3z" />
    <glyph glyph-name="uni1E47" unicode="&#x1e47;" horiz-adv-x="568" 
d="M161 532h30l1 -61q49 32 107 51t115 19q73 0 106 -35t33 -93q0 -23 -9 -84l-53 -329h-41l52 328q9 62 9 74q0 101 -112 101q-58 0 -105 -14.5t-106 -47.5l-71 -441h-41zM227 -198q-3 3 -3 8v2l11 67q1 13 15 13h19q11 0 11 -10v-3l-11 -67q-1 -6 -5 -9.5t-10 -3.5h-19
q-5 0 -8 3z" />
    <glyph glyph-name="uni1E48" unicode="&#x1e48;" horiz-adv-x="655" 
d="M194 733h35l319 -663l106 663h41l-116 -733h-36l-319 664l-105 -664h-41zM181 -150h256l-5 -25h-256z" />
    <glyph glyph-name="uni1E49" unicode="&#x1e49;" horiz-adv-x="568" 
d="M161 532h30l1 -61q49 32 107 51t115 19q73 0 106 -35t33 -93q0 -23 -9 -84l-53 -329h-41l52 328q9 62 9 74q0 101 -112 101q-58 0 -105 -14.5t-106 -47.5l-71 -441h-41zM139 -150h256l-5 -25h-256z" />
    <glyph glyph-name="uni1E4C" unicode="&#x1e4c;" horiz-adv-x="681" 
d="M210 11q-49 17 -75 62.5t-26 129.5q0 71 16 168q24 149 65 228t104 109.5t164 30.5q75 0 124.5 -19t76.5 -67t27 -132q0 -72 -16 -169q-23 -147 -65 -224.5t-105.5 -105.5t-162.5 -28q-78 0 -127 17zM486 56.5q52 25.5 86.5 96t56.5 208.5q15 87 15 161q0 73 -22 112
t-63.5 53.5t-107.5 14.5q-86 0 -139 -26.5t-88.5 -100t-57.5 -213.5q-16 -102 -16 -158q0 -71 20.5 -108.5t62 -51t113.5 -13.5q88 0 140 25.5zM360.5 888.5q29.5 22.5 67.5 22.5q20 0 37.5 -8.5t43.5 -26.5q22 -17 38 -25t34 -8q30 0 51 18t27 51h22q-8 -44 -34.5 -69
t-69.5 -25q-19 0 -36.5 8.5t-39.5 25.5q-24 17 -41 25.5t-37 8.5q-29 0 -51 -17.5t-27 -51.5h-22q8 49 37.5 71.5zM608 1086h40l-151 -134h-25z" />
    <glyph glyph-name="uni1E4D" unicode="&#x1e4d;" horiz-adv-x="562" 
d="M140.5 35.5q-49.5 41.5 -49.5 136.5q0 41 8 95q17 106 48.5 164.5t83.5 82.5t135 24q100 0 144.5 -45t44.5 -138q0 -28 -10 -106q-16 -98 -46.5 -153t-82.5 -78.5t-136 -23.5q-90 0 -139.5 41.5zM394 47q41 18 68 67.5t42 143.5q9 57 9 98q0 80 -35 113.5t-119 33.5
q-69 0 -110.5 -20t-67 -72.5t-41.5 -152.5q-8 -53 -8 -86q0 -82 39.5 -112.5t115.5 -30.5q66 0 107 18zM265.5 728.5q29.5 22.5 67.5 22.5q21 0 38 -8.5t43 -26.5q22 -17 38 -25t34 -8q30 0 51 18t27 51h22q-8 -44 -34.5 -69t-69.5 -25q-19 0 -36.5 8.5t-39.5 25.5
q-24 17 -41 25.5t-37 8.5q-29 0 -51 -17.5t-27 -51.5h-22q8 49 37.5 71.5zM513 925h40l-151 -134h-25z" />
    <glyph glyph-name="uni1E4E" unicode="&#x1e4e;" horiz-adv-x="681" 
d="M210 11q-49 17 -75 62.5t-26 129.5q0 71 16 168q24 149 65 228t104 109.5t164 30.5q75 0 124.5 -19t76.5 -67t27 -132q0 -72 -16 -169q-23 -147 -65 -224.5t-105.5 -105.5t-162.5 -28q-78 0 -127 17zM486 56.5q52 25.5 86.5 96t56.5 208.5q15 87 15 161q0 73 -22 112
t-63.5 53.5t-107.5 14.5q-86 0 -139 -26.5t-88.5 -100t-57.5 -213.5q-16 -102 -16 -158q0 -71 20.5 -108.5t62 -51t113.5 -13.5q88 0 140 25.5zM342.5 888.5q29.5 22.5 67.5 22.5q20 0 37.5 -8.5t43.5 -26.5q22 -17 38 -25t34 -8q30 0 51 18t27 51h22q-8 -44 -34.5 -69
t-69.5 -25q-19 0 -36.5 8.5t-39.5 25.5q-24 17 -41 25.5t-37 8.5q-29 0 -51 -17.5t-27 -51.5h-22q8 49 37.5 71.5zM367 977l11 69q1 13 16 13h19q11 0 11 -10q0 4 -12 -70q-1 -6 -5.5 -9.5t-9.5 -3.5h-19q-11 0 -11 11zM574 977l11 69q1 13 16 13h19q11 0 11 -10
q0 4 -12 -70q-1 -6 -5.5 -9.5t-9.5 -3.5h-19q-11 0 -11 11z" />
    <glyph glyph-name="uni1E4F" unicode="&#x1e4f;" horiz-adv-x="562" 
d="M140.5 35.5q-49.5 41.5 -49.5 136.5q0 41 8 95q17 106 48.5 164.5t83.5 82.5t135 24q100 0 144.5 -45t44.5 -138q0 -28 -10 -106q-16 -98 -46.5 -153t-82.5 -78.5t-136 -23.5q-90 0 -139.5 41.5zM394 47q41 18 68 67.5t42 143.5q9 57 9 98q0 80 -35 113.5t-119 33.5
q-69 0 -110.5 -20t-67 -72.5t-41.5 -152.5q-8 -53 -8 -86q0 -82 39.5 -112.5t115.5 -30.5q66 0 107 18zM265.5 728.5q29.5 22.5 67.5 22.5q21 0 38 -8.5t43 -26.5q22 -17 38 -25t34 -8q30 0 51 18t27 51h22q-8 -44 -34.5 -69t-69.5 -25q-19 0 -36.5 8.5t-39.5 25.5
q-24 17 -41 25.5t-37 8.5q-29 0 -51 -17.5t-27 -51.5h-22q8 49 37.5 71.5zM281 817l11 69q1 13 16 13h19q11 0 11 -10q0 4 -12 -70q-1 -6 -5.5 -9.5t-9.5 -3.5h-19q-11 0 -11 11zM488 817l11 69q1 13 16 13h19q11 0 11 -10q0 4 -12 -70q-1 -6 -5.5 -9.5t-9.5 -3.5h-19
q-11 0 -11 11z" />
    <glyph glyph-name="uni1E50" unicode="&#x1e50;" horiz-adv-x="681" 
d="M210 11q-49 17 -75 62.5t-26 129.5q0 71 16 168q24 149 65 228t104 109.5t164 30.5q75 0 124.5 -19t76.5 -67t27 -132q0 -72 -16 -169q-23 -147 -65 -224.5t-105.5 -105.5t-162.5 -28q-78 0 -127 17zM486 56.5q52 25.5 86.5 96t56.5 208.5q15 87 15 161q0 73 -22 112
t-63.5 53.5t-107.5 14.5q-86 0 -139 -26.5t-88.5 -100t-57.5 -213.5q-16 -102 -16 -158q0 -71 20.5 -108.5t62 -51t113.5 -13.5q88 0 140 25.5zM350 870h256l-5 -25h-256zM366 1049h38l95 -134h-24z" />
    <glyph glyph-name="uni1E51" unicode="&#x1e51;" horiz-adv-x="562" 
d="M140.5 35.5q-49.5 41.5 -49.5 136.5q0 41 8 95q17 106 48.5 164.5t83.5 82.5t135 24q100 0 144.5 -45t44.5 -138q0 -28 -10 -106q-16 -98 -46.5 -153t-82.5 -78.5t-136 -23.5q-90 0 -139.5 41.5zM394 47q41 18 68 67.5t42 143.5q9 57 9 98q0 80 -35 113.5t-119 33.5
q-69 0 -110.5 -20t-67 -72.5t-41.5 -152.5q-8 -53 -8 -86q0 -82 39.5 -112.5t115.5 -30.5q66 0 107 18zM265 710h256l-5 -25h-256zM281 889h38l95 -134h-24z" />
    <glyph glyph-name="uni1E52" unicode="&#x1e52;" horiz-adv-x="681" 
d="M210 11q-49 17 -75 62.5t-26 129.5q0 71 16 168q24 149 65 228t104 109.5t164 30.5q75 0 124.5 -19t76.5 -67t27 -132q0 -72 -16 -169q-23 -147 -65 -224.5t-105.5 -105.5t-162.5 -28q-78 0 -127 17zM486 56.5q52 25.5 86.5 96t56.5 208.5q15 87 15 161q0 73 -22 112
t-63.5 53.5t-107.5 14.5q-86 0 -139 -26.5t-88.5 -100t-57.5 -213.5q-16 -102 -16 -158q0 -71 20.5 -108.5t62 -51t113.5 -13.5q88 0 140 25.5zM350 870h256l-5 -25h-256zM599 1049h40l-151 -134h-25z" />
    <glyph glyph-name="uni1E53" unicode="&#x1e53;" horiz-adv-x="562" 
d="M140.5 35.5q-49.5 41.5 -49.5 136.5q0 41 8 95q17 106 48.5 164.5t83.5 82.5t135 24q100 0 144.5 -45t44.5 -138q0 -28 -10 -106q-16 -98 -46.5 -153t-82.5 -78.5t-136 -23.5q-90 0 -139.5 41.5zM394 47q41 18 68 67.5t42 143.5q9 57 9 98q0 80 -35 113.5t-119 33.5
q-69 0 -110.5 -20t-67 -72.5t-41.5 -152.5q-8 -53 -8 -86q0 -82 39.5 -112.5t115.5 -30.5q66 0 107 18zM265 710h256l-5 -25h-256zM515 889h40l-151 -134h-25z" />
    <glyph glyph-name="uni1E56" unicode="&#x1e56;" horiz-adv-x="594" 
d="M194 733h270q155 0 155 -152q0 -30 -7 -67q-34 -221 -223 -221q-85 0 -223 8l-47 -301h-41zM388 330q154 0 184 186q5 33 5 62q0 63 -30.5 90.5t-90.5 27.5h-228l-58 -366h218zM384 832q-3 3 -3 8v2l11 67q1 13 15 13h19q11 0 11 -10v-3l-11 -67q-1 -6 -5 -9.5t-10 -3.5
h-19q-5 0 -8 3z" />
    <glyph glyph-name="uni1E57" unicode="&#x1e57;" horiz-adv-x="562" 
d="M160 527q82 11 228 11q167 0 167 -178q0 -43 -10 -101q-20 -128 -78 -196.5t-170 -68.5q-51 0 -92 8.5t-83 28.5l-43 -268h-41zM438.5 88q46.5 58 66.5 181q10 60 10 86q0 148 -134 148l-185 -2l-70 -440q56 -18 88.5 -24.5t81.5 -6.5q96 0 142.5 58zM365 672q-3 3 -3 8
v2l11 67q1 13 15 13h19q11 0 11 -10v-3l-11 -67q-1 -6 -5 -9.5t-10 -3.5h-19q-5 0 -8 3z" />
    <glyph glyph-name="uni1E5A" unicode="&#x1e5a;" horiz-adv-x="608" 
d="M194 733h259q69 0 117 -35t48 -126q0 -22 -5 -57q-17 -107 -66 -147t-110 -46l106 -322h-41l-105 318h-23q-37 1 -105.5 2.5t-99.5 3.5l-50 -324h-41zM400 353q67 0 111.5 34.5t59.5 131.5q4 24 4 49q0 128 -129 128h-218l-53 -343h225zM245 -198q-3 3 -3 8v2l11 67
q1 13 15 13h19q11 0 11 -10v-3l-11 -67q-1 -6 -5 -9.5t-10 -3.5h-19q-5 0 -8 3z" />
    <glyph glyph-name="uni1E5B" unicode="&#x1e5b;" horiz-adv-x="382" 
d="M161 532h31v-63q84 69 172 69q48 0 73 -8l-7 -41q-29 7 -73 7q-45 0 -86.5 -15.5t-83.5 -41.5l-69 -439h-41zM43 -198q-3 3 -3 8v2l11 67q1 13 15 13h19q11 0 11 -10v-3l-11 -67q-1 -6 -5 -9.5t-10 -3.5h-19q-5 0 -8 3z" />
    <glyph glyph-name="uni1E5E" unicode="&#x1e5e;" horiz-adv-x="608" 
d="M194 733h259q69 0 117 -35t48 -126q0 -22 -5 -57q-17 -107 -66 -147t-110 -46l106 -322h-41l-105 318h-23q-37 1 -105.5 2.5t-99.5 3.5l-50 -324h-41zM400 353q67 0 111.5 34.5t59.5 131.5q4 24 4 49q0 128 -129 128h-218l-53 -343h225zM154 -150h256l-5 -25h-256z" />
    <glyph glyph-name="uni1E5F" unicode="&#x1e5f;" horiz-adv-x="382" 
d="M161 532h31v-63q84 69 172 69q48 0 73 -8l-7 -41q-29 7 -73 7q-45 0 -86.5 -15.5t-83.5 -41.5l-69 -439h-41zM-45 -150h256l-5 -25h-256z" />
    <glyph glyph-name="uni1E60" unicode="&#x1e60;" horiz-adv-x="566" 
d="M179.5 -2q-63.5 4 -102.5 10l4 30q76 -7 221 -7q87 0 136 28t60 105l10 60q2 26 2 35q0 47 -27.5 68.5t-88.5 21.5h-104q-70 0 -105 27t-35 87q0 17 3 38l10 65q15 100 69 136.5t151 36.5q35 0 105 -5.5t106 -11.5l-4 -30q-128 8 -208 8q-56 0 -91.5 -11t-58 -40.5
t-30.5 -84.5l-9 -60q-3 -19 -3 -35q0 -45 25 -62.5t81 -17.5h107q148 0 148 -122q0 -19 -3 -40l-10 -67q-15 -94 -76 -130t-164 -36q-55 0 -118.5 4zM392 832q-3 3 -3 8v2l11 67q1 13 15 13h19q11 0 11 -10v-3l-11 -67q-1 -6 -5 -9.5t-10 -3.5h-19q-5 0 -8 3z" />
    <glyph glyph-name="uni1E61" unicode="&#x1e61;" horiz-adv-x="503" 
d="M158.5 -3.5q-70.5 2.5 -93.5 6.5l4 25h215q62 0 97.5 20.5t43.5 68.5l8 46q1 6 1 16q0 34 -21 50.5t-63 16.5h-108q-67 0 -98.5 19.5t-31.5 61.5q0 21 4 41l8 45q10 61 50.5 93t123.5 32q40 0 102 -2.5t96 -6.5l-5 -25h-200q-61 0 -91 -22t-38 -70l-7 -42q-4 -25 -4 -38
q0 -27 22.5 -38t73.5 -11h109q53 0 85.5 -26t32.5 -73q0 -7 -2 -25l-8 -49q-10 -61 -58 -88.5t-130 -27.5q-47 0 -117.5 2.5zM332 672q-3 3 -3 8v2l11 67q1 13 15 13h19q11 0 11 -10v-3l-11 -67q-1 -6 -5 -9.5t-10 -3.5h-19q-5 0 -8 3z" />
    <glyph glyph-name="uni1E62" unicode="&#x1e62;" horiz-adv-x="566" 
d="M179.5 -2q-63.5 4 -102.5 10l4 30q76 -7 221 -7q87 0 136 28t60 105l10 60q2 26 2 35q0 47 -27.5 68.5t-88.5 21.5h-104q-70 0 -105 27t-35 87q0 17 3 38l10 65q15 100 69 136.5t151 36.5q35 0 105 -5.5t106 -11.5l-4 -30q-128 8 -208 8q-56 0 -91.5 -11t-58 -40.5
t-30.5 -84.5l-9 -60q-3 -19 -3 -35q0 -45 25 -62.5t81 -17.5h107q148 0 148 -122q0 -19 -3 -40l-10 -67q-15 -94 -76 -130t-164 -36q-55 0 -118.5 4zM222 -198q-3 3 -3 8v2l11 67q1 13 15 13h19q11 0 11 -10v-3l-11 -67q-1 -6 -5 -9.5t-10 -3.5h-19q-5 0 -8 3z" />
    <glyph glyph-name="uni1E63" unicode="&#x1e63;" horiz-adv-x="503" 
d="M158.5 -3.5q-70.5 2.5 -93.5 6.5l4 25h215q62 0 97.5 20.5t43.5 68.5l8 46q1 6 1 16q0 34 -21 50.5t-63 16.5h-108q-67 0 -98.5 19.5t-31.5 61.5q0 21 4 41l8 45q10 61 50.5 93t123.5 32q40 0 102 -2.5t96 -6.5l-5 -25h-200q-61 0 -91 -22t-38 -70l-7 -42q-4 -25 -4 -38
q0 -27 22.5 -38t73.5 -11h109q53 0 85.5 -26t32.5 -73q0 -7 -2 -25l-8 -49q-10 -61 -58 -88.5t-130 -27.5q-47 0 -117.5 2.5zM186 -198q-3 3 -3 8v2l11 67q1 13 15 13h19q11 0 11 -10v-3l-11 -67q-1 -6 -5 -9.5t-10 -3.5h-19q-5 0 -8 3z" />
    <glyph glyph-name="uni1E64" unicode="&#x1e64;" horiz-adv-x="566" 
d="M179.5 -2q-63.5 4 -102.5 10l4 30q76 -7 221 -7q87 0 136 28t60 105l10 60q2 26 2 35q0 47 -27.5 68.5t-88.5 21.5h-104q-70 0 -105 27t-35 87q0 17 3 38l10 65q15 100 69 136.5t151 36.5q35 0 105 -5.5t106 -11.5l-4 -30q-128 8 -208 8q-56 0 -91.5 -11t-58 -40.5
t-30.5 -84.5l-9 -60q-3 -19 -3 -35q0 -45 25 -62.5t81 -17.5h107q148 0 148 -122q0 -19 -3 -40l-10 -67q-15 -94 -76 -130t-164 -36q-55 0 -118.5 4zM486 925h40l-151 -134h-25zM443 958q-3 3 -3 8v2l11 67q1 13 15 13h19q11 0 11 -10v-3l-11 -67q-1 -6 -5 -9.5t-10 -3.5
h-19q-5 0 -8 3z" />
    <glyph glyph-name="uni1E65" unicode="&#x1e65;" horiz-adv-x="503" 
d="M158.5 -3.5q-70.5 2.5 -93.5 6.5l4 25h215q62 0 97.5 20.5t43.5 68.5l8 46q1 6 1 16q0 34 -21 50.5t-63 16.5h-108q-67 0 -98.5 19.5t-31.5 61.5q0 21 4 41l8 45q10 61 50.5 93t123.5 32q40 0 102 -2.5t96 -6.5l-5 -25h-200q-61 0 -91 -22t-38 -70l-7 -42q-4 -25 -4 -38
q0 -27 22.5 -38t73.5 -11h109q53 0 85.5 -26t32.5 -73q0 -7 -2 -25l-8 -49q-10 -61 -58 -88.5t-130 -27.5q-47 0 -117.5 2.5zM412 765h40l-151 -134h-25zM362 798q-3 3 -3 8v2l11 67q1 13 15 13h19q11 0 11 -10v-3l-11 -67q-1 -6 -5 -9.5t-10 -3.5h-19q-5 0 -8 3z" />
    <glyph glyph-name="uni1E66" unicode="&#x1e66;" horiz-adv-x="566" 
d="M179.5 -2q-63.5 4 -102.5 10l4 30q76 -7 221 -7q87 0 136 28t60 105l10 60q2 26 2 35q0 47 -27.5 68.5t-88.5 21.5h-104q-70 0 -105 27t-35 87q0 17 3 38l10 65q15 100 69 136.5t151 36.5q35 0 105 -5.5t106 -11.5l-4 -30q-128 8 -208 8q-56 0 -91.5 -11t-58 -40.5
t-30.5 -84.5l-9 -60q-3 -19 -3 -35q0 -45 25 -62.5t81 -17.5h107q148 0 148 -122q0 -19 -3 -40l-10 -67q-15 -94 -76 -130t-164 -36q-55 0 -118.5 4zM307 923h28l87 -110l135 110h27l-150 -132h-31zM423 967q-3 3 -3 8v2l11 67q1 13 15 13h19q11 0 11 -10v-3l-11 -67
q-1 -6 -5 -9.5t-10 -3.5h-19q-5 0 -8 3z" />
    <glyph glyph-name="uni1E67" unicode="&#x1e67;" horiz-adv-x="503" 
d="M158.5 -3.5q-70.5 2.5 -93.5 6.5l4 25h215q62 0 97.5 20.5t43.5 68.5l8 46q1 6 1 16q0 34 -21 50.5t-63 16.5h-108q-67 0 -98.5 19.5t-31.5 61.5q0 21 4 41l8 45q10 61 50.5 93t123.5 32q40 0 102 -2.5t96 -6.5l-5 -25h-200q-61 0 -91 -22t-38 -70l-7 -42q-4 -25 -4 -38
q0 -27 22.5 -38t73.5 -11h109q53 0 85.5 -26t32.5 -73q0 -7 -2 -25l-8 -49q-10 -61 -58 -88.5t-130 -27.5q-47 0 -117.5 2.5zM243 763h28l87 -110l135 110h27l-150 -132h-31zM352 816q-3 3 -3 8v2l11 67q1 13 15 13h19q11 0 11 -10v-3l-11 -67q-1 -6 -5 -9.5t-10 -3.5h-19
q-5 0 -8 3z" />
    <glyph glyph-name="uni1E68" unicode="&#x1e68;" horiz-adv-x="566" 
d="M179.5 -2q-63.5 4 -102.5 10l4 30q76 -7 221 -7q87 0 136 28t60 105l10 60q2 26 2 35q0 47 -27.5 68.5t-88.5 21.5h-104q-70 0 -105 27t-35 87q0 17 3 38l10 65q15 100 69 136.5t151 36.5q35 0 105 -5.5t106 -11.5l-4 -30q-128 8 -208 8q-56 0 -91.5 -11t-58 -40.5
t-30.5 -84.5l-9 -60q-3 -19 -3 -35q0 -45 25 -62.5t81 -17.5h107q148 0 148 -122q0 -19 -3 -40l-10 -67q-15 -94 -76 -130t-164 -36q-55 0 -118.5 4zM222 -198q-3 3 -3 8v2l11 67q1 13 15 13h19q11 0 11 -10v-3l-11 -67q-1 -6 -5 -9.5t-10 -3.5h-19q-5 0 -8 3zM392 832
q-3 3 -3 8v2l11 67q1 13 15 13h19q11 0 11 -10v-3l-11 -67q-1 -6 -5 -9.5t-10 -3.5h-19q-5 0 -8 3z" />
    <glyph glyph-name="uni1E69" unicode="&#x1e69;" horiz-adv-x="503" 
d="M158.5 -3.5q-70.5 2.5 -93.5 6.5l4 25h215q62 0 97.5 20.5t43.5 68.5l8 46q1 6 1 16q0 34 -21 50.5t-63 16.5h-108q-67 0 -98.5 19.5t-31.5 61.5q0 21 4 41l8 45q10 61 50.5 93t123.5 32q40 0 102 -2.5t96 -6.5l-5 -25h-200q-61 0 -91 -22t-38 -70l-7 -42q-4 -25 -4 -38
q0 -27 22.5 -38t73.5 -11h109q53 0 85.5 -26t32.5 -73q0 -7 -2 -25l-8 -49q-10 -61 -58 -88.5t-130 -27.5q-47 0 -117.5 2.5zM186 -198q-3 3 -3 8v2l11 67q1 13 15 13h19q11 0 11 -10v-3l-11 -67q-1 -6 -5 -9.5t-10 -3.5h-19q-5 0 -8 3zM332 672q-3 3 -3 8v2l11 67
q1 13 15 13h19q11 0 11 -10v-3l-11 -67q-1 -6 -5 -9.5t-10 -3.5h-19q-5 0 -8 3z" />
    <glyph glyph-name="uni1E6A" unicode="&#x1e6a;" horiz-adv-x="603" 
d="M386 696h-247l6 37h535l-6 -37h-247l-110 -696h-41zM403 832q-3 3 -3 8v2l11 67q1 13 15 13h19q11 0 11 -10v-3l-11 -67q-1 -6 -5 -9.5t-10 -3.5h-19q-5 0 -8 3z" />
    <glyph glyph-name="uni1E6B" unicode="&#x1e6b;" horiz-adv-x="372" 
d="M171.5 28.5q-30.5 28.5 -30.5 80.5q0 29 10 83l50 305h-85l3 26l86 9l34 149h30l-24 -149h168l-5 -35h-168l-49 -305q-1 -9 -4.5 -34t-3.5 -43q0 -38 18.5 -57t58.5 -23l66 -6l-5 -29h-60q-59 0 -89.5 28.5zM252 772q-3 3 -3 8v2l11 67q1 13 15 13h19q11 0 11 -10v-3
l-11 -67q-1 -6 -5 -9.5t-10 -3.5h-19q-5 0 -8 3z" />
    <glyph glyph-name="uni1E6C" unicode="&#x1e6c;" horiz-adv-x="603" 
d="M386 696h-247l6 37h535l-6 -37h-247l-110 -696h-41zM233 -198q-3 3 -3 8v2l11 67q1 13 15 13h19q11 0 11 -10v-3l-11 -67q-1 -6 -5 -9.5t-10 -3.5h-19q-5 0 -8 3z" />
    <glyph glyph-name="uni1E6D" unicode="&#x1e6d;" horiz-adv-x="372" 
d="M171.5 28.5q-30.5 28.5 -30.5 80.5q0 29 10 83l50 305h-85l3 26l86 9l34 149h30l-24 -149h168l-5 -35h-168l-49 -305q-1 -9 -4.5 -34t-3.5 -43q0 -38 18.5 -57t58.5 -23l66 -6l-5 -29h-60q-59 0 -89.5 28.5zM184 -198q-3 3 -3 8v2l11 67q1 13 15 13h19q11 0 11 -10v-3
l-11 -67q-1 -6 -5 -9.5t-10 -3.5h-19q-5 0 -8 3z" />
    <glyph glyph-name="uni1E6E" unicode="&#x1e6e;" horiz-adv-x="603" 
d="M386 696h-247l6 37h535l-6 -37h-247l-110 -696h-41zM160 -150h256l-5 -25h-256z" />
    <glyph glyph-name="uni1E6F" unicode="&#x1e6f;" horiz-adv-x="372" 
d="M171.5 28.5q-30.5 28.5 -30.5 80.5q0 29 10 83l50 305h-85l3 26l86 9l34 149h30l-24 -149h168l-5 -35h-168l-49 -305q-1 -9 -4.5 -34t-3.5 -43q0 -38 18.5 -57t58.5 -23l66 -6l-5 -29h-60q-59 0 -89.5 28.5zM96 -150h256l-5 -25h-256z" />
    <glyph glyph-name="uni1E78" unicode="&#x1e78;" horiz-adv-x="670" 
d="M171 39.5q-54 45.5 -54 150.5q0 61 12 133l65 410h41l-65 -413q-13 -76 -13 -129q0 -88 44 -124t135 -36q78 0 127.5 21t84.5 83.5t54 184.5l66 413h41l-66 -416q-21 -135 -62.5 -205t-99.5 -94t-146 -24q-110 0 -164 45.5zM339.5 888.5q29.5 22.5 67.5 22.5
q20 0 37.5 -8.5t43.5 -26.5q22 -17 38 -25t34 -8q30 0 51 18t27 51h22q-8 -44 -34.5 -69t-69.5 -25q-19 0 -36.5 8.5t-39.5 25.5q-24 17 -41 25.5t-37 8.5q-29 0 -51 -17.5t-27 -51.5h-22q8 49 37.5 71.5zM588 1087h40l-151 -134h-25z" />
    <glyph glyph-name="uni1E79" unicode="&#x1e79;" horiz-adv-x="568" 
d="M134.5 26.5q-35.5 32.5 -35.5 90.5q0 26 4 52l57 363h41l-57 -364q-4 -24 -4 -39q0 -48 27 -73t86 -25q57 0 103.5 14.5t107.5 45.5l70 441h41l-84 -532h-32l1 61q-55 -33 -106.5 -50t-115.5 -17q-68 0 -103.5 32.5zM273.5 728.5q29.5 22.5 67.5 22.5q21 0 38 -8.5
t43 -26.5q22 -17 38 -25t34 -8q30 0 51 18t27 51h22q-8 -44 -34.5 -69t-69.5 -25q-19 0 -36.5 8.5t-39.5 25.5q-24 17 -41 25.5t-37 8.5q-29 0 -51 -17.5t-27 -51.5h-22q8 49 37.5 71.5zM521 925h40l-151 -134h-25z" />
    <glyph glyph-name="uni1E7A" unicode="&#x1e7a;" horiz-adv-x="670" 
d="M171 39.5q-54 45.5 -54 150.5q0 61 12 133l65 410h41l-65 -413q-13 -76 -13 -129q0 -88 44 -124t135 -36q78 0 127.5 21t84.5 83.5t54 184.5l66 413h41l-66 -416q-21 -135 -62.5 -205t-99.5 -94t-146 -24q-110 0 -164 45.5zM329 870h256l-5 -25h-256zM347 966l11 69
q1 13 16 13h19q11 0 11 -10q0 4 -12 -70q-1 -6 -5.5 -9.5t-9.5 -3.5h-19q-11 0 -11 11zM554 966l11 69q1 13 16 13h19q11 0 11 -10q0 4 -12 -70q-1 -6 -5.5 -9.5t-9.5 -3.5h-19q-11 0 -11 11z" />
    <glyph glyph-name="uni1E7B" unicode="&#x1e7b;" horiz-adv-x="568" 
d="M134.5 26.5q-35.5 32.5 -35.5 90.5q0 26 4 52l57 363h41l-57 -364q-4 -24 -4 -39q0 -48 27 -73t86 -25q57 0 103.5 14.5t107.5 45.5l70 441h41l-84 -532h-32l1 61q-55 -33 -106.5 -50t-115.5 -17q-68 0 -103.5 32.5zM273 710h256l-5 -25h-256zM290 797l11 69q1 13 16 13
h19q11 0 11 -10q0 4 -12 -70q-1 -6 -5.5 -9.5t-9.5 -3.5h-19q-11 0 -11 11zM497 797l11 69q1 13 16 13h19q11 0 11 -10q0 4 -12 -70q-1 -6 -5.5 -9.5t-9.5 -3.5h-19q-11 0 -11 11z" />
    <glyph glyph-name="Wgrave" unicode="&#x1e80;" horiz-adv-x="987" 
d="M158 733h43l102 -681l280 681h48l54 -680l329 680h43l-352 -733h-50l-56 677l-281 -677h-50zM517 925h38l95 -134h-24z" />
    <glyph glyph-name="wgrave" unicode="&#x1e81;" horiz-adv-x="805" 
d="M101 532h42l97 -485l206 485h36l86 -487l188 393q9 19 18.5 49t13.5 53h33q0 -27 -9 -60t-23 -63l-204 -417h-45l-83 471l-203 -471h-44zM390 765h38l95 -134h-24z" />
    <glyph glyph-name="Wacute" unicode="&#x1e82;" horiz-adv-x="987" 
d="M158 733h43l102 -681l280 681h48l54 -680l329 680h43l-352 -733h-50l-56 677l-281 -677h-50zM729 925h40l-151 -134h-25z" />
    <glyph glyph-name="wacute" unicode="&#x1e83;" horiz-adv-x="805" 
d="M101 532h42l97 -485l206 485h36l86 -487l188 393q9 19 18.5 49t13.5 53h33q0 -27 -9 -60t-23 -63l-204 -417h-45l-83 471l-203 -471h-44zM603 765h40l-151 -134h-25z" />
    <glyph glyph-name="Wdieresis" unicode="&#x1e84;" horiz-adv-x="987" 
d="M158 733h43l102 -681l280 681h48l54 -680l329 680h43l-352 -733h-50l-56 677l-281 -677h-50zM479 833l11 69q1 13 16 13h19q11 0 11 -10q0 4 -12 -70q-1 -6 -5.5 -9.5t-9.5 -3.5h-19q-11 0 -11 11zM686 833l11 69q1 13 16 13h19q11 0 11 -10q0 4 -12 -70q-1 -6 -5.5 -9.5
t-9.5 -3.5h-19q-11 0 -11 11z" />
    <glyph glyph-name="wdieresis" unicode="&#x1e85;" horiz-adv-x="805" 
d="M101 532h42l97 -485l206 485h36l86 -487l188 393q9 19 18.5 49t13.5 53h33q0 -27 -9 -60t-23 -63l-204 -417h-45l-83 471l-203 -471h-44zM353 673l11 69q1 13 16 13h19q11 0 11 -10q0 4 -12 -70q-1 -6 -5.5 -9.5t-9.5 -3.5h-19q-11 0 -11 11zM560 673l11 69q1 13 16 13
h19q11 0 11 -10q0 4 -12 -70q-1 -6 -5.5 -9.5t-9.5 -3.5h-19q-11 0 -11 11z" />
    <glyph glyph-name="uni1E8E" unicode="&#x1e8e;" horiz-adv-x="597" 
d="M309 254l-165 479h46l145 -429l302 429h48l-335 -479l-41 -254h-41zM225 -198q-3 3 -3 8v2l11 67q1 13 15 13h19q11 0 11 -10v-3l-11 -67q-1 -6 -5 -9.5t-10 -3.5h-19q-5 0 -8 3z" />
    <glyph glyph-name="uni1E8F" unicode="&#x1e8f;" horiz-adv-x="547" 
d="M97 -204q48 12 99 61t95 143q-29 4 -49.5 12.5t-37 32.5t-24.5 70l-78 417h42l74 -408q9 -49 31 -66t59 -20l193 410q25 60 28 92h33q0 -58 -26 -113l-203 -425q-58 -120 -113.5 -174t-122.5 -65v33zM376 -198q-3 3 -3 8v2l11 67q1 13 15 13h19q11 0 11 -10v-3l-11 -67
q-1 -6 -5 -9.5t-10 -3.5h-19q-5 0 -8 3z" />
    <glyph glyph-name="uni1E92" unicode="&#x1e92;" horiz-adv-x="555" 
d="M49 36l515 660h-411l7 37h458l-6 -36l-515 -660h420l-5 -37h-468zM203 -198q-3 3 -3 8v2l11 67q1 13 15 13h19q11 0 11 -10v-3l-11 -67q-1 -6 -5 -9.5t-10 -3.5h-19q-5 0 -8 3z" />
    <glyph glyph-name="uni1E93" unicode="&#x1e93;" horiz-adv-x="498" 
d="M67 34l396 463h-337l5 35h384l-5 -34l-397 -462h342q0 -6 -2.5 -18t-3.5 -17h-387zM186 -198q-3 3 -3 8v2l11 67q1 13 15 13h19q11 0 11 -10v-3l-11 -67q-1 -6 -5 -9.5t-10 -3.5h-19q-5 0 -8 3z" />
    <glyph glyph-name="uni1E97" unicode="&#x1e97;" horiz-adv-x="372" 
d="M171.5 28.5q-30.5 28.5 -30.5 80.5q0 29 10 83l50 305h-85l3 26l86 9l34 149h30l-24 -149h168l-5 -35h-168l-49 -305q-1 -9 -4.5 -34t-3.5 -43q0 -38 18.5 -57t58.5 -23l66 -6l-5 -29h-60q-59 0 -89.5 28.5zM131 773l11 69q1 13 16 13h19q11 0 11 -10q0 4 -12 -70
q-1 -6 -5.5 -9.5t-9.5 -3.5h-19q-11 0 -11 11zM338 773l11 69q1 13 16 13h19q11 0 11 -10q0 4 -12 -70q-1 -6 -5.5 -9.5t-9.5 -3.5h-19q-11 0 -11 11z" />
    <glyph glyph-name="uni1E9E" unicode="&#x1e9e;" horiz-adv-x="642" 
d="M656 712l-11 -13l-1 -3h-1l-240 -295l-34 -16h99q73 0 109.5 -32.5t36.5 -91.5q0 -11 -13 -101q-28 -166 -244 -166q-22 0 -68.5 4t-67.5 8l5 32q46 -7 135 -7q83 0 135 28t64 103q12 81 12 95q0 45 -27 68t-86 23h-120l5 37h20l230 296l19 15h-280q-46 0 -75.5 -25.5
t-37.5 -76.5l-94 -594h-41l93 594q12 72 54 105.5t104 33.5q57 0 132 -1t115 -2q50 -2 75 -2l-7 -16h5z" />
    <glyph glyph-name="uni1EA0" unicode="&#x1ea0;" horiz-adv-x="665" 
d="M427 733h55l141 -733h-42l-47 240h-322l-128 -240h-42zM528 278l-80 415l-218 -415h298zM274 -198q-3 3 -3 8v2l11 67q1 13 15 13h19q11 0 11 -10v-3l-11 -67q-1 -6 -5 -9.5t-10 -3.5h-19q-5 0 -8 3z" />
    <glyph glyph-name="uni1EA1" unicode="&#x1ea1;" horiz-adv-x="561" 
d="M134 38q-45 44 -45 134q0 33 11 99q21 140 83.5 203.5t185.5 63.5q53 0 106.5 -14t84.5 -43l-76 -481h-31v58q-30 -20 -90 -42t-110 -22q-74 0 -119 44zM355.5 43q42.5 14 101.5 42l60 382q-23 14 -63 25t-88 11q-74 0 -119 -25t-69.5 -76.5t-38.5 -140.5q-9 -55 -9 -84
q0 -74 35.5 -111t96.5 -37q51 0 93.5 14zM224 -198q-3 3 -3 8v2l11 67q1 13 15 13h19q11 0 11 -10v-3l-11 -67q-1 -6 -5 -9.5t-10 -3.5h-19q-5 0 -8 3z" />
    <glyph glyph-name="uni1EA2" unicode="&#x1ea2;" horiz-adv-x="665" 
d="M427 733h55l141 -733h-42l-47 240h-322l-128 -240h-42zM528 278l-80 415l-218 -415h298zM422 799q77 23 77 83q0 40 -47 40q-20 0 -39 -6l3 20q19 6 45 6q63 0 63 -57q0 -36 -25.5 -64t-80.5 -43z" />
    <glyph glyph-name="uni1EA3" unicode="&#x1ea3;" horiz-adv-x="561" 
d="M134 38q-45 44 -45 134q0 33 11 99q21 140 83.5 203.5t185.5 63.5q53 0 106.5 -14t84.5 -43l-76 -481h-31v58q-30 -20 -90 -42t-110 -22q-74 0 -119 44zM355.5 43q42.5 14 101.5 42l60 382q-23 14 -63 25t-88 11q-74 0 -119 -25t-69.5 -76.5t-38.5 -140.5q-9 -55 -9 -84
q0 -74 35.5 -111t96.5 -37q51 0 93.5 14zM366 629q77 23 77 83q0 40 -47 40q-19 0 -39 -6l3 20q19 6 45 6q63 0 63 -57q0 -36 -25.5 -64t-80.5 -43z" />
    <glyph glyph-name="uni1EA4" unicode="&#x1ea4;" horiz-adv-x="665" 
d="M427 733h55l141 -733h-42l-47 240h-322l-128 -240h-42zM528 278l-80 415l-218 -415h298zM681 995h37l-146 -132h-23zM455 884h31l103 -93h-28l-94 71l-128 -71h-27z" />
    <glyph glyph-name="uni1EA5" unicode="&#x1ea5;" horiz-adv-x="561" 
d="M134 38q-45 44 -45 134q0 33 11 99q21 140 83.5 203.5t185.5 63.5q53 0 106.5 -14t84.5 -43l-76 -481h-31v58q-30 -20 -90 -42t-110 -22q-74 0 -119 44zM355.5 43q42.5 14 101.5 42l60 382q-23 14 -63 25t-88 11q-74 0 -119 -25t-69.5 -76.5t-38.5 -140.5q-9 -55 -9 -84
q0 -74 35.5 -111t96.5 -37q51 0 93.5 14zM603 835h37l-146 -132h-23zM377 724h31l103 -93h-28l-94 71l-128 -71h-27z" />
    <glyph glyph-name="uni1EA6" unicode="&#x1ea6;" horiz-adv-x="665" 
d="M427 733h55l141 -733h-42l-47 240h-322l-128 -240h-42zM528 278l-80 415l-218 -415h298zM257 995h38l89 -132h-23zM448 884h31l103 -93h-28l-94 71l-128 -71h-27z" />
    <glyph glyph-name="uni1EA7" unicode="&#x1ea7;" horiz-adv-x="561" 
d="M134 38q-45 44 -45 134q0 33 11 99q21 140 83.5 203.5t185.5 63.5q53 0 106.5 -14t84.5 -43l-76 -481h-31v58q-30 -20 -90 -42t-110 -22q-74 0 -119 44zM355.5 43q42.5 14 101.5 42l60 382q-23 14 -63 25t-88 11q-74 0 -119 -25t-69.5 -76.5t-38.5 -140.5q-9 -55 -9 -84
q0 -74 35.5 -111t96.5 -37q51 0 93.5 14zM179 835h38l89 -132h-23zM370 724h31l103 -93h-28l-94 71l-128 -71h-27z" />
    <glyph glyph-name="uni1EA8" unicode="&#x1ea8;" horiz-adv-x="665" 
d="M427 733h55l141 -733h-42l-47 240h-322l-128 -240h-42zM528 278l-80 415l-218 -415h298zM570 861q38 12 54.5 31t16.5 40q0 33 -44 33q-21 0 -39 -6l3 20q21 7 43 7q31 0 46 -13.5t15 -38.5q0 -30 -23.5 -55t-74.5 -38zM460 884h31l102 -93h-27l-94 71l-128 -71h-28z" />
    <glyph glyph-name="uni1EA9" unicode="&#x1ea9;" horiz-adv-x="561" 
d="M134 38q-45 44 -45 134q0 33 11 99q21 140 83.5 203.5t185.5 63.5q53 0 106.5 -14t84.5 -43l-76 -481h-31v58q-30 -20 -90 -42t-110 -22q-74 0 -119 44zM355.5 43q42.5 14 101.5 42l60 382q-23 14 -63 25t-88 11q-74 0 -119 -25t-69.5 -76.5t-38.5 -140.5q-9 -55 -9 -84
q0 -74 35.5 -111t96.5 -37q51 0 93.5 14zM491 701q38 12 54.5 31t16.5 40q0 33 -44 33q-21 0 -39 -6l3 20q21 7 43 7q31 0 46 -13.5t15 -38.5q0 -30 -23.5 -55t-74.5 -38zM381 724h31l102 -93h-27l-94 71l-128 -71h-28z" />
    <glyph glyph-name="uni1EAA" unicode="&#x1eaa;" horiz-adv-x="665" 
d="M427 733h55l141 -733h-42l-47 240h-322l-128 -240h-42zM528 278l-80 415l-218 -415h298zM352.5 988.5q26.5 17.5 59.5 17.5q21 0 38.5 -6.5t41.5 -19.5q23 -12 37.5 -18t31.5 -6q27 0 46 13t23 37h22q-5 -34 -30 -53.5t-64 -19.5q-20 0 -36.5 6.5t-38.5 18.5t-39 18
t-36 6q-25 0 -43.5 -12.5t-22.5 -37.5h-22q6 39 32.5 56.5zM459 884h32l101 -93h-27l-94 71l-128 -71h-28z" />
    <glyph glyph-name="uni1EAB" unicode="&#x1eab;" horiz-adv-x="561" 
d="M134 38q-45 44 -45 134q0 33 11 99q21 140 83.5 203.5t185.5 63.5q53 0 106.5 -14t84.5 -43l-76 -481h-31v58q-30 -20 -90 -42t-110 -22q-74 0 -119 44zM355.5 43q42.5 14 101.5 42l60 382q-23 14 -63 25t-88 11q-74 0 -119 -25t-69.5 -76.5t-38.5 -140.5q-9 -55 -9 -84
q0 -74 35.5 -111t96.5 -37q51 0 93.5 14zM274.5 828.5q26.5 17.5 59.5 17.5q21 0 38.5 -6.5t41.5 -19.5q23 -12 37.5 -18t31.5 -6q27 0 46 13t23 37h22q-5 -34 -30 -53.5t-64 -19.5q-20 0 -36.5 6.5t-38.5 18.5t-39 18t-36 6q-25 0 -43.5 -12.5t-22.5 -37.5h-22
q6 39 32.5 56.5zM381 724h32l101 -93h-27l-94 71l-128 -71h-28z" />
    <glyph glyph-name="uni1EAC" unicode="&#x1eac;" horiz-adv-x="665" 
d="M427 733h55l141 -733h-42l-47 240h-322l-128 -240h-42zM528 278l-80 415l-218 -415h298zM458 923h31l96 -132h-27l-89 110l-134 -110h-27zM274 -198q-3 3 -3 8v2l11 67q1 13 15 13h19q11 0 11 -10v-3l-11 -67q-1 -6 -5 -9.5t-10 -3.5h-19q-5 0 -8 3z" />
    <glyph glyph-name="uni1EAD" unicode="&#x1ead;" horiz-adv-x="561" 
d="M134 38q-45 44 -45 134q0 33 11 99q21 140 83.5 203.5t185.5 63.5q53 0 106.5 -14t84.5 -43l-76 -481h-31v58q-30 -20 -90 -42t-110 -22q-74 0 -119 44zM355.5 43q42.5 14 101.5 42l60 382q-23 14 -63 25t-88 11q-74 0 -119 -25t-69.5 -76.5t-38.5 -140.5q-9 -55 -9 -84
q0 -74 35.5 -111t96.5 -37q51 0 93.5 14zM399 763h31l96 -132h-27l-89 110l-134 -110h-27zM224 -198q-3 3 -3 8v2l11 67q1 13 15 13h19q11 0 11 -10v-3l-11 -67q-1 -6 -5 -9.5t-10 -3.5h-19q-5 0 -8 3z" />
    <glyph glyph-name="uni1EAE" unicode="&#x1eae;" horiz-adv-x="665" 
d="M427 733h55l141 -733h-42l-47 240h-322l-128 -240h-42zM528 278l-80 415l-218 -415h298zM578 1028h40l-151 -134h-25zM366 810q-32 20 -32 64q0 8 2 22h22q-1 -6 -1 -16q0 -36 24.5 -53t64.5 -17q42 0 78.5 18t43.5 68h22q-9 -58 -49 -82t-95 -24q-48 0 -80 20z" />
    <glyph glyph-name="uni1EAF" unicode="&#x1eaf;" horiz-adv-x="561" 
d="M134 38q-45 44 -45 134q0 33 11 99q21 140 83.5 203.5t185.5 63.5q53 0 106.5 -14t84.5 -43l-76 -481h-31v58q-30 -20 -90 -42t-110 -22q-74 0 -119 44zM355.5 43q42.5 14 101.5 42l60 382q-23 14 -63 25t-88 11q-74 0 -119 -25t-69.5 -76.5t-38.5 -140.5q-9 -55 -9 -84
q0 -74 35.5 -111t96.5 -37q51 0 93.5 14zM500 868h40l-151 -134h-25zM288 650q-32 20 -32 64q0 8 2 22h22q-1 -6 -1 -16q0 -36 24.5 -53t64.5 -17q42 0 78.5 18t43.5 68h22q-9 -58 -49 -82t-95 -24q-48 0 -80 20z" />
    <glyph glyph-name="uni1EB0" unicode="&#x1eb0;" horiz-adv-x="665" 
d="M427 733h55l141 -733h-42l-47 240h-322l-128 -240h-42zM528 278l-80 415l-218 -415h298zM364 1028h38l95 -134h-24zM366 810q-32 20 -32 64q0 8 2 22h22q-1 -6 -1 -16q0 -36 24.5 -53t64.5 -17q109 0 122 86h22q-9 -58 -49 -82t-95 -24q-48 0 -80 20z" />
    <glyph glyph-name="uni1EB1" unicode="&#x1eb1;" horiz-adv-x="561" 
d="M134 38q-45 44 -45 134q0 33 11 99q21 140 83.5 203.5t185.5 63.5q53 0 106.5 -14t84.5 -43l-76 -481h-31v58q-30 -20 -90 -42t-110 -22q-74 0 -119 44zM355.5 43q42.5 14 101.5 42l60 382q-23 14 -63 25t-88 11q-74 0 -119 -25t-69.5 -76.5t-38.5 -140.5q-9 -55 -9 -84
q0 -74 35.5 -111t96.5 -37q51 0 93.5 14zM286 868h38l95 -134h-24zM288 650q-32 20 -32 64q0 8 2 22h22q-1 -6 -1 -16q0 -36 24.5 -53t64.5 -17q109 0 122 86h22q-9 -58 -49 -82t-95 -24q-48 0 -80 20z" />
    <glyph glyph-name="uni1EB2" unicode="&#x1eb2;" horiz-adv-x="665" 
d="M427 733h55l141 -733h-42l-47 240h-322l-128 -240h-42zM528 278l-80 415l-218 -415h298zM441 874q77 23 77 83q0 40 -47 40q-20 0 -39 -6l3 20q19 6 45 6q63 0 63 -57q0 -36 -25.5 -64t-80.5 -43zM366 810q-32 20 -32 64q0 8 2 22h22q-1 -6 -1 -16q0 -36 24.5 -53
t64.5 -17q44 0 79.5 18t42.5 68h22q-9 -58 -49 -82t-95 -24q-48 0 -80 20z" />
    <glyph glyph-name="uni1EB3" unicode="&#x1eb3;" horiz-adv-x="561" 
d="M134 38q-45 44 -45 134q0 33 11 99q21 140 83.5 203.5t185.5 63.5q53 0 106.5 -14t84.5 -43l-76 -481h-31v58q-30 -20 -90 -42t-110 -22q-74 0 -119 44zM355.5 43q42.5 14 101.5 42l60 382q-23 14 -63 25t-88 11q-74 0 -119 -25t-69.5 -76.5t-38.5 -140.5q-9 -55 -9 -84
q0 -74 35.5 -111t96.5 -37q51 0 93.5 14zM363 714q77 23 77 83q0 40 -47 40q-20 0 -39 -6l3 20q19 6 45 6q63 0 63 -57q0 -36 -25.5 -64t-80.5 -43zM288 650q-32 20 -32 64q0 8 2 22h22q-1 -6 -1 -16q0 -36 24.5 -53t64.5 -17q44 0 79.5 18t42.5 68h22q-9 -58 -49 -82
t-95 -24q-48 0 -80 20z" />
    <glyph glyph-name="uni1EB4" unicode="&#x1eb4;" horiz-adv-x="665" 
d="M427 733h55l141 -733h-42l-47 240h-322l-128 -240h-42zM528 278l-80 415l-218 -415h298zM352.5 986.5q26.5 17.5 59.5 17.5q21 0 39 -7t40 -19t37.5 -18t32.5 -6q27 0 46.5 13t22.5 37h22q-5 -34 -30.5 -53.5t-64.5 -19.5q-19 0 -35.5 6.5t-39.5 18.5t-39 18t-35 6
q-25 0 -44 -12.5t-23 -37.5h-22q7 39 33.5 56.5zM371.5 810q-31.5 20 -31.5 64q0 8 2 22h21q-1 -6 -1 -16q0 -36 25 -53t65 -17q47 0 80.5 17.5t41.5 68.5h22q-9 -58 -49 -82t-96 -24q-48 0 -79.5 20z" />
    <glyph glyph-name="uni1EB5" unicode="&#x1eb5;" horiz-adv-x="561" 
d="M134 38q-45 44 -45 134q0 33 11 99q21 140 83.5 203.5t185.5 63.5q53 0 106.5 -14t84.5 -43l-76 -481h-31v58q-30 -20 -90 -42t-110 -22q-74 0 -119 44zM355.5 43q42.5 14 101.5 42l60 382q-23 14 -63 25t-88 11q-74 0 -119 -25t-69.5 -76.5t-38.5 -140.5q-9 -55 -9 -84
q0 -74 35.5 -111t96.5 -37q51 0 93.5 14zM274.5 826.5q26.5 17.5 59.5 17.5q21 0 39 -7t40 -19t37.5 -18t32.5 -6q27 0 46.5 13t22.5 37h22q-5 -34 -30.5 -53.5t-64.5 -19.5q-19 0 -35.5 6.5t-39.5 18.5t-39 18t-35 6q-25 0 -44 -12.5t-23 -37.5h-22q7 39 33.5 56.5z
M293.5 650q-31.5 20 -31.5 64q0 8 2 22h21q-1 -6 -1 -16q0 -36 25 -53t65 -17q47 0 80.5 17.5t41.5 68.5h22q-9 -58 -49 -82t-96 -24q-48 0 -79.5 20z" />
    <glyph glyph-name="uni1EB6" unicode="&#x1eb6;" horiz-adv-x="665" 
d="M427 733h55l141 -733h-42l-47 240h-322l-128 -240h-42zM528 278l-80 415l-218 -415h298zM377 816q-30 24 -30 78q0 10 2 34h22q-2 -22 -2 -29q0 -43 23.5 -64.5t62.5 -21.5q48 0 82.5 27.5t44.5 87.5h21q-12 -74 -52.5 -105t-96.5 -31q-47 0 -77 24zM274 -198q-3 3 -3 8
v2l11 67q1 13 15 13h19q11 0 11 -10v-3l-11 -67q-1 -6 -5 -9.5t-10 -3.5h-19q-5 0 -8 3z" />
    <glyph glyph-name="uni1EB7" unicode="&#x1eb7;" horiz-adv-x="561" 
d="M134 38q-45 44 -45 134q0 33 11 99q21 140 83.5 203.5t185.5 63.5q53 0 106.5 -14t84.5 -43l-76 -481h-31v58q-30 -20 -90 -42t-110 -22q-74 0 -119 44zM355.5 43q42.5 14 101.5 42l60 382q-23 14 -63 25t-88 11q-74 0 -119 -25t-69.5 -76.5t-38.5 -140.5q-9 -55 -9 -84
q0 -74 35.5 -111t96.5 -37q51 0 93.5 14zM309 656q-30 24 -30 78q0 10 2 34h22q-2 -22 -2 -29q0 -43 23.5 -64.5t62.5 -21.5q48 0 82.5 27.5t44.5 87.5h21q-12 -74 -52.5 -105t-96.5 -31q-47 0 -77 24zM224 -198q-3 3 -3 8v2l11 67q1 13 15 13h19q11 0 11 -10v-3l-11 -67
q-1 -6 -5 -9.5t-10 -3.5h-19q-5 0 -8 3z" />
    <glyph glyph-name="uni1EB8" unicode="&#x1eb8;" horiz-adv-x="569" 
d="M95 99q0 16 3 34l75 469q11 70 52 100.5t98 30.5q59 0 134 -2t105 -3l62 -2l-6 -31h-292q-48 0 -76.5 -23.5t-37.5 -78.5l-33 -209l348 -7l-5 -30l-349 -2l-33 -211q-2 -11 -2 -29q0 -42 23.5 -57.5t69.5 -15.5h284l-5 -31q-96 -3 -290 -7q-125 -2 -125 105zM242 -198
q-3 3 -3 8v2l11 67q1 13 15 13h19q11 0 11 -10v-3l-11 -67q-1 -6 -5 -9.5t-10 -3.5h-19q-5 0 -8 3z" />
    <glyph glyph-name="uni1EB9" unicode="&#x1eb9;" horiz-adv-x="548" 
d="M145 38.5q-53 44.5 -53 135.5q0 52 11 118q18 121 81.5 185t184.5 64q90 0 137 -32.5t47 -105.5q0 -172 -259 -172q-48 0 -90 5.5t-66 11.5q-5 -30 -5 -74q0 -77 43.5 -111.5t144.5 -34.5h157l-5 -26q-99 -8 -162 -8q-113 0 -166 44.5zM451 291.5q62 29.5 62 107.5
q0 58 -36 83t-111 25q-107 0 -157.5 -57.5t-67.5 -176.5q52 -11 132 -11q116 0 178 29.5zM242 -198q-3 3 -3 8v2l11 67q1 13 15 13h19q11 0 11 -10v-3l-11 -67q-1 -6 -5 -9.5t-10 -3.5h-19q-5 0 -8 3z" />
    <glyph glyph-name="uni1EBA" unicode="&#x1eba;" horiz-adv-x="569" 
d="M95 99q0 16 3 34l75 469q11 70 52 100.5t98 30.5q59 0 134 -2t105 -3l62 -2l-6 -31h-292q-48 0 -76.5 -23.5t-37.5 -78.5l-33 -209l348 -7l-5 -30l-349 -2l-33 -211q-2 -11 -2 -29q0 -42 23.5 -57.5t69.5 -15.5h284l-5 -31q-96 -3 -290 -7q-125 -2 -125 105zM390 799
q77 23 77 83q0 40 -47 40q-20 0 -39 -6l3 20q19 6 45 6q63 0 63 -57q0 -36 -25.5 -64t-80.5 -43z" />
    <glyph glyph-name="uni1EBB" unicode="&#x1ebb;" horiz-adv-x="548" 
d="M145 38.5q-53 44.5 -53 135.5q0 52 11 118q18 121 81.5 185t184.5 64q90 0 137 -32.5t47 -105.5q0 -172 -259 -172q-48 0 -90 5.5t-66 11.5q-5 -30 -5 -74q0 -77 43.5 -111.5t144.5 -34.5h157l-5 -26q-99 -8 -162 -8q-113 0 -166 44.5zM451 291.5q62 29.5 62 107.5
q0 58 -36 83t-111 25q-107 0 -157.5 -57.5t-67.5 -176.5q52 -11 132 -11q116 0 178 29.5zM364 629q77 23 77 83q0 40 -47 40q-19 0 -39 -6l3 20q19 6 45 6q63 0 63 -57q0 -36 -25.5 -64t-80.5 -43z" />
    <glyph glyph-name="uni1EBC" unicode="&#x1ebc;" horiz-adv-x="569" 
d="M95 99q0 16 3 34l75 469q11 70 52 100.5t98 30.5q59 0 134 -2t105 -3l62 -2l-6 -31h-292q-48 0 -76.5 -23.5t-37.5 -78.5l-33 -209l348 -7l-5 -30l-349 -2l-33 -211q-2 -11 -2 -29q0 -42 23.5 -57.5t69.5 -15.5h284l-5 -31q-96 -3 -290 -7q-125 -2 -125 105zM317.5 888.5
q29.5 22.5 67.5 22.5q20 0 37.5 -8.5t43.5 -26.5q22 -17 38 -25t34 -8q30 0 51 18t27 51h22q-8 -44 -34.5 -69t-69.5 -25q-19 0 -36.5 8.5t-39.5 25.5q-24 17 -41 25.5t-37 8.5q-29 0 -51 -17.5t-27 -51.5h-22q8 49 37.5 71.5z" />
    <glyph glyph-name="uni1EBD" unicode="&#x1ebd;" horiz-adv-x="548" 
d="M145 38.5q-53 44.5 -53 135.5q0 52 11 118q18 121 81.5 185t184.5 64q90 0 137 -32.5t47 -105.5q0 -172 -259 -172q-48 0 -90 5.5t-66 11.5q-5 -30 -5 -74q0 -77 43.5 -111.5t144.5 -34.5h157l-5 -26q-99 -8 -162 -8q-113 0 -166 44.5zM451 291.5q62 29.5 62 107.5
q0 58 -36 83t-111 25q-107 0 -157.5 -57.5t-67.5 -176.5q52 -11 132 -11q116 0 178 29.5zM269.5 728.5q29.5 22.5 67.5 22.5q21 0 38 -8.5t43 -26.5q22 -17 38 -25t34 -8q30 0 51 18t27 51h22q-8 -44 -34.5 -69t-69.5 -25q-19 0 -36.5 8.5t-39.5 25.5q-24 17 -41 25.5
t-37 8.5q-29 0 -51 -17.5t-27 -51.5h-22q8 49 37.5 71.5z" />
    <glyph glyph-name="uni1EBE" unicode="&#x1ebe;" horiz-adv-x="569" 
d="M95 99q0 16 3 34l75 469q11 70 52 100.5t98 30.5q59 0 134 -2t105 -3l62 -2l-6 -31h-292q-48 0 -76.5 -23.5t-37.5 -78.5l-33 -209l348 -7l-5 -30l-349 -2l-33 -211q-2 -11 -2 -29q0 -42 23.5 -57.5t69.5 -15.5h284l-5 -31q-96 -3 -290 -7q-125 -2 -125 105zM649 995h37
l-146 -132h-23zM423 884h31l103 -93h-28l-94 71l-128 -71h-27z" />
    <glyph glyph-name="uni1EBF" unicode="&#x1ebf;" horiz-adv-x="548" 
d="M145 38.5q-53 44.5 -53 135.5q0 52 11 118q18 121 81.5 185t184.5 64q90 0 137 -32.5t47 -105.5q0 -172 -259 -172q-48 0 -90 5.5t-66 11.5q-5 -30 -5 -74q0 -77 43.5 -111.5t144.5 -34.5h157l-5 -26q-99 -8 -162 -8q-113 0 -166 44.5zM451 291.5q62 29.5 62 107.5
q0 58 -36 83t-111 25q-107 0 -157.5 -57.5t-67.5 -176.5q52 -11 132 -11q116 0 178 29.5zM601 835h37l-146 -132h-23zM375 724h31l103 -93h-28l-94 71l-128 -71h-27z" />
    <glyph glyph-name="uni1EC0" unicode="&#x1ec0;" horiz-adv-x="569" 
d="M95 99q0 16 3 34l75 469q11 70 52 100.5t98 30.5q59 0 134 -2t105 -3l62 -2l-6 -31h-292q-48 0 -76.5 -23.5t-37.5 -78.5l-33 -209l348 -7l-5 -30l-349 -2l-33 -211q-2 -11 -2 -29q0 -42 23.5 -57.5t69.5 -15.5h284l-5 -31q-96 -3 -290 -7q-125 -2 -125 105zM225 995h38
l89 -132h-23zM416 884h31l103 -93h-28l-94 71l-128 -71h-27z" />
    <glyph glyph-name="uni1EC1" unicode="&#x1ec1;" horiz-adv-x="548" 
d="M145 38.5q-53 44.5 -53 135.5q0 52 11 118q18 121 81.5 185t184.5 64q90 0 137 -32.5t47 -105.5q0 -172 -259 -172q-48 0 -90 5.5t-66 11.5q-5 -30 -5 -74q0 -77 43.5 -111.5t144.5 -34.5h157l-5 -26q-99 -8 -162 -8q-113 0 -166 44.5zM451 291.5q62 29.5 62 107.5
q0 58 -36 83t-111 25q-107 0 -157.5 -57.5t-67.5 -176.5q52 -11 132 -11q116 0 178 29.5zM177 835h38l89 -132h-23zM368 724h31l103 -93h-28l-94 71l-128 -71h-27z" />
    <glyph glyph-name="uni1EC2" unicode="&#x1ec2;" horiz-adv-x="569" 
d="M95 99q0 16 3 34l75 469q11 70 52 100.5t98 30.5q59 0 134 -2t105 -3l62 -2l-6 -31h-292q-48 0 -76.5 -23.5t-37.5 -78.5l-33 -209l348 -7l-5 -30l-349 -2l-33 -211q-2 -11 -2 -29q0 -42 23.5 -57.5t69.5 -15.5h284l-5 -31q-96 -3 -290 -7q-125 -2 -125 105zM538 861
q38 12 54.5 31t16.5 40q0 33 -44 33q-21 0 -39 -6l3 20q21 7 43 7q31 0 46 -13.5t15 -38.5q0 -30 -23.5 -55t-74.5 -38zM428 884h31l102 -93h-27l-94 71l-128 -71h-28z" />
    <glyph glyph-name="uni1EC3" unicode="&#x1ec3;" horiz-adv-x="548" 
d="M145 38.5q-53 44.5 -53 135.5q0 52 11 118q18 121 81.5 185t184.5 64q90 0 137 -32.5t47 -105.5q0 -172 -259 -172q-48 0 -90 5.5t-66 11.5q-5 -30 -5 -74q0 -77 43.5 -111.5t144.5 -34.5h157l-5 -26q-99 -8 -162 -8q-113 0 -166 44.5zM451 291.5q62 29.5 62 107.5
q0 58 -36 83t-111 25q-107 0 -157.5 -57.5t-67.5 -176.5q52 -11 132 -11q116 0 178 29.5zM489 701q38 12 54.5 31t16.5 40q0 33 -44 33q-21 0 -39 -6l3 20q21 7 43 7q31 0 46 -13.5t15 -38.5q0 -30 -23.5 -55t-74.5 -38zM379 724h31l102 -93h-27l-94 71l-128 -71h-28z" />
    <glyph glyph-name="uni1EC4" unicode="&#x1ec4;" horiz-adv-x="569" 
d="M95 99q0 16 3 34l75 469q11 70 52 100.5t98 30.5q59 0 134 -2t105 -3l62 -2l-6 -31h-292q-48 0 -76.5 -23.5t-37.5 -78.5l-33 -209l348 -7l-5 -30l-349 -2l-33 -211q-2 -11 -2 -29q0 -42 23.5 -57.5t69.5 -15.5h284l-5 -31q-96 -3 -290 -7q-125 -2 -125 105zM320.5 988.5
q26.5 17.5 59.5 17.5q21 0 38.5 -6.5t41.5 -19.5q23 -12 37.5 -18t31.5 -6q27 0 46 13t23 37h22q-5 -34 -30 -53.5t-64 -19.5q-20 0 -36.5 6.5t-38.5 18.5t-39 18t-36 6q-25 0 -43.5 -12.5t-22.5 -37.5h-22q6 39 32.5 56.5zM427 884h32l101 -93h-27l-94 71l-128 -71h-28z
" />
    <glyph glyph-name="uni1EC5" unicode="&#x1ec5;" horiz-adv-x="548" 
d="M145 38.5q-53 44.5 -53 135.5q0 52 11 118q18 121 81.5 185t184.5 64q90 0 137 -32.5t47 -105.5q0 -172 -259 -172q-48 0 -90 5.5t-66 11.5q-5 -30 -5 -74q0 -77 43.5 -111.5t144.5 -34.5h157l-5 -26q-99 -8 -162 -8q-113 0 -166 44.5zM451 291.5q62 29.5 62 107.5
q0 58 -36 83t-111 25q-107 0 -157.5 -57.5t-67.5 -176.5q52 -11 132 -11q116 0 178 29.5zM272.5 828.5q26.5 17.5 59.5 17.5q21 0 38.5 -6.5t41.5 -19.5q23 -12 37.5 -18t31.5 -6q27 0 46 13t23 37h22q-5 -34 -30 -53.5t-64 -19.5q-20 0 -36.5 6.5t-38.5 18.5t-39 18t-36 6
q-25 0 -43.5 -12.5t-22.5 -37.5h-22q6 39 32.5 56.5zM379 724h32l101 -93h-27l-94 71l-128 -71h-28z" />
    <glyph glyph-name="uni1EC6" unicode="&#x1ec6;" horiz-adv-x="569" 
d="M95 99q0 16 3 34l75 469q11 70 52 100.5t98 30.5q59 0 134 -2t105 -3l62 -2l-6 -31h-292q-48 0 -76.5 -23.5t-37.5 -78.5l-33 -209l348 -7l-5 -30l-349 -2l-33 -211q-2 -11 -2 -29q0 -42 23.5 -57.5t69.5 -15.5h284l-5 -31q-96 -3 -290 -7q-125 -2 -125 105zM426 923h31
l96 -132h-27l-89 110l-134 -110h-27zM242 -198q-3 3 -3 8v2l11 67q1 13 15 13h19q11 0 11 -10v-3l-11 -67q-1 -6 -5 -9.5t-10 -3.5h-19q-5 0 -8 3z" />
    <glyph glyph-name="uni1EC7" unicode="&#x1ec7;" horiz-adv-x="548" 
d="M145 38.5q-53 44.5 -53 135.5q0 52 11 118q18 121 81.5 185t184.5 64q90 0 137 -32.5t47 -105.5q0 -172 -259 -172q-48 0 -90 5.5t-66 11.5q-5 -30 -5 -74q0 -77 43.5 -111.5t144.5 -34.5h157l-5 -26q-99 -8 -162 -8q-113 0 -166 44.5zM451 291.5q62 29.5 62 107.5
q0 58 -36 83t-111 25q-107 0 -157.5 -57.5t-67.5 -176.5q52 -11 132 -11q116 0 178 29.5zM397 763h31l96 -132h-27l-89 110l-134 -110h-27zM242 -198q-3 3 -3 8v2l11 67q1 13 15 13h19q11 0 11 -10v-3l-11 -67q-1 -6 -5 -9.5t-10 -3.5h-19q-5 0 -8 3z" />
    <glyph glyph-name="uni1EC8" unicode="&#x1ec8;" horiz-adv-x="196" 
d="M194 733h41l-116 -733h-41zM187 799q77 23 77 83q0 40 -47 40q-20 0 -39 -6l3 20q19 6 45 6q63 0 63 -57q0 -36 -25.5 -64t-80.5 -43z" />
    <glyph glyph-name="uni1EC9" unicode="&#x1ec9;" horiz-adv-x="194" 
d="M161 532h41l-84 -532h-41zM183 629q77 23 77 83q0 40 -47 40q-19 0 -39 -6l3 20q19 6 45 6q63 0 63 -57q0 -36 -25.5 -64t-80.5 -43z" />
    <glyph glyph-name="uni1ECA" unicode="&#x1eca;" horiz-adv-x="196" 
d="M194 733h41l-116 -733h-41zM39 -198q-3 3 -3 8v2l11 67q1 13 15 13h19q11 0 11 -10v-3l-11 -67q-1 -6 -5 -9.5t-10 -3.5h-19q-5 0 -8 3z" />
    <glyph glyph-name="uni1ECB" unicode="&#x1ecb;" horiz-adv-x="194" 
d="M176.5 640.5q-3.5 3.5 -2.5 9.5l11 67q2 13 16 13h25q6 0 8.5 -3.5t1.5 -9.5l-11 -67q-1 -13 -14 -13h-26q-5 0 -8.5 3.5zM161 532h41l-84 -532h-41zM48 -198q-3 3 -3 8v2l11 67q1 13 15 13h19q11 0 11 -10v-3l-11 -67q-1 -6 -5 -9.5t-10 -3.5h-19q-5 0 -8 3z" />
    <glyph glyph-name="uni1ECC" unicode="&#x1ecc;" horiz-adv-x="681" 
d="M210 11q-49 17 -75 62.5t-26 129.5q0 71 16 168q24 149 65 228t104 109.5t164 30.5q75 0 124.5 -19t76.5 -67t27 -132q0 -72 -16 -169q-23 -147 -65 -224.5t-105.5 -105.5t-162.5 -28q-78 0 -127 17zM486 56.5q52 25.5 86.5 96t56.5 208.5q15 87 15 161q0 73 -22 112
t-63.5 53.5t-107.5 14.5q-86 0 -139 -26.5t-88.5 -100t-57.5 -213.5q-16 -102 -16 -158q0 -71 20.5 -108.5t62 -51t113.5 -13.5q88 0 140 25.5zM285 -198q-3 3 -3 8v2l11 67q1 13 15 13h19q11 0 11 -10v-3l-11 -67q-1 -6 -5 -9.5t-10 -3.5h-19q-5 0 -8 3z" />
    <glyph glyph-name="uni1ECD" unicode="&#x1ecd;" horiz-adv-x="562" 
d="M140.5 35.5q-49.5 41.5 -49.5 136.5q0 41 8 95q17 106 48.5 164.5t83.5 82.5t135 24q100 0 144.5 -45t44.5 -138q0 -28 -10 -106q-16 -98 -46.5 -153t-82.5 -78.5t-136 -23.5q-90 0 -139.5 41.5zM394 47q41 18 68 67.5t42 143.5q9 57 9 98q0 80 -35 113.5t-119 33.5
q-69 0 -110.5 -20t-67 -72.5t-41.5 -152.5q-8 -53 -8 -86q0 -82 39.5 -112.5t115.5 -30.5q66 0 107 18zM218 -198q-3 3 -3 8v2l11 67q1 13 15 13h19q11 0 11 -10v-3l-11 -67q-1 -6 -5 -9.5t-10 -3.5h-19q-5 0 -8 3z" />
    <glyph glyph-name="uni1ECE" unicode="&#x1ece;" horiz-adv-x="681" 
d="M210 11q-49 17 -75 62.5t-26 129.5q0 71 16 168q24 149 65 228t104 109.5t164 30.5q75 0 124.5 -19t76.5 -67t27 -132q0 -72 -16 -169q-23 -147 -65 -224.5t-105.5 -105.5t-162.5 -28q-78 0 -127 17zM486 56.5q52 25.5 86.5 96t56.5 208.5q15 87 15 161q0 73 -22 112
t-63.5 53.5t-107.5 14.5q-86 0 -139 -26.5t-88.5 -100t-57.5 -213.5q-16 -102 -16 -158q0 -71 20.5 -108.5t62 -51t113.5 -13.5q88 0 140 25.5zM433 799q77 23 77 83q0 40 -47 40q-20 0 -39 -6l3 20q19 6 45 6q63 0 63 -57q0 -36 -25.5 -64t-80.5 -43z" />
    <glyph glyph-name="uni1ECF" unicode="&#x1ecf;" horiz-adv-x="562" 
d="M140.5 35.5q-49.5 41.5 -49.5 136.5q0 41 8 95q17 106 48.5 164.5t83.5 82.5t135 24q100 0 144.5 -45t44.5 -138q0 -28 -10 -106q-16 -98 -46.5 -153t-82.5 -78.5t-136 -23.5q-90 0 -139.5 41.5zM394 47q41 18 68 67.5t42 143.5q9 57 9 98q0 80 -35 113.5t-119 33.5
q-69 0 -110.5 -20t-67 -72.5t-41.5 -152.5q-8 -53 -8 -86q0 -82 39.5 -112.5t115.5 -30.5q66 0 107 18zM360 629q77 23 77 83q0 40 -47 40q-19 0 -39 -6l3 20q19 6 45 6q63 0 63 -57q0 -36 -25.5 -64t-80.5 -43z" />
    <glyph glyph-name="uni1ED0" unicode="&#x1ed0;" horiz-adv-x="681" 
d="M210 11q-49 17 -75 62.5t-26 129.5q0 71 16 168q24 149 65 228t104 109.5t164 30.5q75 0 124.5 -19t76.5 -67t27 -132q0 -72 -16 -169q-23 -147 -65 -224.5t-105.5 -105.5t-162.5 -28q-78 0 -127 17zM486 56.5q52 25.5 86.5 96t56.5 208.5q15 87 15 161q0 73 -22 112
t-63.5 53.5t-107.5 14.5q-86 0 -139 -26.5t-88.5 -100t-57.5 -213.5q-16 -102 -16 -158q0 -71 20.5 -108.5t62 -51t113.5 -13.5q88 0 140 25.5zM692 995h37l-146 -132h-23zM466 884h31l103 -93h-28l-94 71l-128 -71h-27z" />
    <glyph glyph-name="uni1ED1" unicode="&#x1ed1;" horiz-adv-x="562" 
d="M140.5 35.5q-49.5 41.5 -49.5 136.5q0 41 8 95q17 106 48.5 164.5t83.5 82.5t135 24q100 0 144.5 -45t44.5 -138q0 -28 -10 -106q-16 -98 -46.5 -153t-82.5 -78.5t-136 -23.5q-90 0 -139.5 41.5zM394 47q41 18 68 67.5t42 143.5q9 57 9 98q0 80 -35 113.5t-119 33.5
q-69 0 -110.5 -20t-67 -72.5t-41.5 -152.5q-8 -53 -8 -86q0 -82 39.5 -112.5t115.5 -30.5q66 0 107 18zM598 835h37l-146 -132h-23zM372 724h31l103 -93h-28l-94 71l-128 -71h-27z" />
    <glyph glyph-name="uni1ED2" unicode="&#x1ed2;" horiz-adv-x="681" 
d="M210 11q-49 17 -75 62.5t-26 129.5q0 71 16 168q24 149 65 228t104 109.5t164 30.5q75 0 124.5 -19t76.5 -67t27 -132q0 -72 -16 -169q-23 -147 -65 -224.5t-105.5 -105.5t-162.5 -28q-78 0 -127 17zM486 56.5q52 25.5 86.5 96t56.5 208.5q15 87 15 161q0 73 -22 112
t-63.5 53.5t-107.5 14.5q-86 0 -139 -26.5t-88.5 -100t-57.5 -213.5q-16 -102 -16 -158q0 -71 20.5 -108.5t62 -51t113.5 -13.5q88 0 140 25.5zM268 995h38l89 -132h-23zM459 884h31l103 -93h-28l-94 71l-128 -71h-27z" />
    <glyph glyph-name="uni1ED3" unicode="&#x1ed3;" horiz-adv-x="562" 
d="M140.5 35.5q-49.5 41.5 -49.5 136.5q0 41 8 95q17 106 48.5 164.5t83.5 82.5t135 24q100 0 144.5 -45t44.5 -138q0 -28 -10 -106q-16 -98 -46.5 -153t-82.5 -78.5t-136 -23.5q-90 0 -139.5 41.5zM394 47q41 18 68 67.5t42 143.5q9 57 9 98q0 80 -35 113.5t-119 33.5
q-69 0 -110.5 -20t-67 -72.5t-41.5 -152.5q-8 -53 -8 -86q0 -82 39.5 -112.5t115.5 -30.5q66 0 107 18zM174 835h38l89 -132h-23zM365 724h31l103 -93h-28l-94 71l-128 -71h-27z" />
    <glyph glyph-name="uni1ED4" unicode="&#x1ed4;" horiz-adv-x="681" 
d="M210 11q-49 17 -75 62.5t-26 129.5q0 71 16 168q24 149 65 228t104 109.5t164 30.5q75 0 124.5 -19t76.5 -67t27 -132q0 -72 -16 -169q-23 -147 -65 -224.5t-105.5 -105.5t-162.5 -28q-78 0 -127 17zM486 56.5q52 25.5 86.5 96t56.5 208.5q15 87 15 161q0 73 -22 112
t-63.5 53.5t-107.5 14.5q-86 0 -139 -26.5t-88.5 -100t-57.5 -213.5q-16 -102 -16 -158q0 -71 20.5 -108.5t62 -51t113.5 -13.5q88 0 140 25.5zM580 861q38 12 54.5 31t16.5 40q0 33 -44 33q-21 0 -39 -6l3 20q21 7 43 7q31 0 46 -13.5t15 -38.5q0 -30 -23.5 -55t-74.5 -38z
M470 884h31l102 -93h-27l-94 71l-128 -71h-28z" />
    <glyph glyph-name="uni1ED5" unicode="&#x1ed5;" horiz-adv-x="562" 
d="M140.5 35.5q-49.5 41.5 -49.5 136.5q0 41 8 95q17 106 48.5 164.5t83.5 82.5t135 24q100 0 144.5 -45t44.5 -138q0 -28 -10 -106q-16 -98 -46.5 -153t-82.5 -78.5t-136 -23.5q-90 0 -139.5 41.5zM394 47q41 18 68 67.5t42 143.5q9 57 9 98q0 80 -35 113.5t-119 33.5
q-69 0 -110.5 -20t-67 -72.5t-41.5 -152.5q-8 -53 -8 -86q0 -82 39.5 -112.5t115.5 -30.5q66 0 107 18zM486 701q38 12 54.5 31t16.5 40q0 33 -44 33q-21 0 -39 -6l3 20q21 7 43 7q31 0 46 -13.5t15 -38.5q0 -30 -23.5 -55t-74.5 -38zM376 724h31l102 -93h-27l-94 71
l-128 -71h-28z" />
    <glyph glyph-name="uni1ED6" unicode="&#x1ed6;" horiz-adv-x="681" 
d="M210 11q-49 17 -75 62.5t-26 129.5q0 71 16 168q24 149 65 228t104 109.5t164 30.5q75 0 124.5 -19t76.5 -67t27 -132q0 -72 -16 -169q-23 -147 -65 -224.5t-105.5 -105.5t-162.5 -28q-78 0 -127 17zM486 56.5q52 25.5 86.5 96t56.5 208.5q15 87 15 161q0 73 -22 112
t-63.5 53.5t-107.5 14.5q-86 0 -139 -26.5t-88.5 -100t-57.5 -213.5q-16 -102 -16 -158q0 -71 20.5 -108.5t62 -51t113.5 -13.5q88 0 140 25.5zM363.5 988.5q26.5 17.5 59.5 17.5q21 0 38.5 -6.5t41.5 -19.5q23 -12 37.5 -18t31.5 -6q27 0 46 13t23 37h22q-5 -34 -30 -53.5
t-64 -19.5q-20 0 -36.5 6.5t-38.5 18.5t-39 18t-36 6q-25 0 -43.5 -12.5t-22.5 -37.5h-22q6 39 32.5 56.5zM470 884h32l101 -93h-27l-94 71l-128 -71h-28z" />
    <glyph glyph-name="uni1ED7" unicode="&#x1ed7;" horiz-adv-x="562" 
d="M140.5 35.5q-49.5 41.5 -49.5 136.5q0 41 8 95q17 106 48.5 164.5t83.5 82.5t135 24q100 0 144.5 -45t44.5 -138q0 -28 -10 -106q-16 -98 -46.5 -153t-82.5 -78.5t-136 -23.5q-90 0 -139.5 41.5zM394 47q41 18 68 67.5t42 143.5q9 57 9 98q0 80 -35 113.5t-119 33.5
q-69 0 -110.5 -20t-67 -72.5t-41.5 -152.5q-8 -53 -8 -86q0 -82 39.5 -112.5t115.5 -30.5q66 0 107 18zM268.5 828.5q26.5 17.5 59.5 17.5q21 0 38.5 -6.5t41.5 -19.5q23 -12 37.5 -18t31.5 -6q27 0 46 13t23 37h22q-5 -34 -30 -53.5t-64 -19.5q-20 0 -36.5 6.5t-38.5 18.5
t-39 18t-36 6q-25 0 -43.5 -12.5t-22.5 -37.5h-22q6 39 32.5 56.5zM375 724h32l101 -93h-27l-94 71l-128 -71h-28z" />
    <glyph glyph-name="uni1ED8" unicode="&#x1ed8;" horiz-adv-x="681" 
d="M210 11q-49 17 -75 62.5t-26 129.5q0 71 16 168q24 149 65 228t104 109.5t164 30.5q75 0 124.5 -19t76.5 -67t27 -132q0 -72 -16 -169q-23 -147 -65 -224.5t-105.5 -105.5t-162.5 -28q-78 0 -127 17zM486 56.5q52 25.5 86.5 96t56.5 208.5q15 87 15 161q0 73 -22 112
t-63.5 53.5t-107.5 14.5q-86 0 -139 -26.5t-88.5 -100t-57.5 -213.5q-16 -102 -16 -158q0 -71 20.5 -108.5t62 -51t113.5 -13.5q88 0 140 25.5zM469 923h31l96 -132h-27l-89 110l-134 -110h-27zM285 -198q-3 3 -3 8v2l11 67q1 13 15 13h19q11 0 11 -10v-3l-11 -67
q-1 -6 -5 -9.5t-10 -3.5h-19q-5 0 -8 3z" />
    <glyph glyph-name="uni1ED9" unicode="&#x1ed9;" horiz-adv-x="562" 
d="M140.5 35.5q-49.5 41.5 -49.5 136.5q0 41 8 95q17 106 48.5 164.5t83.5 82.5t135 24q100 0 144.5 -45t44.5 -138q0 -28 -10 -106q-16 -98 -46.5 -153t-82.5 -78.5t-136 -23.5q-90 0 -139.5 41.5zM394 47q41 18 68 67.5t42 143.5q9 57 9 98q0 80 -35 113.5t-119 33.5
q-69 0 -110.5 -20t-67 -72.5t-41.5 -152.5q-8 -53 -8 -86q0 -82 39.5 -112.5t115.5 -30.5q66 0 107 18zM393 763h31l96 -132h-27l-89 110l-134 -110h-27zM218 -198q-3 3 -3 8v2l11 67q1 13 15 13h19q11 0 11 -10v-3l-11 -67q-1 -6 -5 -9.5t-10 -3.5h-19q-5 0 -8 3z" />
    <glyph glyph-name="uni1EDA" unicode="&#x1eda;" horiz-adv-x="681" 
d="M705 740q-37 -32 -85 -32h-13q39 -24 59 -69t20 -118q0 -72 -16 -169q-23 -147 -65 -224.5t-105.5 -105.5t-162.5 -28q-78 0 -127 17t-75 62.5t-26 129.5q0 71 16 168q24 149 65 228t104 109.5t164 30.5q42 0 78 -6h85q81 0 100 115h33q-12 -76 -49 -108zM622 634
q-22 39 -63.5 53.5t-107.5 14.5q-86 0 -139 -26.5t-88.5 -100t-57.5 -213.5q-16 -102 -16 -158q0 -71 20.5 -108.5t62 -51t113.5 -13.5q88 0 140 25.5t86.5 96t56.5 208.5q15 87 15 161q0 73 -22 112zM573 925h40l-151 -134h-25z" />
    </font>
</defs>
</svg>
